<?xml version="1.0" encoding="utf-8" standalone="no"?>
<!DOCTYPE svg PUBLIC "-//W3C//DTD SVG 1.1//EN"
  "http://www.w3.org/Graphics/SVG/1.1/DTD/svg11.dtd">
<svg xmlns:xlink="http://www.w3.org/1999/xlink" width="1144.914375pt" height="568.344375pt" viewBox="0 0 1144.914375 568.344375" xmlns="http://www.w3.org/2000/svg" version="1.1">
 <metadata>
  <rdf:RDF xmlns:dc="http://purl.org/dc/elements/1.1/" xmlns:cc="http://creativecommons.org/ns#" xmlns:rdf="http://www.w3.org/1999/02/22-rdf-syntax-ns#">
   <cc:Work>
    <dc:type rdf:resource="http://purl.org/dc/dcmitype/StillImage"/>
    <dc:date>2026-04-20T23:12:24.191617</dc:date>
    <dc:format>image/svg+xml</dc:format>
    <dc:creator>
     <cc:Agent>
      <dc:title>Matplotlib v3.10.8, https://matplotlib.org/</dc:title>
     </cc:Agent>
    </dc:creator>
   </cc:Work>
  </rdf:RDF>
 </metadata>
 <defs>
  <style type="text/css">*{stroke-linejoin: round; stroke-linecap: butt}</style>
 </defs>
 <g id="figure_1">
  <g id="patch_1">
   <path d="M 0 568.344375 
L 1144.914375 568.344375 
L 1144.914375 0 
L 0 0 
z
" style="fill: #ffffff"/>
  </g>
  <g id="axes_1">
   <g id="patch_2">
    <path d="M 44.474375 526.916875 
L 1137.714375 526.916875 
L 1137.714375 47.396875 
L 44.474375 47.396875 
z
" style="fill: #ffffff"/>
   </g>
   <g id="patch_3">
    <path d="M 44.474375 526.916875 
L 1137.714375 526.916875 
L 1137.714375 401.961613 
L 44.474375 401.961613 
z
" clip-path="url(#p146e43df4f)" style="fill: #66a36e; opacity: 0.15"/>
   </g>
   <g id="patch_4">
    <path d="M 44.474375 401.961613 
L 1137.714375 401.961613 
L 1137.714375 360.309859 
L 44.474375 360.309859 
z
" clip-path="url(#p146e43df4f)" style="fill: #abd398; opacity: 0.2"/>
   </g>
   <g id="patch_5">
    <path d="M 44.474375 360.309859 
L 1137.714375 360.309859 
L 1137.714375 318.658105 
L 44.474375 318.658105 
z
" clip-path="url(#p146e43df4f)" style="fill: #f9e79f; opacity: 0.25"/>
   </g>
   <g id="patch_6">
    <path d="M 44.474375 318.658105 
L 1137.714375 318.658105 
L 1137.714375 277.006351 
L 44.474375 277.006351 
z
" clip-path="url(#p146e43df4f)" style="fill: #f5b074; opacity: 0.25"/>
   </g>
   <g id="patch_7">
    <path d="M 44.474375 277.006351 
L 1137.714375 277.006351 
L 1137.714375 -306.118205 
L 44.474375 -306.118205 
z
" clip-path="url(#p146e43df4f)" style="fill: #ec7063; opacity: 0.2"/>
   </g>
   <g id="matplotlib.axis_1">
    <g id="xtick_1">
     <g id="line2d_1">
      <path d="M 65.498221 526.916875 
L 65.498221 47.396875 
" clip-path="url(#p146e43df4f)" style="fill: none; stroke-dasharray: 1.85,0.8; stroke-dashoffset: 0; stroke: #b0b0b0; stroke-width: 0.5"/>
     </g>
     <g id="line2d_2">
      <defs>
       <path id="mc1df5d9da7" d="M 0 0 
L 0 3.5 
" style="stroke: #000000; stroke-width: 0.8"/>
      </defs>
      <g>
       <use xlink:href="#mc1df5d9da7" x="65.498221" y="526.916875" style="stroke: #000000; stroke-width: 0.8"/>
      </g>
     </g>
     <g id="text_1">
      <!-- 2024-04 -->
      <g transform="translate(44.606815 541.515313) scale(0.1 -0.1)">
       <defs>
        <path id="DejaVuSans-32" d="M 1228 531 
L 3431 531 
L 3431 0 
L 469 0 
L 469 531 
Q 828 903 1448 1529 
Q 2069 2156 2228 2338 
Q 2531 2678 2651 2914 
Q 2772 3150 2772 3378 
Q 2772 3750 2511 3984 
Q 2250 4219 1831 4219 
Q 1534 4219 1204 4116 
Q 875 4013 500 3803 
L 500 4441 
Q 881 4594 1212 4672 
Q 1544 4750 1819 4750 
Q 2544 4750 2975 4387 
Q 3406 4025 3406 3419 
Q 3406 3131 3298 2873 
Q 3191 2616 2906 2266 
Q 2828 2175 2409 1742 
Q 1991 1309 1228 531 
z
" transform="scale(0.015625)"/>
        <path id="DejaVuSans-30" d="M 2034 4250 
Q 1547 4250 1301 3770 
Q 1056 3291 1056 2328 
Q 1056 1369 1301 889 
Q 1547 409 2034 409 
Q 2525 409 2770 889 
Q 3016 1369 3016 2328 
Q 3016 3291 2770 3770 
Q 2525 4250 2034 4250 
z
M 2034 4750 
Q 2819 4750 3233 4129 
Q 3647 3509 3647 2328 
Q 3647 1150 3233 529 
Q 2819 -91 2034 -91 
Q 1250 -91 836 529 
Q 422 1150 422 2328 
Q 422 3509 836 4129 
Q 1250 4750 2034 4750 
z
" transform="scale(0.015625)"/>
        <path id="DejaVuSans-34" d="M 2419 4116 
L 825 1625 
L 2419 1625 
L 2419 4116 
z
M 2253 4666 
L 3047 4666 
L 3047 1625 
L 3713 1625 
L 3713 1100 
L 3047 1100 
L 3047 0 
L 2419 0 
L 2419 1100 
L 313 1100 
L 313 1709 
L 2253 4666 
z
" transform="scale(0.015625)"/>
        <path id="DejaVuSans-2d" d="M 313 2009 
L 1997 2009 
L 1997 1497 
L 313 1497 
L 313 2009 
z
" transform="scale(0.015625)"/>
       </defs>
       <use xlink:href="#DejaVuSans-32"/>
       <use xlink:href="#DejaVuSans-30" transform="translate(63.623047 0)"/>
       <use xlink:href="#DejaVuSans-32" transform="translate(127.246094 0)"/>
       <use xlink:href="#DejaVuSans-34" transform="translate(190.869141 0)"/>
       <use xlink:href="#DejaVuSans-2d" transform="translate(254.492188 0)"/>
       <use xlink:href="#DejaVuSans-30" transform="translate(290.576172 0)"/>
       <use xlink:href="#DejaVuSans-34" transform="translate(354.199219 0)"/>
      </g>
     </g>
    </g>
    <g id="xtick_2">
     <g id="line2d_3">
      <path d="M 189.730039 526.916875 
L 189.730039 47.396875 
" clip-path="url(#p146e43df4f)" style="fill: none; stroke-dasharray: 1.85,0.8; stroke-dashoffset: 0; stroke: #b0b0b0; stroke-width: 0.5"/>
     </g>
     <g id="line2d_4">
      <g>
       <use xlink:href="#mc1df5d9da7" x="189.730039" y="526.916875" style="stroke: #000000; stroke-width: 0.8"/>
      </g>
     </g>
     <g id="text_2">
      <!-- 2024-07 -->
      <g transform="translate(168.838633 541.515313) scale(0.1 -0.1)">
       <defs>
        <path id="DejaVuSans-37" d="M 525 4666 
L 3525 4666 
L 3525 4397 
L 1831 0 
L 1172 0 
L 2766 4134 
L 525 4134 
L 525 4666 
z
" transform="scale(0.015625)"/>
       </defs>
       <use xlink:href="#DejaVuSans-32"/>
       <use xlink:href="#DejaVuSans-30" transform="translate(63.623047 0)"/>
       <use xlink:href="#DejaVuSans-32" transform="translate(127.246094 0)"/>
       <use xlink:href="#DejaVuSans-34" transform="translate(190.869141 0)"/>
       <use xlink:href="#DejaVuSans-2d" transform="translate(254.492188 0)"/>
       <use xlink:href="#DejaVuSans-30" transform="translate(290.576172 0)"/>
       <use xlink:href="#DejaVuSans-37" transform="translate(354.199219 0)"/>
      </g>
     </g>
    </g>
    <g id="xtick_3">
     <g id="line2d_5">
      <path d="M 315.327042 526.916875 
L 315.327042 47.396875 
" clip-path="url(#p146e43df4f)" style="fill: none; stroke-dasharray: 1.85,0.8; stroke-dashoffset: 0; stroke: #b0b0b0; stroke-width: 0.5"/>
     </g>
     <g id="line2d_6">
      <g>
       <use xlink:href="#mc1df5d9da7" x="315.327042" y="526.916875" style="stroke: #000000; stroke-width: 0.8"/>
      </g>
     </g>
     <g id="text_3">
      <!-- 2024-10 -->
      <g transform="translate(294.435636 541.515313) scale(0.1 -0.1)">
       <defs>
        <path id="DejaVuSans-31" d="M 794 531 
L 1825 531 
L 1825 4091 
L 703 3866 
L 703 4441 
L 1819 4666 
L 2450 4666 
L 2450 531 
L 3481 531 
L 3481 0 
L 794 0 
L 794 531 
z
" transform="scale(0.015625)"/>
       </defs>
       <use xlink:href="#DejaVuSans-32"/>
       <use xlink:href="#DejaVuSans-30" transform="translate(63.623047 0)"/>
       <use xlink:href="#DejaVuSans-32" transform="translate(127.246094 0)"/>
       <use xlink:href="#DejaVuSans-34" transform="translate(190.869141 0)"/>
       <use xlink:href="#DejaVuSans-2d" transform="translate(254.492188 0)"/>
       <use xlink:href="#DejaVuSans-31" transform="translate(290.576172 0)"/>
       <use xlink:href="#DejaVuSans-30" transform="translate(354.199219 0)"/>
      </g>
     </g>
    </g>
    <g id="xtick_4">
     <g id="line2d_7">
      <path d="M 440.924045 526.916875 
L 440.924045 47.396875 
" clip-path="url(#p146e43df4f)" style="fill: none; stroke-dasharray: 1.85,0.8; stroke-dashoffset: 0; stroke: #b0b0b0; stroke-width: 0.5"/>
     </g>
     <g id="line2d_8">
      <g>
       <use xlink:href="#mc1df5d9da7" x="440.924045" y="526.916875" style="stroke: #000000; stroke-width: 0.8"/>
      </g>
     </g>
     <g id="text_4">
      <!-- 2025-01 -->
      <g transform="translate(420.032639 541.515313) scale(0.1 -0.1)">
       <defs>
        <path id="DejaVuSans-35" d="M 691 4666 
L 3169 4666 
L 3169 4134 
L 1269 4134 
L 1269 2991 
Q 1406 3038 1543 3061 
Q 1681 3084 1819 3084 
Q 2600 3084 3056 2656 
Q 3513 2228 3513 1497 
Q 3513 744 3044 326 
Q 2575 -91 1722 -91 
Q 1428 -91 1123 -41 
Q 819 9 494 109 
L 494 744 
Q 775 591 1075 516 
Q 1375 441 1709 441 
Q 2250 441 2565 725 
Q 2881 1009 2881 1497 
Q 2881 1984 2565 2268 
Q 2250 2553 1709 2553 
Q 1456 2553 1204 2497 
Q 953 2441 691 2322 
L 691 4666 
z
" transform="scale(0.015625)"/>
       </defs>
       <use xlink:href="#DejaVuSans-32"/>
       <use xlink:href="#DejaVuSans-30" transform="translate(63.623047 0)"/>
       <use xlink:href="#DejaVuSans-32" transform="translate(127.246094 0)"/>
       <use xlink:href="#DejaVuSans-35" transform="translate(190.869141 0)"/>
       <use xlink:href="#DejaVuSans-2d" transform="translate(254.492188 0)"/>
       <use xlink:href="#DejaVuSans-30" transform="translate(290.576172 0)"/>
       <use xlink:href="#DejaVuSans-31" transform="translate(354.199219 0)"/>
      </g>
     </g>
    </g>
    <g id="xtick_5">
     <g id="line2d_9">
      <path d="M 563.790679 526.916875 
L 563.790679 47.396875 
" clip-path="url(#p146e43df4f)" style="fill: none; stroke-dasharray: 1.85,0.8; stroke-dashoffset: 0; stroke: #b0b0b0; stroke-width: 0.5"/>
     </g>
     <g id="line2d_10">
      <g>
       <use xlink:href="#mc1df5d9da7" x="563.790679" y="526.916875" style="stroke: #000000; stroke-width: 0.8"/>
      </g>
     </g>
     <g id="text_5">
      <!-- 2025-04 -->
      <g transform="translate(542.899272 541.515313) scale(0.1 -0.1)">
       <use xlink:href="#DejaVuSans-32"/>
       <use xlink:href="#DejaVuSans-30" transform="translate(63.623047 0)"/>
       <use xlink:href="#DejaVuSans-32" transform="translate(127.246094 0)"/>
       <use xlink:href="#DejaVuSans-35" transform="translate(190.869141 0)"/>
       <use xlink:href="#DejaVuSans-2d" transform="translate(254.492188 0)"/>
       <use xlink:href="#DejaVuSans-30" transform="translate(290.576172 0)"/>
       <use xlink:href="#DejaVuSans-34" transform="translate(354.199219 0)"/>
      </g>
     </g>
    </g>
    <g id="xtick_6">
     <g id="line2d_11">
      <path d="M 688.022497 526.916875 
L 688.022497 47.396875 
" clip-path="url(#p146e43df4f)" style="fill: none; stroke-dasharray: 1.85,0.8; stroke-dashoffset: 0; stroke: #b0b0b0; stroke-width: 0.5"/>
     </g>
     <g id="line2d_12">
      <g>
       <use xlink:href="#mc1df5d9da7" x="688.022497" y="526.916875" style="stroke: #000000; stroke-width: 0.8"/>
      </g>
     </g>
     <g id="text_6">
      <!-- 2025-07 -->
      <g transform="translate(667.131091 541.515313) scale(0.1 -0.1)">
       <use xlink:href="#DejaVuSans-32"/>
       <use xlink:href="#DejaVuSans-30" transform="translate(63.623047 0)"/>
       <use xlink:href="#DejaVuSans-32" transform="translate(127.246094 0)"/>
       <use xlink:href="#DejaVuSans-35" transform="translate(190.869141 0)"/>
       <use xlink:href="#DejaVuSans-2d" transform="translate(254.492188 0)"/>
       <use xlink:href="#DejaVuSans-30" transform="translate(290.576172 0)"/>
       <use xlink:href="#DejaVuSans-37" transform="translate(354.199219 0)"/>
      </g>
     </g>
    </g>
    <g id="xtick_7">
     <g id="line2d_13">
      <path d="M 813.6195 526.916875 
L 813.6195 47.396875 
" clip-path="url(#p146e43df4f)" style="fill: none; stroke-dasharray: 1.85,0.8; stroke-dashoffset: 0; stroke: #b0b0b0; stroke-width: 0.5"/>
     </g>
     <g id="line2d_14">
      <g>
       <use xlink:href="#mc1df5d9da7" x="813.6195" y="526.916875" style="stroke: #000000; stroke-width: 0.8"/>
      </g>
     </g>
     <g id="text_7">
      <!-- 2025-10 -->
      <g transform="translate(792.728094 541.515313) scale(0.1 -0.1)">
       <use xlink:href="#DejaVuSans-32"/>
       <use xlink:href="#DejaVuSans-30" transform="translate(63.623047 0)"/>
       <use xlink:href="#DejaVuSans-32" transform="translate(127.246094 0)"/>
       <use xlink:href="#DejaVuSans-35" transform="translate(190.869141 0)"/>
       <use xlink:href="#DejaVuSans-2d" transform="translate(254.492188 0)"/>
       <use xlink:href="#DejaVuSans-31" transform="translate(290.576172 0)"/>
       <use xlink:href="#DejaVuSans-30" transform="translate(354.199219 0)"/>
      </g>
     </g>
    </g>
    <g id="xtick_8">
     <g id="line2d_15">
      <path d="M 939.216503 526.916875 
L 939.216503 47.396875 
" clip-path="url(#p146e43df4f)" style="fill: none; stroke-dasharray: 1.85,0.8; stroke-dashoffset: 0; stroke: #b0b0b0; stroke-width: 0.5"/>
     </g>
     <g id="line2d_16">
      <g>
       <use xlink:href="#mc1df5d9da7" x="939.216503" y="526.916875" style="stroke: #000000; stroke-width: 0.8"/>
      </g>
     </g>
     <g id="text_8">
      <!-- 2026-01 -->
      <g transform="translate(918.325097 541.515313) scale(0.1 -0.1)">
       <defs>
        <path id="DejaVuSans-36" d="M 2113 2584 
Q 1688 2584 1439 2293 
Q 1191 2003 1191 1497 
Q 1191 994 1439 701 
Q 1688 409 2113 409 
Q 2538 409 2786 701 
Q 3034 994 3034 1497 
Q 3034 2003 2786 2293 
Q 2538 2584 2113 2584 
z
M 3366 4563 
L 3366 3988 
Q 3128 4100 2886 4159 
Q 2644 4219 2406 4219 
Q 1781 4219 1451 3797 
Q 1122 3375 1075 2522 
Q 1259 2794 1537 2939 
Q 1816 3084 2150 3084 
Q 2853 3084 3261 2657 
Q 3669 2231 3669 1497 
Q 3669 778 3244 343 
Q 2819 -91 2113 -91 
Q 1303 -91 875 529 
Q 447 1150 447 2328 
Q 447 3434 972 4092 
Q 1497 4750 2381 4750 
Q 2619 4750 2861 4703 
Q 3103 4656 3366 4563 
z
" transform="scale(0.015625)"/>
       </defs>
       <use xlink:href="#DejaVuSans-32"/>
       <use xlink:href="#DejaVuSans-30" transform="translate(63.623047 0)"/>
       <use xlink:href="#DejaVuSans-32" transform="translate(127.246094 0)"/>
       <use xlink:href="#DejaVuSans-36" transform="translate(190.869141 0)"/>
       <use xlink:href="#DejaVuSans-2d" transform="translate(254.492188 0)"/>
       <use xlink:href="#DejaVuSans-30" transform="translate(290.576172 0)"/>
       <use xlink:href="#DejaVuSans-31" transform="translate(354.199219 0)"/>
      </g>
     </g>
    </g>
    <g id="xtick_9">
     <g id="line2d_17">
      <path d="M 1062.083136 526.916875 
L 1062.083136 47.396875 
" clip-path="url(#p146e43df4f)" style="fill: none; stroke-dasharray: 1.85,0.8; stroke-dashoffset: 0; stroke: #b0b0b0; stroke-width: 0.5"/>
     </g>
     <g id="line2d_18">
      <g>
       <use xlink:href="#mc1df5d9da7" x="1062.083136" y="526.916875" style="stroke: #000000; stroke-width: 0.8"/>
      </g>
     </g>
     <g id="text_9">
      <!-- 2026-04 -->
      <g transform="translate(1041.19173 541.515313) scale(0.1 -0.1)">
       <use xlink:href="#DejaVuSans-32"/>
       <use xlink:href="#DejaVuSans-30" transform="translate(63.623047 0)"/>
       <use xlink:href="#DejaVuSans-32" transform="translate(127.246094 0)"/>
       <use xlink:href="#DejaVuSans-36" transform="translate(190.869141 0)"/>
       <use xlink:href="#DejaVuSans-2d" transform="translate(254.492188 0)"/>
       <use xlink:href="#DejaVuSans-30" transform="translate(290.576172 0)"/>
       <use xlink:href="#DejaVuSans-34" transform="translate(354.199219 0)"/>
      </g>
     </g>
    </g>
    <g id="text_10">
     <!-- 日期 -->
     <g transform="translate(582.692188 558.232813) scale(0.14 -0.14)">
      <defs>
       <path id="DejaVuSans-65e5" d="M 319 -1131 
L 319 4513 
L 3519 4513 
L 3519 -1131 
L 319 -1131 
z
M 678 -775 
L 3163 -775 
L 3163 4153 
L 678 4153 
L 678 -775 
z
" transform="scale(0.015625)"/>
       <path id="DejaVuSans-671f" d="M 319 -1131 
L 319 4513 
L 3519 4513 
L 3519 -1131 
L 319 -1131 
z
M 678 -775 
L 3163 -775 
L 3163 4153 
L 678 4153 
L 678 -775 
z
" transform="scale(0.015625)"/>
      </defs>
      <use xlink:href="#DejaVuSans-65e5"/>
      <use xlink:href="#DejaVuSans-671f" transform="translate(60.009766 0)"/>
     </g>
    </g>
   </g>
   <g id="matplotlib.axis_2">
    <g id="ytick_1">
     <g id="line2d_19">
      <path d="M 44.474375 526.916875 
L 1137.714375 526.916875 
" clip-path="url(#p146e43df4f)" style="fill: none; stroke-dasharray: 1.85,0.8; stroke-dashoffset: 0; stroke: #b0b0b0; stroke-width: 0.5"/>
     </g>
     <g id="line2d_20">
      <defs>
       <path id="mfe83c1964a" d="M 0 0 
L -3.5 0 
" style="stroke: #000000; stroke-width: 0.8"/>
      </defs>
      <g>
       <use xlink:href="#mfe83c1964a" x="44.474375" y="526.916875" style="stroke: #000000; stroke-width: 0.8"/>
      </g>
     </g>
     <g id="text_11">
      <!-- 0 -->
      <g transform="translate(31.111875 530.716094) scale(0.1 -0.1)">
       <use xlink:href="#DejaVuSans-30"/>
      </g>
     </g>
    </g>
    <g id="ytick_2">
     <g id="line2d_21">
      <path d="M 44.474375 443.613367 
L 1137.714375 443.613367 
" clip-path="url(#p146e43df4f)" style="fill: none; stroke-dasharray: 1.85,0.8; stroke-dashoffset: 0; stroke: #b0b0b0; stroke-width: 0.5"/>
     </g>
     <g id="line2d_22">
      <g>
       <use xlink:href="#mfe83c1964a" x="44.474375" y="443.613367" style="stroke: #000000; stroke-width: 0.8"/>
      </g>
     </g>
     <g id="text_12">
      <!-- 10 -->
      <g transform="translate(24.749375 447.412586) scale(0.1 -0.1)">
       <use xlink:href="#DejaVuSans-31"/>
       <use xlink:href="#DejaVuSans-30" transform="translate(63.623047 0)"/>
      </g>
     </g>
    </g>
    <g id="ytick_3">
     <g id="line2d_23">
      <path d="M 44.474375 360.309859 
L 1137.714375 360.309859 
" clip-path="url(#p146e43df4f)" style="fill: none; stroke-dasharray: 1.85,0.8; stroke-dashoffset: 0; stroke: #b0b0b0; stroke-width: 0.5"/>
     </g>
     <g id="line2d_24">
      <g>
       <use xlink:href="#mfe83c1964a" x="44.474375" y="360.309859" style="stroke: #000000; stroke-width: 0.8"/>
      </g>
     </g>
     <g id="text_13">
      <!-- 20 -->
      <g transform="translate(24.749375 364.109078) scale(0.1 -0.1)">
       <use xlink:href="#DejaVuSans-32"/>
       <use xlink:href="#DejaVuSans-30" transform="translate(63.623047 0)"/>
      </g>
     </g>
    </g>
    <g id="ytick_4">
     <g id="line2d_25">
      <path d="M 44.474375 277.006351 
L 1137.714375 277.006351 
" clip-path="url(#p146e43df4f)" style="fill: none; stroke-dasharray: 1.85,0.8; stroke-dashoffset: 0; stroke: #b0b0b0; stroke-width: 0.5"/>
     </g>
     <g id="line2d_26">
      <g>
       <use xlink:href="#mfe83c1964a" x="44.474375" y="277.006351" style="stroke: #000000; stroke-width: 0.8"/>
      </g>
     </g>
     <g id="text_14">
      <!-- 30 -->
      <g transform="translate(24.749375 280.80557) scale(0.1 -0.1)">
       <defs>
        <path id="DejaVuSans-33" d="M 2597 2516 
Q 3050 2419 3304 2112 
Q 3559 1806 3559 1356 
Q 3559 666 3084 287 
Q 2609 -91 1734 -91 
Q 1441 -91 1130 -33 
Q 819 25 488 141 
L 488 750 
Q 750 597 1062 519 
Q 1375 441 1716 441 
Q 2309 441 2620 675 
Q 2931 909 2931 1356 
Q 2931 1769 2642 2001 
Q 2353 2234 1838 2234 
L 1294 2234 
L 1294 2753 
L 1863 2753 
Q 2328 2753 2575 2939 
Q 2822 3125 2822 3475 
Q 2822 3834 2567 4026 
Q 2313 4219 1838 4219 
Q 1578 4219 1281 4162 
Q 984 4106 628 3988 
L 628 4550 
Q 988 4650 1302 4700 
Q 1616 4750 1894 4750 
Q 2613 4750 3031 4423 
Q 3450 4097 3450 3541 
Q 3450 3153 3228 2886 
Q 3006 2619 2597 2516 
z
" transform="scale(0.015625)"/>
       </defs>
       <use xlink:href="#DejaVuSans-33"/>
       <use xlink:href="#DejaVuSans-30" transform="translate(63.623047 0)"/>
      </g>
     </g>
    </g>
    <g id="ytick_5">
     <g id="line2d_27">
      <path d="M 44.474375 193.702843 
L 1137.714375 193.702843 
" clip-path="url(#p146e43df4f)" style="fill: none; stroke-dasharray: 1.85,0.8; stroke-dashoffset: 0; stroke: #b0b0b0; stroke-width: 0.5"/>
     </g>
     <g id="line2d_28">
      <g>
       <use xlink:href="#mfe83c1964a" x="44.474375" y="193.702843" style="stroke: #000000; stroke-width: 0.8"/>
      </g>
     </g>
     <g id="text_15">
      <!-- 40 -->
      <g transform="translate(24.749375 197.502062) scale(0.1 -0.1)">
       <use xlink:href="#DejaVuSans-34"/>
       <use xlink:href="#DejaVuSans-30" transform="translate(63.623047 0)"/>
      </g>
     </g>
    </g>
    <g id="ytick_6">
     <g id="line2d_29">
      <path d="M 44.474375 110.399335 
L 1137.714375 110.399335 
" clip-path="url(#p146e43df4f)" style="fill: none; stroke-dasharray: 1.85,0.8; stroke-dashoffset: 0; stroke: #b0b0b0; stroke-width: 0.5"/>
     </g>
     <g id="line2d_30">
      <g>
       <use xlink:href="#mfe83c1964a" x="44.474375" y="110.399335" style="stroke: #000000; stroke-width: 0.8"/>
      </g>
     </g>
     <g id="text_16">
      <!-- 50 -->
      <g transform="translate(24.749375 114.198554) scale(0.1 -0.1)">
       <use xlink:href="#DejaVuSans-35"/>
       <use xlink:href="#DejaVuSans-30" transform="translate(63.623047 0)"/>
      </g>
     </g>
    </g>
    <g id="text_17">
     <!-- VIX 指數值 -->
     <g transform="translate(17.837813 313.633281) rotate(-90) scale(0.14 -0.14)">
      <defs>
       <path id="DejaVuSans-56" d="M 1831 0 
L 50 4666 
L 709 4666 
L 2188 738 
L 3669 4666 
L 4325 4666 
L 2547 0 
L 1831 0 
z
" transform="scale(0.015625)"/>
       <path id="DejaVuSans-49" d="M 628 4666 
L 1259 4666 
L 1259 0 
L 628 0 
L 628 4666 
z
" transform="scale(0.015625)"/>
       <path id="DejaVuSans-58" d="M 403 4666 
L 1081 4666 
L 2241 2931 
L 3406 4666 
L 4084 4666 
L 2584 2425 
L 4184 0 
L 3506 0 
L 2194 1984 
L 872 0 
L 191 0 
L 1856 2491 
L 403 4666 
z
" transform="scale(0.015625)"/>
       <path id="DejaVuSans-20" transform="scale(0.015625)"/>
       <path id="DejaVuSans-6307" d="M 319 -1131 
L 319 4513 
L 3519 4513 
L 3519 -1131 
L 319 -1131 
z
M 678 -775 
L 3163 -775 
L 3163 4153 
L 678 4153 
L 678 -775 
z
" transform="scale(0.015625)"/>
       <path id="DejaVuSans-6578" d="M 319 -1131 
L 319 4513 
L 3519 4513 
L 3519 -1131 
L 319 -1131 
z
M 678 -775 
L 3163 -775 
L 3163 4153 
L 678 4153 
L 678 -775 
z
" transform="scale(0.015625)"/>
       <path id="DejaVuSans-503c" d="M 319 -1131 
L 319 4513 
L 3519 4513 
L 3519 -1131 
L 319 -1131 
z
M 678 -775 
L 3163 -775 
L 3163 4153 
L 678 4153 
L 678 -775 
z
" transform="scale(0.015625)"/>
      </defs>
      <use xlink:href="#DejaVuSans-56"/>
      <use xlink:href="#DejaVuSans-49" transform="translate(68.408203 0)"/>
      <use xlink:href="#DejaVuSans-58" transform="translate(97.900391 0)"/>
      <use xlink:href="#DejaVuSans-20" transform="translate(166.40625 0)"/>
      <use xlink:href="#DejaVuSans-6307" transform="translate(198.193359 0)"/>
      <use xlink:href="#DejaVuSans-6578" transform="translate(258.203125 0)"/>
      <use xlink:href="#DejaVuSans-503c" transform="translate(318.212891 0)"/>
     </g>
    </g>
   </g>
   <g id="line2d_31">
    <path d="M 44.474375 277.006351 
L 1137.714375 277.006351 
" clip-path="url(#p146e43df4f)" style="fill: none; stroke-dasharray: 11.1,4.8; stroke-dashoffset: 0; stroke: #8b0000; stroke-opacity: 0.8; stroke-width: 3"/>
   </g>
   <g id="line2d_32">
    <path d="M 1088.021648 526.916875 
L 1088.021648 47.396875 
" clip-path="url(#p146e43df4f)" style="fill: none; stroke-dasharray: 2,3.3; stroke-dashoffset: 0; stroke: #808080; stroke-width: 2"/>
   </g>
   <g id="line2d_33">
    <path d="M 94.167102 385.800728 
L 95.532287 396.213674 
L 96.897472 393.88117 
L 98.262657 398.879384 
L 99.627842 401.711705 
L 103.723396 404.710628 
L 105.088581 396.546888 
L 106.453766 398.712773 
L 107.81895 404.627323 
L 109.184135 414.540445 
L 113.27969 414.540445 
L 114.644875 416.706338 
L 116.010059 418.622315 
L 117.375244 421.204727 
L 118.740429 422.370971 
L 122.835983 413.624101 
L 124.201168 415.123567 
L 125.566353 423.204009 
L 126.931538 423.453917 
L 128.296723 427.035971 
L 132.392277 425.703116 
L 133.757462 428.118917 
L 135.122647 424.536864 
L 136.487832 420.538291 
L 137.853016 427.535787 
M 143.313756 419.288742 
L 144.67894 407.959468 
L 146.044125 406.376697 
L 147.40931 419.288742 
L 152.870049 417.28946 
L 154.235234 421.704543 
L 155.600419 422.121063 
L 156.965604 425.119986 
L 161.061158 420.788208 
L 162.426343 419.871864 
L 163.791528 426.619452 
L 165.156713 427.45249 
L 166.521897 421.454635 
L 170.617452 420.704902 
L 171.982637 424.453559 
M 174.713006 416.289819 
L 176.078191 416.956246 
L 180.173746 415.873299 
L 181.53893 419.955169 
L 184.2693 424.953383 
L 185.634485 423.287315 
L 189.730039 425.119986 
L 191.095224 426.702757 
L 192.460409 426.202933 
M 195.190779 422.954101 
L 199.286333 423.870437 
L 200.651518 422.704185 
L 202.016703 419.871864 
L 203.381887 419.288742 
L 204.747072 423.120704 
L 208.842627 417.622673 
L 210.207812 417.039551 
L 211.572996 406.293399 
L 212.938181 394.214384 
L 214.303366 389.299476 
L 218.39892 402.711346 
L 219.764105 404.294109 
L 221.12929 376.637339 
L 222.494475 373.138607 
L 223.85966 390.38243 
L 227.955214 388.633049 
L 229.320399 379.552965 
L 230.685584 390.632331 
L 232.050769 372.055652 
L 233.415953 332.069975 
L 237.511508 205.615247 
L 238.876693 296.082862 
L 240.241877 294.916602 
L 241.607062 328.737822 
L 242.972247 357.227622 
L 247.067802 354.395318 
L 248.432986 375.970911 
L 249.798171 392.048491 
L 251.163356 400.045636 
L 252.528541 403.627682 
L 256.624095 404.877239 
L 257.98928 394.630903 
L 259.354465 391.382064 
L 260.71965 380.719225 
L 262.084835 394.797514 
L 266.180389 392.381713 
L 267.545574 398.37956 
L 268.910759 384.384568 
L 270.275943 396.546888 
L 271.641128 401.961613 
M 277.101868 354.312012 
L 278.467052 349.313798 
L 279.832237 361.142897 
L 281.197422 340.483631 
L 285.292976 364.891546 
L 286.658161 367.973782 
L 288.023346 379.552965 
L 289.388531 384.717789 
L 290.753716 388.96627 
L 294.84927 384.134667 
L 296.214455 380.219392 
L 297.57964 375.054584 
L 298.944825 390.882247 
L 300.310009 392.381713 
L 304.405564 394.547598 
L 305.770749 398.712773 
L 307.135933 398.54617 
L 308.501118 398.879384 
L 309.866303 385.634133 
L 313.961858 387.55011 
L 315.327042 366.474317 
L 316.692227 369.473248 
L 318.057412 356.227989 
L 319.422597 366.890844 
L 323.518151 338.317738 
L 324.883336 348.48076 
L 326.248521 353.145752 
L 327.613706 352.56263 
L 328.97889 356.477905 
L 333.074445 362.808958 
L 334.43963 354.97844 
L 335.804815 363.808607 
L 337.169999 367.723866 
L 338.535184 376.720644 
L 342.630739 373.888324 
L 343.995923 375.304484 
L 345.361108 366.640927 
L 346.726293 367.973782 
L 348.091478 357.560844 
L 352.187032 361.975935 
L 353.552217 365.807889 
L 354.917402 357.394233 
L 356.282587 333.985952 
L 357.647772 344.648806 
L 361.743326 343.815768 
L 363.108511 356.227989 
L 364.473696 391.382064 
L 365.83888 400.295544 
L 367.204065 402.461438 
L 371.29962 402.211521 
L 372.664805 404.377414 
L 374.029989 410.125353 
L 375.395174 407.709552 
L 376.760359 392.465018 
L 380.855913 397.13001 
L 383.586283 383.968057 
L 384.951468 386.38385 
L 386.316653 399.962331 
L 390.412207 405.29375 
L 391.777392 409.458926 
L 393.142577 409.458926 
M 395.872946 414.373834 
L 399.968501 415.789994 
L 401.333686 416.123208 
L 402.698871 414.873658 
L 404.064055 414.123925 
L 405.42924 420.538291 
L 409.524795 408.709201 
L 410.889979 408.792498 
L 412.255164 413.790712 
L 413.620349 410.958391 
L 414.985534 411.874727 
L 419.081088 404.544025 
L 420.446273 394.714209 
L 421.811458 296.832579 
L 423.176643 326.238723 
L 424.541828 373.971629 
L 428.637382 387.133583 
L 430.002567 408.042765 
M 432.732936 404.210811 
L 434.098121 394.047781 
L 438.193676 381.968774 
L 439.558861 382.385285 
L 442.28923 377.553683 
L 443.654415 392.548324 
L 447.749969 393.298041 
L 449.115154 378.470026 
L 450.480339 379.469659 
M 453.210709 364.141813 
L 457.306263 367.057439 
L 458.671448 371.056019 
L 460.036633 392.631613 
L 461.401818 388.633049 
L 462.767002 393.88117 
M 468.227742 401.461788 
L 469.592926 401.128575 
L 470.958111 401.795002 
L 472.323296 403.211162 
L 476.418851 377.803599 
L 477.784035 390.21582 
L 479.14922 388.96627 
L 480.514405 394.964117 
L 481.87959 390.049209 
L 485.975144 371.805736 
L 488.705514 395.547239 
L 490.070699 397.796438 
L 491.435883 389.132865 
L 495.531438 395.214025 
L 496.896623 393.464651 
L 498.261808 394.547598 
L 499.626992 401.128575 
L 500.992177 403.87759 
M 506.452916 399.045987 
L 507.818101 399.712414 
L 509.183286 396.463583 
L 510.548471 375.221195 
L 514.644025 368.806821 
L 516.00921 365.058156 
L 517.374395 367.807172 
L 518.73958 350.89657 
L 520.104765 363.392096 
L 524.200319 337.151478 
L 525.565504 331.070326 
L 526.930689 344.232279 
L 528.295874 319.741044 
L 529.661058 332.23657 
L 533.756613 294.833297 
L 535.121798 302.663831 
L 536.486982 325.072479 
L 537.852167 321.490425 
L 539.217352 345.565134 
L 543.312906 356.061378 
L 544.678091 346.148256 
L 546.043276 361.142897 
L 547.408461 361.975935 
L 548.773646 366.307706 
L 552.8692 381.302347 
L 554.234385 384.051362 
L 555.59957 374.221545 
L 556.964755 371.222614 
L 558.329939 346.564783 
L 562.425494 341.316653 
L 563.790679 345.565134 
L 565.155864 347.731027 
L 566.521048 276.83974 
L 567.886233 149.468669 
L 571.981788 135.556998 
L 573.346972 90.989602 
L 574.712157 246.85049 
L 576.077342 187.70498 
L 577.442527 214.028887 
L 581.538081 269.592344 
L 582.903266 276.006702 
L 584.268451 255.01423 
L 585.633636 279.921977 
M 591.094375 245.184413 
L 592.45956 272.258054 
L 595.189929 306.412495 
L 596.555114 319.99096 
L 600.650669 317.408556 
L 602.015854 325.572295 
L 603.381038 321.157204 
L 604.746223 321.990242 
L 606.111408 337.984516 
L 610.206962 329.987387 
L 611.572147 320.657387 
L 612.937332 330.73712 
L 614.302517 339.650593 
L 615.667702 344.482196 
L 619.763256 373.721729 
L 621.128441 375.137889 
L 622.493626 371.805736 
L 623.858811 378.386721 
L 625.223995 383.301629 
L 629.31955 375.804317 
L 630.684735 376.220828 
L 632.049919 353.062447 
L 633.415104 357.977355 
L 634.780289 341.233348 
M 640.241028 368.973431 
L 641.606213 366.057805 
L 642.971398 367.140744 
L 644.336583 372.222263 
L 648.432137 373.971629 
L 649.797322 379.552965 
L 651.162507 380.219392 
L 652.527692 372.971996 
L 653.892876 387.216888 
L 657.988431 383.968057 
L 659.353616 385.717423 
L 660.718801 383.135018 
L 662.083985 376.80395 
L 663.44917 353.478974 
L 667.544725 367.723866 
L 668.909909 346.981294 
L 670.275094 359.143615 
M 673.005464 355.145034 
L 677.101018 361.726019 
L 678.466203 381.302347 
L 679.831388 387.300194 
L 681.196573 388.716354 
L 682.561758 390.965552 
L 686.657312 387.55011 
L 688.022497 386.717072 
L 689.387682 388.299843 
L 690.752867 390.465736 
M 696.213606 378.719927 
L 697.578791 386.883682 
L 698.943975 394.131087 
L 700.30916 395.463942 
L 701.674345 390.299125 
L 705.769899 383.634835 
L 707.135084 382.135385 
L 708.500269 383.968057 
L 709.865454 389.299476 
L 711.230639 390.21582 
L 715.326193 388.216537 
L 716.691378 389.466087 
L 718.056563 398.879384 
L 719.421748 398.712773 
L 720.786932 402.544735 
L 724.882487 401.711705 
L 726.247672 393.797873 
L 727.612857 397.963048 
L 728.978041 387.633415 
L 730.343226 357.144333 
L 734.438781 380.969125 
L 735.803965 378.22011 
L 737.16915 387.216888 
L 738.534335 388.882965 
L 739.89952 400.712064 
L 743.995074 391.548674 
L 745.360259 404.210811 
L 746.725444 406.210094 
L 748.090629 403.377773 
L 749.455814 401.21188 
L 753.551368 402.044918 
L 754.916553 397.213316 
L 756.281738 396.213674 
L 757.646922 388.633049 
L 759.012107 408.459284 
L 763.107662 403.710987 
L 764.472847 405.127147 
L 765.838031 403.211162 
L 767.203216 406.70991 
L 768.568401 398.96269 
M 774.02914 383.884751 
L 775.394325 390.715636 
L 776.75951 399.462506 
L 778.124695 400.462147 
L 782.220249 401.045277 
L 783.585434 401.628399 
L 784.950619 399.045987 
L 786.315804 404.377414 
L 787.680988 403.960895 
L 791.776543 396.213674 
L 793.141728 390.632331 
L 794.506912 395.963758 
L 795.872097 396.130369 
L 797.237282 398.212957 
L 801.332837 392.798224 
L 802.698021 388.299843 
L 804.063206 392.131796 
L 805.428391 387.466804 
L 806.793576 399.545812 
L 810.88913 392.631613 
L 812.254315 391.298758 
L 813.6195 391.215453 
L 814.984685 388.383148 
L 816.34987 388.216537 
L 820.445424 390.549025 
L 821.810609 383.301629 
L 823.175794 391.132163 
L 824.540978 390.049209 
L 825.906163 346.481478 
L 830.001718 368.390294 
L 831.366902 353.562279 
L 832.732087 354.97844 
L 834.097272 316.075701 
L 835.462457 353.81218 
L 839.558011 375.054584 
L 840.923196 378.053499 
L 842.288381 371.972347 
L 843.653566 382.801812 
L 845.018751 390.549025 
L 849.114305 395.380636 
L 850.47949 390.132514 
L 851.844675 385.967339 
L 853.20986 386.050644 
L 854.575044 381.635553 
L 858.670599 383.884751 
L 860.035784 368.64021 
L 861.400968 376.887255 
L 862.766153 364.475034 
L 864.131338 367.973782 
L 868.226892 380.302698 
L 869.592077 382.968407 
L 870.957262 381.052431 
L 872.322447 360.309859 
L 873.687632 361.726019 
L 877.783186 340.483631 
L 879.148371 321.240509 
L 880.513556 329.820776 
L 881.878741 306.829006 
L 883.243925 331.736753 
L 887.33948 355.978073 
L 888.704665 372.305569 
L 890.06985 383.71814 
M 892.800219 390.715636 
L 896.895774 383.301629 
L 898.260958 388.716354 
L 899.626143 392.964835 
L 900.991328 395.463942 
L 902.356513 398.54617 
L 906.452067 388.133232 
L 907.817252 385.884033 
L 909.182437 395.547239 
L 910.547622 403.211162 
L 911.912807 395.797155 
L 916.008361 389.466087 
L 917.373546 389.632698 
L 918.738731 380.136087 
L 920.103915 386.38385 
L 921.4691 402.711346 
L 925.564655 409.625536 
L 926.92984 410.291964 
L 928.295024 414.707047 
L 931.025394 413.624101 
L 935.120948 408.625895 
L 936.486133 407.542949 
L 937.851318 402.378132 
L 940.581688 406.043483 
L 944.677242 402.794651 
L 946.042427 404.044201 
L 947.407612 398.796079 
L 948.772797 398.212957 
L 950.137981 406.210094 
L 954.233536 400.961972 
L 955.598721 393.797873 
L 956.963905 387.383499 
L 958.32909 394.964117 
L 959.694275 394.797514 
M 965.155014 359.560126 
L 966.520199 386.13395 
L 967.885384 396.630186 
L 969.250569 392.881529 
L 973.346123 392.381713 
L 974.711308 390.715636 
L 976.076493 390.715636 
L 978.806863 381.635553 
L 982.902417 390.798942 
L 984.267602 376.970561 
L 985.632787 371.639141 
L 986.997971 345.565134 
L 988.363156 357.227622 
L 992.458711 382.30198 
L 993.823895 378.719927 
L 995.18908 379.886187 
L 996.554265 353.478974 
L 997.91945 355.311645 
L 1003.380189 357.89405 
L 1004.745374 363.475385 
L 1006.110559 358.393882 
L 1007.475744 367.890477 
L 1011.571298 351.896203 
L 1012.936483 364.058523 
L 1014.301668 377.553683 
L 1015.666853 371.722447 
L 1017.032037 361.476103 
L 1021.127592 348.314149 
L 1022.492777 330.570509 
L 1023.857961 350.729959 
L 1025.223146 329.071043 
L 1026.588331 281.254832 
L 1030.683885 314.49293 
L 1032.04907 319.241227 
L 1033.414255 325.072479 
L 1034.77944 299.581594 
L 1036.144625 300.414632 
L 1041.605364 340.566921 
L 1042.970549 317.908372 
L 1044.335734 326.488639 
L 1045.700918 303.830075 
L 1049.796473 309.078205 
L 1051.161658 302.413915 
L 1052.526843 315.90909 
L 1053.892027 298.332045 
L 1055.257212 268.259489 
L 1059.352767 271.924832 
L 1060.717951 316.575517 
L 1063.448321 328.071394 
L 1068.90906 325.572295 
L 1070.274245 312.160426 
L 1071.63943 351.646286 
L 1073.004615 364.55834 
L 1074.3698 366.724233 
L 1078.465354 367.640561 
L 1079.830539 373.971629 
L 1081.195724 375.5544 
L 1082.560908 377.470377 
L 1083.926093 381.302347 
L 1083.926093 381.302347 
" clip-path="url(#p146e43df4f)" style="fill: none; stroke: #0000ff; stroke-width: 2.5; stroke-linecap: square"/>
   </g>
   <g id="line2d_34">
    <path d="M 94.167102 366.97414 
L 95.532287 381.385646 
L 96.897472 383.218324 
L 98.262657 373.805027 
L 99.627842 380.635915 
L 103.723396 373.305206 
L 105.088581 374.887973 
M 107.81895 377.470382 
L 109.184135 378.13681 
L 113.27969 379.386362 
L 114.644875 381.302343 
L 116.010059 385.800732 
L 117.375244 387.88332 
L 118.740429 388.466445 
L 122.835983 389.29948 
L 124.201168 392.131799 
L 126.931538 386.550464 
L 128.296723 384.967697 
L 132.392277 381.718861 
L 133.757462 378.886541 
L 135.122647 378.38672 
L 136.487832 386.300553 
L 137.853016 385.717429 
L 141.948571 388.049927 
L 143.313756 389.54939 
L 146.044125 378.053506 
L 147.40931 375.137883 
L 151.504865 380.635915 
L 152.870049 368.473603 
L 154.235234 375.137883 
L 155.600419 380.969129 
L 156.965604 385.634125 
M 162.426343 379.136452 
L 163.791528 378.969845 
L 165.156713 382.052075 
L 166.521897 379.886183 
L 170.617452 373.721724 
L 171.982637 366.557622 
L 173.347822 360.643073 
L 174.713006 370.139673 
L 176.078191 361.309501 
L 180.173746 349.063885 
L 181.53893 349.480403 
L 182.904115 349.397099 
L 184.2693 352.146115 
L 185.634485 358.643789 
L 189.730039 359.226913 
L 191.095224 360.559769 
L 192.460409 367.973782 
L 193.825594 369.056727 
L 195.190779 369.639852 
L 199.286333 363.641999 
L 200.651518 354.39531 
L 202.016703 351.31308 
L 203.381887 354.39531 
L 204.747072 352.396026 
L 208.842627 329.404257 
L 210.207812 339.400678 
L 211.572996 339.900499 
L 212.938181 332.569791 
L 214.303366 334.569075 
L 218.39892 329.404257 
L 219.764105 345.481835 
M 223.85966 319.657747 
L 229.320399 326.988456 
L 230.685584 326.238724 
L 232.050769 330.153989 
L 233.415953 282.837596 
L 237.511508 126.643519 
L 238.876693 187.954901 
L 240.241877 230.522993 
L 241.607062 216.777915 
L 242.972247 241.269146 
L 247.067802 261.511898 
L 248.432986 271.924837 
L 249.798171 297.748924 
L 251.163356 305.662758 
L 252.528541 322.323459 
L 256.624095 317.491856 
L 257.98928 323.406405 
L 259.354465 315.659179 
L 260.71965 318.158284 
L 262.084835 320.9073 
L 266.180389 320.490782 
L 267.545574 326.738545 
L 268.910759 323.573012 
L 271.641128 345.981656 
L 275.736683 350.480045 
L 277.101868 352.146115 
L 278.467052 279.005635 
L 279.832237 294.833302 
L 281.197422 294.583391 
L 285.292976 287.6692 
L 286.658161 292.334196 
L 288.023346 289.501877 
L 289.388531 315.492572 
L 290.753716 328.821133 
L 294.84927 329.23765 
M 297.57964 315.325965 
L 298.944825 338.317733 
L 300.310009 345.981656 
L 304.405564 348.397457 
L 305.770749 352.895847 
L 307.135933 345.315228 
L 308.501118 344.232282 
L 309.866303 335.652021 
L 313.961858 314.826144 
L 315.327042 318.241587 
M 319.422597 314.74284 
L 323.518151 318.991319 
L 324.883336 314.243019 
L 326.248521 318.07498 
M 328.97889 324.23944 
L 333.074445 325.155779 
L 334.43963 317.575159 
L 335.804815 309.161505 
L 337.169999 309.411416 
L 338.535184 319.407837 
L 342.630739 317.408552 
L 343.995923 321.323817 
L 345.361108 316.908731 
L 346.726293 315.825786 
L 348.091478 318.491498 
L 352.187032 309.74463 
L 353.552217 300.997761 
L 354.917402 294.999909 
M 357.647772 291.501161 
L 361.743326 292.834017 
L 363.108511 297.832228 
L 364.473696 319.157926 
L 365.83888 334.902289 
L 367.204065 344.398889 
L 371.29962 338.317733 
L 372.664805 320.240872 
L 374.029989 319.324533 
L 375.395174 320.324175 
L 376.760359 325.6556 
L 380.855913 311.494003 
L 382.221098 331.153631 
L 383.586283 328.904436 
L 384.951468 338.48434 
L 386.316653 351.396384 
L 390.412207 352.812543 
L 391.777392 347.564422 
L 393.142577 345.481835 
L 394.507762 347.147905 
L 395.872946 345.231924 
L 399.968501 347.147905 
L 401.333686 355.061738 
L 402.698871 359.560127 
L 404.064055 368.306996 
L 405.42924 367.473961 
L 409.524795 369.473245 
L 410.889979 371.639136 
L 412.255164 367.807175 
L 413.620349 376.47074 
L 414.985534 378.553327 
L 419.081088 371.472529 
L 420.446273 375.887615 
L 421.811458 381.968771 
L 423.176643 367.973782 
L 424.541828 364.641641 
L 428.637382 367.973782 
L 430.002567 372.555475 
L 431.367752 379.219755 
L 432.732936 382.052075 
L 434.098121 385.300911 
L 438.193676 377.137168 
L 439.558861 376.887257 
L 442.28923 374.221545 
L 443.654415 377.803596 
L 447.749969 375.637704 
L 449.115154 373.305206 
L 450.480339 366.307712 
L 451.845524 361.726019 
L 453.210709 358.810396 
L 457.306263 338.401036 
L 458.671448 341.899784 
L 460.036633 337.901215 
L 461.401818 351.146473 
L 462.767002 356.311291 
L 466.862557 356.811112 
L 468.227742 362.975571 
L 469.592926 356.311291 
M 485.975144 319.407837 
L 487.340329 337.901215 
L 488.705514 354.145399 
L 491.435883 371.056011 
L 495.531438 364.308427 
L 496.896623 366.057801 
L 498.261808 365.974498 
L 499.626992 368.556906 
L 500.992177 361.726019 
L 505.087732 362.975571 
L 506.452916 366.557622 
L 507.818101 369.473245 
L 509.183286 373.805027 
L 510.548471 379.219755 
L 514.644025 369.973066 
L 516.00921 363.142178 
L 517.374395 361.559412 
L 518.73958 361.226198 
M 524.200319 353.145757 
L 525.565504 343.732461 
L 526.930689 350.729956 
L 528.295874 349.980224 
L 529.661058 338.984161 
L 533.756613 342.149694 
L 535.121798 328.654526 
L 536.486982 339.983803 
L 537.852167 334.569075 
L 539.217352 334.735682 
L 543.312906 343.149336 
L 544.678091 349.563706 
L 546.043276 347.98094 
L 547.408461 366.224408 
L 548.773646 363.89191 
L 552.8692 357.310933 
L 554.234385 366.307712 
L 555.59957 369.389941 
L 556.964755 359.726734 
L 558.329939 347.98094 
L 562.425494 310.827575 
L 563.790679 325.738903 
L 565.155864 320.324175 
M 571.981788 171.294199 
L 573.346972 178.874818 
L 574.712157 135.973512 
L 576.077342 191.203738 
L 577.442527 182.040352 
L 581.538081 174.709643 
L 582.903266 226.857639 
L 584.268451 222.35925 
L 585.633636 247.76682 
L 586.998821 280.171884 
L 591.094375 259.679221 
L 592.45956 253.598065 
L 593.824745 279.505456 
L 595.189929 273.007783 
L 596.555114 273.674211 
L 600.650669 273.257693 
L 602.015854 286.669558 
L 603.381038 289.002056 
M 606.111408 284.920184 
L 610.206962 264.677432 
L 611.572147 264.594128 
L 612.937332 256.596991 
L 614.302517 269.175821 
L 615.667702 292.500803 
L 619.763256 302.997045 
L 621.128441 309.99454 
L 622.493626 312.327038 
L 623.858811 320.740693 
L 625.223995 327.404973 
L 629.31955 305.912668 
L 630.684735 307.328828 
L 632.049919 316.492214 
L 633.415104 316.075696 
L 634.780289 319.907658 
L 638.875844 311.494003 
L 640.241028 307.412131 
L 641.606213 305.746061 
L 642.971398 303.330259 
M 648.432137 302.913742 
L 649.797322 309.74463 
L 652.527692 339.733892 
L 653.892876 339.567285 
L 657.988431 341.733177 
L 659.353616 339.150768 
L 660.718801 339.317375 
L 662.083985 336.81827 
L 663.44917 315.242661 
L 667.544725 320.657389 
L 668.909909 318.991319 
L 670.275094 320.490782 
L 671.640279 310.244451 
L 673.005464 312.660252 
L 677.101018 308.495077 
L 678.466203 322.739977 
L 679.831388 330.237293 
L 681.196573 332.486487 
L 682.561758 329.071043 
L 686.657312 323.656315 
L 688.022497 324.572654 
L 689.387682 324.905868 
L 690.752867 326.738545 
L 692.118051 320.9073 
L 696.213606 317.741766 
L 697.578791 322.739977 
L 698.943975 336.318449 
L 700.30916 340.233714 
L 701.674345 345.315228 
L 705.769899 336.984877 
L 707.135084 343.649157 
L 708.500269 344.398889 
L 711.230639 358.227271 
L 715.326193 352.396026 
L 716.691378 339.067464 
L 719.421748 345.565138 
L 720.786932 338.900857 
L 724.882487 335.652021 
L 726.247672 325.322386 
L 727.612857 329.071043 
L 728.978041 331.153631 
L 730.343226 331.653452 
L 734.438781 328.071401 
L 735.803965 337.651305 
L 737.16915 339.567285 
L 738.534335 349.813617 
L 739.89952 355.145041 
L 743.995074 358.227271 
L 745.360259 362.059233 
L 746.725444 369.473245 
L 748.090629 359.226913 
L 749.455814 360.393162 
L 753.551368 360.726376 
L 754.916553 357.894057 
L 756.281738 328.238008 
L 757.646922 339.150768 
L 759.012107 326.322028 
L 763.107662 341.56657 
L 764.472847 344.232282 
L 765.838031 350.313438 
L 767.203216 354.39531 
L 768.568401 363.225482 
L 772.663955 349.980224 
L 774.02914 348.730671 
L 775.394325 349.313796 
L 776.75951 356.477898 
L 778.124695 368.973424 
L 782.220249 369.473245 
L 783.585434 376.970561 
L 784.950619 366.807533 
L 786.315804 354.811827 
L 787.680988 365.391373 
L 791.776543 356.894415 
L 793.141728 358.643789 
L 794.506912 342.899426 
L 795.872097 369.223334 
L 797.237282 361.892626 
L 801.332837 361.142894 
L 802.698021 360.226555 
L 804.063206 353.145757 
L 805.428391 354.64522 
L 806.793576 340.233714 
M 812.254315 344.232282 
L 813.6195 338.067822 
L 814.984685 337.901215 
L 816.34987 334.818986 
M 821.810609 329.487561 
L 823.175794 330.820417 
L 824.540978 335.485414 
M 830.001718 313.243377 
L 831.366902 299.998119 
L 832.732087 308.57838 
L 834.097272 299.248388 
L 835.462457 269.425732 
L 839.558011 305.995972 
L 840.923196 312.743556 
L 842.288381 314.826144 
L 843.653566 309.99454 
M 849.114305 318.991319 
L 850.47949 311.910521 
L 851.844675 315.659179 
L 853.20986 311.4107 
L 854.575044 316.159 
L 858.670599 313.659894 
L 860.035784 309.078202 
L 861.400968 289.668484 
L 862.766153 304.413205 
L 864.131338 292.334196 
L 868.226892 314.826144 
L 869.592077 309.74463 
L 870.957262 316.492214 
L 872.322447 320.740693 
L 873.687632 304.163295 
L 877.783186 309.494719 
L 879.148371 285.003488 
L 880.513556 293.250535 
L 881.878741 323.489708 
L 883.243925 274.090728 
L 887.33948 290.501519 
L 888.704665 303.080349 
L 890.06985 321.073907 
L 891.435034 328.321312 
L 892.800219 327.57158 
L 896.895774 317.325249 
L 898.260958 324.655958 
L 899.626143 329.320954 
L 902.356513 351.562991 
L 906.452067 358.227271 
L 907.817252 355.061738 
L 909.182437 359.060306 
L 910.547622 353.562275 
L 911.912807 363.142178 
L 916.008361 348.147547 
L 917.373546 348.813975 
L 918.738731 350.313438 
L 920.103915 344.482192 
L 921.4691 354.062096 
L 925.564655 372.805385 
L 926.92984 382.635199 
L 928.295024 385.467518 
L 931.025394 389.466087 
L 935.120948 381.802164 
L 936.486133 377.053864 
L 937.851318 374.887973 
L 940.581688 368.057085 
L 944.677242 345.065317 
L 946.042427 346.56478 
L 947.407612 345.065317 
L 948.772797 349.64701 
L 950.137981 347.647726 
L 954.233536 338.151126 
L 955.598721 333.569433 
L 956.963905 338.401036 
L 958.32909 338.067822 
L 959.694275 343.982371 
L 963.78983 340.983445 
L 965.155014 344.315585 
L 966.520199 335.568717 
L 967.885384 350.646652 
L 969.250569 355.561559 
L 973.346123 354.478613 
L 974.711308 345.565138 
L 976.076493 332.736398 
L 977.441678 328.071401 
L 978.806863 314.243019 
L 982.902417 290.75143 
L 984.267602 312.910163 
L 985.632787 298.248745 
L 986.997971 286.669558 
L 988.363156 276.50653 
L 992.458711 290.168305 
L 993.823895 295.416426 
L 995.18908 282.9209 
M 1011.571298 298.83187 
L 1012.936483 307.911952 
L 1014.301668 284.58697 
L 1015.666853 303.996688 
M 1021.127592 273.840818 
L 1022.492777 256.846902 
L 1023.857961 200.617034 
L 1025.223146 243.185127 
L 1026.588331 243.351734 
L 1030.683885 180.124371 
L 1032.04907 219.110413 
L 1033.414255 238.686737 
L 1034.77944 220.193358 
L 1036.144625 208.780778 
L 1040.240179 218.693895 
L 1041.605364 236.354239 
L 1042.970549 261.928416 
L 1044.335734 229.523351 
L 1045.700918 236.770757 
L 1049.796473 200.117213 
L 1051.161658 206.531583 
L 1052.526843 224.441837 
L 1053.892027 220.276662 
L 1055.257212 225.191569 
L 1059.352767 214.112202 
L 1060.717951 218.693895 
L 1062.083136 236.60415 
L 1063.448321 223.275588 
M 1070.274245 246.850481 
L 1071.63943 272.591265 
L 1073.004615 282.421079 
L 1074.3698 299.331691 
L 1078.465354 281.754651 
L 1079.830539 296.166158 
L 1081.195724 292.500803 
L 1082.560908 280.921616 
L 1083.926093 289.08536 
L 1088.021648 277.089654 
L 1088.021648 277.089654 
" clip-path="url(#p146e43df4f)" style="fill: none; stroke: #008000; stroke-width: 2.5; stroke-linecap: square"/>
   </g>
   <g id="patch_8">
    <path d="M 44.474375 526.916875 
L 44.474375 47.396875 
" style="fill: none; stroke: #000000; stroke-width: 0.8; stroke-linejoin: miter; stroke-linecap: square"/>
   </g>
   <g id="patch_9">
    <path d="M 1137.714375 526.916875 
L 1137.714375 47.396875 
" style="fill: none; stroke: #000000; stroke-width: 0.8; stroke-linejoin: miter; stroke-linecap: square"/>
   </g>
   <g id="patch_10">
    <path d="M 44.474375 526.916875 
L 1137.714375 526.916875 
" style="fill: none; stroke: #000000; stroke-width: 0.8; stroke-linejoin: miter; stroke-linecap: square"/>
   </g>
   <g id="patch_11">
    <path d="M 44.474375 47.396875 
L 1137.714375 47.396875 
" style="fill: none; stroke: #000000; stroke-width: 0.8; stroke-linejoin: miter; stroke-linecap: square"/>
   </g>
   <g id="text_18">
    <!--  恐慌臨界點 (30) -->
    <g style="fill: #8b0000" transform="translate(94.167102 270.345551) scale(0.12 -0.12)">
     <defs>
      <path id="DejaVuSans-Bold-20" transform="scale(0.015625)"/>
      <path id="DejaVuSans-Bold-6050" d="M 319 -1131 
L 319 4513 
L 3519 4513 
L 3519 -1131 
L 319 -1131 
z
M 678 -775 
L 3163 -775 
L 3163 4153 
L 678 4153 
L 678 -775 
z
" transform="scale(0.015625)"/>
      <path id="DejaVuSans-Bold-614c" d="M 319 -1131 
L 319 4513 
L 3519 4513 
L 3519 -1131 
L 319 -1131 
z
M 678 -775 
L 3163 -775 
L 3163 4153 
L 678 4153 
L 678 -775 
z
" transform="scale(0.015625)"/>
      <path id="DejaVuSans-Bold-81e8" d="M 319 -1131 
L 319 4513 
L 3519 4513 
L 3519 -1131 
L 319 -1131 
z
M 678 -775 
L 3163 -775 
L 3163 4153 
L 678 4153 
L 678 -775 
z
" transform="scale(0.015625)"/>
      <path id="DejaVuSans-Bold-754c" d="M 319 -1131 
L 319 4513 
L 3519 4513 
L 3519 -1131 
L 319 -1131 
z
M 678 -775 
L 3163 -775 
L 3163 4153 
L 678 4153 
L 678 -775 
z
" transform="scale(0.015625)"/>
      <path id="DejaVuSans-Bold-9ede" d="M 319 -1131 
L 319 4513 
L 3519 4513 
L 3519 -1131 
L 319 -1131 
z
M 678 -775 
L 3163 -775 
L 3163 4153 
L 678 4153 
L 678 -775 
z
" transform="scale(0.015625)"/>
      <path id="DejaVuSans-Bold-28" d="M 2413 -844 
L 1484 -844 
Q 1006 -72 778 623 
Q 550 1319 550 2003 
Q 550 2688 779 3389 
Q 1009 4091 1484 4856 
L 2413 4856 
Q 2013 4116 1813 3408 
Q 1613 2700 1613 2009 
Q 1613 1319 1811 609 
Q 2009 -100 2413 -844 
z
" transform="scale(0.015625)"/>
      <path id="DejaVuSans-Bold-33" d="M 2981 2516 
Q 3453 2394 3698 2092 
Q 3944 1791 3944 1325 
Q 3944 631 3412 270 
Q 2881 -91 1863 -91 
Q 1503 -91 1142 -33 
Q 781 25 428 141 
L 428 1069 
Q 766 900 1098 814 
Q 1431 728 1753 728 
Q 2231 728 2486 893 
Q 2741 1059 2741 1369 
Q 2741 1688 2480 1852 
Q 2219 2016 1709 2016 
L 1228 2016 
L 1228 2791 
L 1734 2791 
Q 2188 2791 2409 2933 
Q 2631 3075 2631 3366 
Q 2631 3634 2415 3781 
Q 2200 3928 1806 3928 
Q 1516 3928 1219 3862 
Q 922 3797 628 3669 
L 628 4550 
Q 984 4650 1334 4700 
Q 1684 4750 2022 4750 
Q 2931 4750 3382 4451 
Q 3834 4153 3834 3553 
Q 3834 3144 3618 2883 
Q 3403 2622 2981 2516 
z
" transform="scale(0.015625)"/>
      <path id="DejaVuSans-Bold-30" d="M 2944 2338 
Q 2944 3213 2780 3570 
Q 2616 3928 2228 3928 
Q 1841 3928 1675 3570 
Q 1509 3213 1509 2338 
Q 1509 1453 1675 1090 
Q 1841 728 2228 728 
Q 2613 728 2778 1090 
Q 2944 1453 2944 2338 
z
M 4147 2328 
Q 4147 1169 3647 539 
Q 3147 -91 2228 -91 
Q 1306 -91 806 539 
Q 306 1169 306 2328 
Q 306 3491 806 4120 
Q 1306 4750 2228 4750 
Q 3147 4750 3647 4120 
Q 4147 3491 4147 2328 
z
" transform="scale(0.015625)"/>
      <path id="DejaVuSans-Bold-29" d="M 513 -844 
Q 913 -100 1113 609 
Q 1313 1319 1313 2009 
Q 1313 2700 1113 3408 
Q 913 4116 513 4856 
L 1441 4856 
Q 1916 4091 2145 3389 
Q 2375 2688 2375 2003 
Q 2375 1319 2147 623 
Q 1919 -72 1441 -844 
L 513 -844 
z
" transform="scale(0.015625)"/>
     </defs>
     <use xlink:href="#DejaVuSans-Bold-20"/>
     <use xlink:href="#DejaVuSans-Bold-6050" transform="translate(34.814453 0)"/>
     <use xlink:href="#DejaVuSans-Bold-614c" transform="translate(94.824219 0)"/>
     <use xlink:href="#DejaVuSans-Bold-81e8" transform="translate(154.833984 0)"/>
     <use xlink:href="#DejaVuSans-Bold-754c" transform="translate(214.84375 0)"/>
     <use xlink:href="#DejaVuSans-Bold-9ede" transform="translate(274.853516 0)"/>
     <use xlink:href="#DejaVuSans-Bold-20" transform="translate(334.863281 0)"/>
     <use xlink:href="#DejaVuSans-Bold-28" transform="translate(369.677734 0)"/>
     <use xlink:href="#DejaVuSans-Bold-33" transform="translate(415.380859 0)"/>
     <use xlink:href="#DejaVuSans-Bold-30" transform="translate(484.960938 0)"/>
     <use xlink:href="#DejaVuSans-Bold-29" transform="translate(554.541016 0)"/>
    </g>
   </g>
   <g id="text_19">
    <!-- 全球 VIX 指數趨勢 (最近 2 年) -->
    <g transform="translate(490.383438 22.396875) scale(0.2 -0.2)">
     <defs>
      <path id="DejaVuSans-5168" d="M 319 -1131 
L 319 4513 
L 3519 4513 
L 3519 -1131 
L 319 -1131 
z
M 678 -775 
L 3163 -775 
L 3163 4153 
L 678 4153 
L 678 -775 
z
" transform="scale(0.015625)"/>
      <path id="DejaVuSans-7403" d="M 319 -1131 
L 319 4513 
L 3519 4513 
L 3519 -1131 
L 319 -1131 
z
M 678 -775 
L 3163 -775 
L 3163 4153 
L 678 4153 
L 678 -775 
z
" transform="scale(0.015625)"/>
      <path id="DejaVuSans-8da8" d="M 319 -1131 
L 319 4513 
L 3519 4513 
L 3519 -1131 
L 319 -1131 
z
M 678 -775 
L 3163 -775 
L 3163 4153 
L 678 4153 
L 678 -775 
z
" transform="scale(0.015625)"/>
      <path id="DejaVuSans-52e2" d="M 319 -1131 
L 319 4513 
L 3519 4513 
L 3519 -1131 
L 319 -1131 
z
M 678 -775 
L 3163 -775 
L 3163 4153 
L 678 4153 
L 678 -775 
z
" transform="scale(0.015625)"/>
      <path id="DejaVuSans-28" d="M 1984 4856 
Q 1566 4138 1362 3434 
Q 1159 2731 1159 2009 
Q 1159 1288 1364 580 
Q 1569 -128 1984 -844 
L 1484 -844 
Q 1016 -109 783 600 
Q 550 1309 550 2009 
Q 550 2706 781 3412 
Q 1013 4119 1484 4856 
L 1984 4856 
z
" transform="scale(0.015625)"/>
      <path id="DejaVuSans-6700" d="M 319 -1131 
L 319 4513 
L 3519 4513 
L 3519 -1131 
L 319 -1131 
z
M 678 -775 
L 3163 -775 
L 3163 4153 
L 678 4153 
L 678 -775 
z
" transform="scale(0.015625)"/>
      <path id="DejaVuSans-8fd1" d="M 319 -1131 
L 319 4513 
L 3519 4513 
L 3519 -1131 
L 319 -1131 
z
M 678 -775 
L 3163 -775 
L 3163 4153 
L 678 4153 
L 678 -775 
z
" transform="scale(0.015625)"/>
      <path id="DejaVuSans-5e74" d="M 319 -1131 
L 319 4513 
L 3519 4513 
L 3519 -1131 
L 319 -1131 
z
M 678 -775 
L 3163 -775 
L 3163 4153 
L 678 4153 
L 678 -775 
z
" transform="scale(0.015625)"/>
      <path id="DejaVuSans-29" d="M 513 4856 
L 1013 4856 
Q 1481 4119 1714 3412 
Q 1947 2706 1947 2009 
Q 1947 1309 1714 600 
Q 1481 -109 1013 -844 
L 513 -844 
Q 928 -128 1133 580 
Q 1338 1288 1338 2009 
Q 1338 2731 1133 3434 
Q 928 4138 513 4856 
z
" transform="scale(0.015625)"/>
     </defs>
     <use xlink:href="#DejaVuSans-5168"/>
     <use xlink:href="#DejaVuSans-7403" transform="translate(60.009766 0)"/>
     <use xlink:href="#DejaVuSans-20" transform="translate(120.019531 0)"/>
     <use xlink:href="#DejaVuSans-56" transform="translate(151.806641 0)"/>
     <use xlink:href="#DejaVuSans-49" transform="translate(220.214844 0)"/>
     <use xlink:href="#DejaVuSans-58" transform="translate(249.707031 0)"/>
     <use xlink:href="#DejaVuSans-20" transform="translate(318.212891 0)"/>
     <use xlink:href="#DejaVuSans-6307" transform="translate(350 0)"/>
     <use xlink:href="#DejaVuSans-6578" transform="translate(410.009766 0)"/>
     <use xlink:href="#DejaVuSans-8da8" transform="translate(470.019531 0)"/>
     <use xlink:href="#DejaVuSans-52e2" transform="translate(530.029297 0)"/>
     <use xlink:href="#DejaVuSans-20" transform="translate(590.039062 0)"/>
     <use xlink:href="#DejaVuSans-28" transform="translate(621.826172 0)"/>
     <use xlink:href="#DejaVuSans-6700" transform="translate(660.839844 0)"/>
     <use xlink:href="#DejaVuSans-8fd1" transform="translate(720.849609 0)"/>
     <use xlink:href="#DejaVuSans-20" transform="translate(780.859375 0)"/>
     <use xlink:href="#DejaVuSans-32" transform="translate(812.646484 0)"/>
     <use xlink:href="#DejaVuSans-20" transform="translate(876.269531 0)"/>
     <use xlink:href="#DejaVuSans-5e74" transform="translate(908.056641 0)"/>
     <use xlink:href="#DejaVuSans-29" transform="translate(968.066406 0)"/>
    </g>
   </g>
   <g id="legend_1">
    <g id="patch_12">
     <path d="M 52.174375 120.780625 
L 317.265781 120.780625 
Q 319.465781 120.780625 319.465781 118.580625 
L 319.465781 55.096875 
Q 319.465781 52.896875 317.265781 52.896875 
L 52.174375 52.896875 
Q 49.974375 52.896875 49.974375 55.096875 
L 49.974375 118.580625 
Q 49.974375 120.780625 52.174375 120.780625 
z
" style="fill: #ffffff; opacity: 0.9; stroke: #cccccc; stroke-linejoin: miter"/>
    </g>
    <g id="patch_13">
     <path d="M 54.374375 65.655156 
L 76.374375 65.655156 
L 76.374375 57.955156 
L 54.374375 57.955156 
z
" style="fill: #66a36e; opacity: 0.15"/>
    </g>
    <g id="text_20">
     <!-- 0-15 平穩 -->
     <g transform="translate(85.174375 65.655156) scale(0.11 -0.11)">
      <defs>
       <path id="DejaVuSans-5e73" d="M 319 -1131 
L 319 4513 
L 3519 4513 
L 3519 -1131 
L 319 -1131 
z
M 678 -775 
L 3163 -775 
L 3163 4153 
L 678 4153 
L 678 -775 
z
" transform="scale(0.015625)"/>
       <path id="DejaVuSans-7a69" d="M 319 -1131 
L 319 4513 
L 3519 4513 
L 3519 -1131 
L 319 -1131 
z
M 678 -775 
L 3163 -775 
L 3163 4153 
L 678 4153 
L 678 -775 
z
" transform="scale(0.015625)"/>
      </defs>
      <use xlink:href="#DejaVuSans-30"/>
      <use xlink:href="#DejaVuSans-2d" transform="translate(63.623047 0)"/>
      <use xlink:href="#DejaVuSans-31" transform="translate(99.707031 0)"/>
      <use xlink:href="#DejaVuSans-35" transform="translate(163.330078 0)"/>
      <use xlink:href="#DejaVuSans-20" transform="translate(226.953125 0)"/>
      <use xlink:href="#DejaVuSans-5e73" transform="translate(258.740234 0)"/>
      <use xlink:href="#DejaVuSans-7a69" transform="translate(318.75 0)"/>
     </g>
    </g>
    <g id="patch_14">
     <path d="M 54.374375 81.801094 
L 76.374375 81.801094 
L 76.374375 74.101094 
L 54.374375 74.101094 
z
" style="fill: #abd398; opacity: 0.2"/>
    </g>
    <g id="text_21">
     <!-- 15-20 溫和波動 -->
     <g transform="translate(85.174375 81.801094) scale(0.11 -0.11)">
      <defs>
       <path id="DejaVuSans-6eab" d="M 319 -1131 
L 319 4513 
L 3519 4513 
L 3519 -1131 
L 319 -1131 
z
M 678 -775 
L 3163 -775 
L 3163 4153 
L 678 4153 
L 678 -775 
z
" transform="scale(0.015625)"/>
       <path id="DejaVuSans-548c" d="M 319 -1131 
L 319 4513 
L 3519 4513 
L 3519 -1131 
L 319 -1131 
z
M 678 -775 
L 3163 -775 
L 3163 4153 
L 678 4153 
L 678 -775 
z
" transform="scale(0.015625)"/>
       <path id="DejaVuSans-6ce2" d="M 319 -1131 
L 319 4513 
L 3519 4513 
L 3519 -1131 
L 319 -1131 
z
M 678 -775 
L 3163 -775 
L 3163 4153 
L 678 4153 
L 678 -775 
z
" transform="scale(0.015625)"/>
       <path id="DejaVuSans-52d5" d="M 319 -1131 
L 319 4513 
L 3519 4513 
L 3519 -1131 
L 319 -1131 
z
M 678 -775 
L 3163 -775 
L 3163 4153 
L 678 4153 
L 678 -775 
z
" transform="scale(0.015625)"/>
      </defs>
      <use xlink:href="#DejaVuSans-31"/>
      <use xlink:href="#DejaVuSans-35" transform="translate(63.623047 0)"/>
      <use xlink:href="#DejaVuSans-2d" transform="translate(127.246094 0)"/>
      <use xlink:href="#DejaVuSans-32" transform="translate(163.330078 0)"/>
      <use xlink:href="#DejaVuSans-30" transform="translate(226.953125 0)"/>
      <use xlink:href="#DejaVuSans-20" transform="translate(290.576172 0)"/>
      <use xlink:href="#DejaVuSans-6eab" transform="translate(322.363281 0)"/>
      <use xlink:href="#DejaVuSans-548c" transform="translate(382.373047 0)"/>
      <use xlink:href="#DejaVuSans-6ce2" transform="translate(442.382812 0)"/>
      <use xlink:href="#DejaVuSans-52d5" transform="translate(502.392578 0)"/>
     </g>
    </g>
    <g id="patch_15">
     <path d="M 54.374375 97.947031 
L 76.374375 97.947031 
L 76.374375 90.247031 
L 54.374375 90.247031 
z
" style="fill: #f9e79f; opacity: 0.25"/>
    </g>
    <g id="text_22">
     <!-- 20-25 市場關注 -->
     <g transform="translate(85.174375 97.947031) scale(0.11 -0.11)">
      <defs>
       <path id="DejaVuSans-5e02" d="M 319 -1131 
L 319 4513 
L 3519 4513 
L 3519 -1131 
L 319 -1131 
z
M 678 -775 
L 3163 -775 
L 3163 4153 
L 678 4153 
L 678 -775 
z
" transform="scale(0.015625)"/>
       <path id="DejaVuSans-5834" d="M 319 -1131 
L 319 4513 
L 3519 4513 
L 3519 -1131 
L 319 -1131 
z
M 678 -775 
L 3163 -775 
L 3163 4153 
L 678 4153 
L 678 -775 
z
" transform="scale(0.015625)"/>
       <path id="DejaVuSans-95dc" d="M 319 -1131 
L 319 4513 
L 3519 4513 
L 3519 -1131 
L 319 -1131 
z
M 678 -775 
L 3163 -775 
L 3163 4153 
L 678 4153 
L 678 -775 
z
" transform="scale(0.015625)"/>
       <path id="DejaVuSans-6ce8" d="M 319 -1131 
L 319 4513 
L 3519 4513 
L 3519 -1131 
L 319 -1131 
z
M 678 -775 
L 3163 -775 
L 3163 4153 
L 678 4153 
L 678 -775 
z
" transform="scale(0.015625)"/>
      </defs>
      <use xlink:href="#DejaVuSans-32"/>
      <use xlink:href="#DejaVuSans-30" transform="translate(63.623047 0)"/>
      <use xlink:href="#DejaVuSans-2d" transform="translate(127.246094 0)"/>
      <use xlink:href="#DejaVuSans-32" transform="translate(163.330078 0)"/>
      <use xlink:href="#DejaVuSans-35" transform="translate(226.953125 0)"/>
      <use xlink:href="#DejaVuSans-20" transform="translate(290.576172 0)"/>
      <use xlink:href="#DejaVuSans-5e02" transform="translate(322.363281 0)"/>
      <use xlink:href="#DejaVuSans-5834" transform="translate(382.373047 0)"/>
      <use xlink:href="#DejaVuSans-95dc" transform="translate(442.382812 0)"/>
      <use xlink:href="#DejaVuSans-6ce8" transform="translate(502.392578 0)"/>
     </g>
    </g>
    <g id="patch_16">
     <path d="M 54.374375 114.092969 
L 76.374375 114.092969 
L 76.374375 106.392969 
L 54.374375 106.392969 
z
" style="fill: #f5b074; opacity: 0.25"/>
    </g>
    <g id="text_23">
     <!-- 25-30 市場動盪 -->
     <g transform="translate(85.174375 114.092969) scale(0.11 -0.11)">
      <defs>
       <path id="DejaVuSans-76ea" d="M 319 -1131 
L 319 4513 
L 3519 4513 
L 3519 -1131 
L 319 -1131 
z
M 678 -775 
L 3163 -775 
L 3163 4153 
L 678 4153 
L 678 -775 
z
" transform="scale(0.015625)"/>
      </defs>
      <use xlink:href="#DejaVuSans-32"/>
      <use xlink:href="#DejaVuSans-35" transform="translate(63.623047 0)"/>
      <use xlink:href="#DejaVuSans-2d" transform="translate(127.246094 0)"/>
      <use xlink:href="#DejaVuSans-33" transform="translate(163.330078 0)"/>
      <use xlink:href="#DejaVuSans-30" transform="translate(226.953125 0)"/>
      <use xlink:href="#DejaVuSans-20" transform="translate(290.576172 0)"/>
      <use xlink:href="#DejaVuSans-5e02" transform="translate(322.363281 0)"/>
      <use xlink:href="#DejaVuSans-5834" transform="translate(382.373047 0)"/>
      <use xlink:href="#DejaVuSans-52d5" transform="translate(442.382812 0)"/>
      <use xlink:href="#DejaVuSans-76ea" transform="translate(502.392578 0)"/>
     </g>
    </g>
    <g id="patch_17">
     <path d="M 169.040781 65.655156 
L 191.040781 65.655156 
L 191.040781 57.955156 
L 169.040781 57.955156 
z
" style="fill: #ec7063; opacity: 0.2"/>
    </g>
    <g id="text_24">
     <!-- &gt;30 加重動盪 -->
     <g transform="translate(199.840781 65.655156) scale(0.11 -0.11)">
      <defs>
       <path id="DejaVuSans-3e" d="M 678 3150 
L 678 3719 
L 4684 2266 
L 4684 1747 
L 678 294 
L 678 863 
L 3897 2003 
L 678 3150 
z
" transform="scale(0.015625)"/>
       <path id="DejaVuSans-52a0" d="M 319 -1131 
L 319 4513 
L 3519 4513 
L 3519 -1131 
L 319 -1131 
z
M 678 -775 
L 3163 -775 
L 3163 4153 
L 678 4153 
L 678 -775 
z
" transform="scale(0.015625)"/>
       <path id="DejaVuSans-91cd" d="M 319 -1131 
L 319 4513 
L 3519 4513 
L 3519 -1131 
L 319 -1131 
z
M 678 -775 
L 3163 -775 
L 3163 4153 
L 678 4153 
L 678 -775 
z
" transform="scale(0.015625)"/>
      </defs>
      <use xlink:href="#DejaVuSans-3e"/>
      <use xlink:href="#DejaVuSans-33" transform="translate(83.789062 0)"/>
      <use xlink:href="#DejaVuSans-30" transform="translate(147.412109 0)"/>
      <use xlink:href="#DejaVuSans-20" transform="translate(211.035156 0)"/>
      <use xlink:href="#DejaVuSans-52a0" transform="translate(242.822266 0)"/>
      <use xlink:href="#DejaVuSans-91cd" transform="translate(302.832031 0)"/>
      <use xlink:href="#DejaVuSans-52d5" transform="translate(362.841797 0)"/>
      <use xlink:href="#DejaVuSans-76ea" transform="translate(422.851562 0)"/>
     </g>
    </g>
    <g id="line2d_35">
     <path d="M 169.040781 77.951094 
L 180.040781 77.951094 
L 191.040781 77.951094 
" style="fill: none; stroke-dasharray: 2,3.3; stroke-dashoffset: 0; stroke: #808080; stroke-width: 2"/>
    </g>
    <g id="text_25">
     <!-- 最新數據 -->
     <g transform="translate(199.840781 81.801094) scale(0.11 -0.11)">
      <defs>
       <path id="DejaVuSans-65b0" d="M 319 -1131 
L 319 4513 
L 3519 4513 
L 3519 -1131 
L 319 -1131 
z
M 678 -775 
L 3163 -775 
L 3163 4153 
L 678 4153 
L 678 -775 
z
" transform="scale(0.015625)"/>
       <path id="DejaVuSans-64da" d="M 319 -1131 
L 319 4513 
L 3519 4513 
L 3519 -1131 
L 319 -1131 
z
M 678 -775 
L 3163 -775 
L 3163 4153 
L 678 4153 
L 678 -775 
z
" transform="scale(0.015625)"/>
      </defs>
      <use xlink:href="#DejaVuSans-6700"/>
      <use xlink:href="#DejaVuSans-65b0" transform="translate(60.009766 0)"/>
      <use xlink:href="#DejaVuSans-6578" transform="translate(120.019531 0)"/>
      <use xlink:href="#DejaVuSans-64da" transform="translate(180.029297 0)"/>
     </g>
    </g>
    <g id="line2d_36">
     <path d="M 169.040781 94.097031 
L 180.040781 94.097031 
L 191.040781 94.097031 
" style="fill: none; stroke: #0000ff; stroke-width: 2.5; stroke-linecap: square"/>
    </g>
    <g id="text_26">
     <!-- US VIX (^VIX) -->
     <g transform="translate(199.840781 97.947031) scale(0.11 -0.11)">
      <defs>
       <path id="DejaVuSans-55" d="M 556 4666 
L 1191 4666 
L 1191 1831 
Q 1191 1081 1462 751 
Q 1734 422 2344 422 
Q 2950 422 3222 751 
Q 3494 1081 3494 1831 
L 3494 4666 
L 4128 4666 
L 4128 1753 
Q 4128 841 3676 375 
Q 3225 -91 2344 -91 
Q 1459 -91 1007 375 
Q 556 841 556 1753 
L 556 4666 
z
" transform="scale(0.015625)"/>
       <path id="DejaVuSans-53" d="M 3425 4513 
L 3425 3897 
Q 3066 4069 2747 4153 
Q 2428 4238 2131 4238 
Q 1616 4238 1336 4038 
Q 1056 3838 1056 3469 
Q 1056 3159 1242 3001 
Q 1428 2844 1947 2747 
L 2328 2669 
Q 3034 2534 3370 2195 
Q 3706 1856 3706 1288 
Q 3706 609 3251 259 
Q 2797 -91 1919 -91 
Q 1588 -91 1214 -16 
Q 841 59 441 206 
L 441 856 
Q 825 641 1194 531 
Q 1563 422 1919 422 
Q 2459 422 2753 634 
Q 3047 847 3047 1241 
Q 3047 1584 2836 1778 
Q 2625 1972 2144 2069 
L 1759 2144 
Q 1053 2284 737 2584 
Q 422 2884 422 3419 
Q 422 4038 858 4394 
Q 1294 4750 2059 4750 
Q 2388 4750 2728 4690 
Q 3069 4631 3425 4513 
z
" transform="scale(0.015625)"/>
       <path id="DejaVuSans-5e" d="M 2988 4666 
L 4684 2925 
L 4056 2925 
L 2681 4159 
L 1306 2925 
L 678 2925 
L 2375 4666 
L 2988 4666 
z
" transform="scale(0.015625)"/>
      </defs>
      <use xlink:href="#DejaVuSans-55"/>
      <use xlink:href="#DejaVuSans-53" transform="translate(73.193359 0)"/>
      <use xlink:href="#DejaVuSans-20" transform="translate(136.669922 0)"/>
      <use xlink:href="#DejaVuSans-56" transform="translate(168.457031 0)"/>
      <use xlink:href="#DejaVuSans-49" transform="translate(236.865234 0)"/>
      <use xlink:href="#DejaVuSans-58" transform="translate(266.357422 0)"/>
      <use xlink:href="#DejaVuSans-20" transform="translate(334.863281 0)"/>
      <use xlink:href="#DejaVuSans-28" transform="translate(366.650391 0)"/>
      <use xlink:href="#DejaVuSans-5e" transform="translate(405.664062 0)"/>
      <use xlink:href="#DejaVuSans-56" transform="translate(489.453125 0)"/>
      <use xlink:href="#DejaVuSans-49" transform="translate(557.861328 0)"/>
      <use xlink:href="#DejaVuSans-58" transform="translate(587.353516 0)"/>
      <use xlink:href="#DejaVuSans-29" transform="translate(655.859375 0)"/>
     </g>
    </g>
    <g id="line2d_37">
     <path d="M 169.040781 110.242969 
L 180.040781 110.242969 
L 191.040781 110.242969 
" style="fill: none; stroke: #008000; stroke-width: 2.5; stroke-linecap: square"/>
    </g>
    <g id="text_27">
     <!-- Taiwan VIX (VIXTWN) -->
     <g transform="translate(199.840781 114.092969) scale(0.11 -0.11)">
      <defs>
       <path id="DejaVuSans-54" d="M -19 4666 
L 3928 4666 
L 3928 4134 
L 2272 4134 
L 2272 0 
L 1638 0 
L 1638 4134 
L -19 4134 
L -19 4666 
z
" transform="scale(0.015625)"/>
       <path id="DejaVuSans-61" d="M 2194 1759 
Q 1497 1759 1228 1600 
Q 959 1441 959 1056 
Q 959 750 1161 570 
Q 1363 391 1709 391 
Q 2188 391 2477 730 
Q 2766 1069 2766 1631 
L 2766 1759 
L 2194 1759 
z
M 3341 1997 
L 3341 0 
L 2766 0 
L 2766 531 
Q 2569 213 2275 61 
Q 1981 -91 1556 -91 
Q 1019 -91 701 211 
Q 384 513 384 1019 
Q 384 1609 779 1909 
Q 1175 2209 1959 2209 
L 2766 2209 
L 2766 2266 
Q 2766 2663 2505 2880 
Q 2244 3097 1772 3097 
Q 1472 3097 1187 3025 
Q 903 2953 641 2809 
L 641 3341 
Q 956 3463 1253 3523 
Q 1550 3584 1831 3584 
Q 2591 3584 2966 3190 
Q 3341 2797 3341 1997 
z
" transform="scale(0.015625)"/>
       <path id="DejaVuSans-69" d="M 603 3500 
L 1178 3500 
L 1178 0 
L 603 0 
L 603 3500 
z
M 603 4863 
L 1178 4863 
L 1178 4134 
L 603 4134 
L 603 4863 
z
" transform="scale(0.015625)"/>
       <path id="DejaVuSans-77" d="M 269 3500 
L 844 3500 
L 1563 769 
L 2278 3500 
L 2956 3500 
L 3675 769 
L 4391 3500 
L 4966 3500 
L 4050 0 
L 3372 0 
L 2619 2869 
L 1863 0 
L 1184 0 
L 269 3500 
z
" transform="scale(0.015625)"/>
       <path id="DejaVuSans-6e" d="M 3513 2113 
L 3513 0 
L 2938 0 
L 2938 2094 
Q 2938 2591 2744 2837 
Q 2550 3084 2163 3084 
Q 1697 3084 1428 2787 
Q 1159 2491 1159 1978 
L 1159 0 
L 581 0 
L 581 3500 
L 1159 3500 
L 1159 2956 
Q 1366 3272 1645 3428 
Q 1925 3584 2291 3584 
Q 2894 3584 3203 3211 
Q 3513 2838 3513 2113 
z
" transform="scale(0.015625)"/>
       <path id="DejaVuSans-57" d="M 213 4666 
L 850 4666 
L 1831 722 
L 2809 4666 
L 3519 4666 
L 4500 722 
L 5478 4666 
L 6119 4666 
L 4947 0 
L 4153 0 
L 3169 4050 
L 2175 0 
L 1381 0 
L 213 4666 
z
" transform="scale(0.015625)"/>
       <path id="DejaVuSans-4e" d="M 628 4666 
L 1478 4666 
L 3547 763 
L 3547 4666 
L 4159 4666 
L 4159 0 
L 3309 0 
L 1241 3903 
L 1241 0 
L 628 0 
L 628 4666 
z
" transform="scale(0.015625)"/>
      </defs>
      <use xlink:href="#DejaVuSans-54"/>
      <use xlink:href="#DejaVuSans-61" transform="translate(44.583984 0)"/>
      <use xlink:href="#DejaVuSans-69" transform="translate(105.863281 0)"/>
      <use xlink:href="#DejaVuSans-77" transform="translate(133.646484 0)"/>
      <use xlink:href="#DejaVuSans-61" transform="translate(215.433594 0)"/>
      <use xlink:href="#DejaVuSans-6e" transform="translate(276.712891 0)"/>
      <use xlink:href="#DejaVuSans-20" transform="translate(340.091797 0)"/>
      <use xlink:href="#DejaVuSans-56" transform="translate(371.878906 0)"/>
      <use xlink:href="#DejaVuSans-49" transform="translate(440.287109 0)"/>
      <use xlink:href="#DejaVuSans-58" transform="translate(469.779297 0)"/>
      <use xlink:href="#DejaVuSans-20" transform="translate(538.285156 0)"/>
      <use xlink:href="#DejaVuSans-28" transform="translate(570.072266 0)"/>
      <use xlink:href="#DejaVuSans-56" transform="translate(609.085938 0)"/>
      <use xlink:href="#DejaVuSans-49" transform="translate(677.494141 0)"/>
      <use xlink:href="#DejaVuSans-58" transform="translate(706.986328 0)"/>
      <use xlink:href="#DejaVuSans-54" transform="translate(773.742188 0)"/>
      <use xlink:href="#DejaVuSans-57" transform="translate(834.826172 0)"/>
      <use xlink:href="#DejaVuSans-4e" transform="translate(933.703125 0)"/>
      <use xlink:href="#DejaVuSans-29" transform="translate(1008.507812 0)"/>
     </g>
    </g>
   </g>
  </g>
 </g>
 <defs>
  <clipPath id="p146e43df4f">
   <rect x="44.474375" y="47.396875" width="1093.24" height="479.52"/>
  </clipPath>
 </defs>
</svg>
