<?xml version="1.0" encoding="utf-8" standalone="no"?>
<!DOCTYPE svg PUBLIC "-//W3C//DTD SVG 1.1//EN"
  "http://www.w3.org/Graphics/SVG/1.1/DTD/svg11.dtd">
<svg xmlns:xlink="http://www.w3.org/1999/xlink" width="1141.377794pt" height="569.125312pt" viewBox="0 0 1141.377794 569.125312" xmlns="http://www.w3.org/2000/svg" version="1.1">
 <metadata>
  <rdf:RDF xmlns:dc="http://purl.org/dc/elements/1.1/" xmlns:cc="http://creativecommons.org/ns#" xmlns:rdf="http://www.w3.org/1999/02/22-rdf-syntax-ns#">
   <cc:Work>
    <dc:type rdf:resource="http://purl.org/dc/dcmitype/StillImage"/>
    <dc:date>2025-12-10T23:02:35.688916</dc:date>
    <dc:format>image/svg+xml</dc:format>
    <dc:creator>
     <cc:Agent>
      <dc:title>Matplotlib v3.10.1, https://matplotlib.org/</dc:title>
     </cc:Agent>
    </dc:creator>
   </cc:Work>
  </rdf:RDF>
 </metadata>
 <defs>
  <style type="text/css">*{stroke-linejoin: round; stroke-linecap: butt}</style>
 </defs>
 <g id="figure_1">
  <g id="patch_1">
   <path d="M 0 569.125312 
L 1141.377794 569.125312 
L 1141.377794 0 
L 0 0 
z
" style="fill: #ffffff"/>
  </g>
  <g id="axes_1">
   <g id="patch_2">
    <path d="M 42.36625 527.87 
L 1134.177794 527.87 
L 1134.177794 39.99 
L 42.36625 39.99 
z
" style="fill: #ffffff"/>
   </g>
   <g id="patch_3">
    <path d="M 42.36625 527.87 
L 1134.177794 527.87 
L 1134.177794 400.736255 
L 42.36625 400.736255 
z
" clip-path="url(#pe6a83bb4fb)" style="fill: #008000; opacity: 0.1"/>
   </g>
   <g id="patch_4">
    <path d="M 42.36625 400.736255 
L 1134.177794 400.736255 
L 1134.177794 358.35834 
L 42.36625 358.35834 
z
" clip-path="url(#pe6a83bb4fb)" style="fill: #ffff00; opacity: 0.15"/>
   </g>
   <g id="patch_5">
    <path d="M 42.36625 358.35834 
L 1134.177794 358.35834 
L 1134.177794 273.602511 
L 42.36625 273.602511 
z
" clip-path="url(#pe6a83bb4fb)" style="fill: #ffa500; opacity: 0.15"/>
   </g>
   <g id="patch_6">
    <path d="M 42.36625 273.602511 
L 1134.177794 273.602511 
L 1134.177794 -319.688298 
L 42.36625 -319.688298 
z
" clip-path="url(#pe6a83bb4fb)" style="fill: #ff0000; opacity: 0.1"/>
   </g>
   <g id="matplotlib.axis_1">
    <g id="xtick_1">
     <g id="line2d_1">
      <path d="M 120.547027 527.87 
L 120.547027 39.99 
" clip-path="url(#pe6a83bb4fb)" style="fill: none; stroke-dasharray: 1.85,0.8; stroke-dashoffset: 0; stroke: #b0b0b0; stroke-width: 0.5"/>
     </g>
     <g id="line2d_2">
      <defs>
       <path id="m9361b23f04" d="M 0 0 
L 0 3.5 
" style="stroke: #000000; stroke-width: 0.8"/>
      </defs>
      <g>
       <use xlink:href="#m9361b23f04" x="120.547027" y="527.87" style="stroke: #000000; stroke-width: 0.8"/>
      </g>
     </g>
     <g id="text_1">
      <!-- 2024-01 -->
      <g transform="translate(101.002496 542.86375) scale(0.1 -0.1)">
       <defs>
        <path id="MicrosoftJhengHeiRegular-32" d="M 3219 0 
L 322 0 
L 322 472 
L 1731 1891 
Q 2431 2597 2592 2914 
Q 2753 3231 2753 3588 
Q 2753 4016 2511 4247 
Q 2269 4478 1816 4478 
Q 1169 4478 572 3919 
L 572 4475 
Q 1131 4922 1884 4922 
Q 2509 4922 2886 4575 
Q 3263 4228 3263 3634 
Q 3263 3178 3014 2736 
Q 2766 2294 2075 1603 
L 947 488 
L 947 475 
L 3219 475 
L 3219 0 
z
" transform="scale(0.015625)"/>
        <path id="MicrosoftJhengHeiRegular-30" d="M 294 2322 
Q 294 3603 711 4262 
Q 1128 4922 1916 4922 
Q 3425 4922 3425 2441 
Q 3425 1234 3011 576 
Q 2597 -81 1806 -81 
Q 1069 -81 681 550 
Q 294 1181 294 2322 
z
M 825 2350 
Q 825 363 1863 363 
Q 2891 363 2891 2378 
Q 2891 4475 1888 4475 
Q 825 4475 825 2350 
z
" transform="scale(0.015625)"/>
        <path id="MicrosoftJhengHeiRegular-34" d="M 3472 1300 
L 2847 1300 
L 2847 0 
L 2328 0 
L 2328 1300 
L 41 1300 
L 41 1644 
L 2203 4841 
L 2847 4841 
L 2847 1731 
L 3472 1731 
L 3472 1300 
z
M 2328 1731 
L 2328 3863 
Q 2328 4084 2341 4366 
L 2328 4366 
Q 2303 4297 2144 3994 
L 622 1731 
L 2328 1731 
z
" transform="scale(0.015625)"/>
        <path id="MicrosoftJhengHeiRegular-2d" d="M 2328 1722 
L 488 1722 
L 488 2138 
L 2328 2138 
L 2328 1722 
z
" transform="scale(0.015625)"/>
        <path id="MicrosoftJhengHeiRegular-31" d="M 3313 0 
L 594 0 
L 594 466 
L 1694 466 
L 1694 4272 
L 566 3931 
L 566 4434 
L 2216 4950 
L 2216 466 
L 3313 466 
L 3313 0 
z
" transform="scale(0.015625)"/>
       </defs>
       <use xlink:href="#MicrosoftJhengHeiRegular-32"/>
       <use xlink:href="#MicrosoftJhengHeiRegular-30" transform="translate(57.958984 0)"/>
       <use xlink:href="#MicrosoftJhengHeiRegular-32" transform="translate(115.917969 0)"/>
       <use xlink:href="#MicrosoftJhengHeiRegular-34" transform="translate(173.876953 0)"/>
       <use xlink:href="#MicrosoftJhengHeiRegular-2d" transform="translate(231.835938 0)"/>
       <use xlink:href="#MicrosoftJhengHeiRegular-30" transform="translate(275 0)"/>
       <use xlink:href="#MicrosoftJhengHeiRegular-31" transform="translate(332.958984 0)"/>
      </g>
     </g>
    </g>
    <g id="xtick_2">
     <g id="line2d_3">
      <path d="M 244.276604 527.87 
L 244.276604 39.99 
" clip-path="url(#pe6a83bb4fb)" style="fill: none; stroke-dasharray: 1.85,0.8; stroke-dashoffset: 0; stroke: #b0b0b0; stroke-width: 0.5"/>
     </g>
     <g id="line2d_4">
      <g>
       <use xlink:href="#m9361b23f04" x="244.276604" y="527.87" style="stroke: #000000; stroke-width: 0.8"/>
      </g>
     </g>
     <g id="text_2">
      <!-- 2024-04 -->
      <g transform="translate(224.732073 542.86375) scale(0.1 -0.1)">
       <use xlink:href="#MicrosoftJhengHeiRegular-32"/>
       <use xlink:href="#MicrosoftJhengHeiRegular-30" transform="translate(57.958984 0)"/>
       <use xlink:href="#MicrosoftJhengHeiRegular-32" transform="translate(115.917969 0)"/>
       <use xlink:href="#MicrosoftJhengHeiRegular-34" transform="translate(173.876953 0)"/>
       <use xlink:href="#MicrosoftJhengHeiRegular-2d" transform="translate(231.835938 0)"/>
       <use xlink:href="#MicrosoftJhengHeiRegular-30" transform="translate(275 0)"/>
       <use xlink:href="#MicrosoftJhengHeiRegular-34" transform="translate(332.958984 0)"/>
      </g>
     </g>
    </g>
    <g id="xtick_3">
     <g id="line2d_5">
      <path d="M 368.006181 527.87 
L 368.006181 39.99 
" clip-path="url(#pe6a83bb4fb)" style="fill: none; stroke-dasharray: 1.85,0.8; stroke-dashoffset: 0; stroke: #b0b0b0; stroke-width: 0.5"/>
     </g>
     <g id="line2d_6">
      <g>
       <use xlink:href="#m9361b23f04" x="368.006181" y="527.87" style="stroke: #000000; stroke-width: 0.8"/>
      </g>
     </g>
     <g id="text_3">
      <!-- 2024-07 -->
      <g transform="translate(348.46165 542.86375) scale(0.1 -0.1)">
       <defs>
        <path id="MicrosoftJhengHeiRegular-37" d="M 3391 4688 
L 1459 0 
L 922 0 
L 2741 4366 
L 288 4366 
L 288 4841 
L 3391 4841 
L 3391 4688 
z
" transform="scale(0.015625)"/>
       </defs>
       <use xlink:href="#MicrosoftJhengHeiRegular-32"/>
       <use xlink:href="#MicrosoftJhengHeiRegular-30" transform="translate(57.958984 0)"/>
       <use xlink:href="#MicrosoftJhengHeiRegular-32" transform="translate(115.917969 0)"/>
       <use xlink:href="#MicrosoftJhengHeiRegular-34" transform="translate(173.876953 0)"/>
       <use xlink:href="#MicrosoftJhengHeiRegular-2d" transform="translate(231.835938 0)"/>
       <use xlink:href="#MicrosoftJhengHeiRegular-30" transform="translate(275 0)"/>
       <use xlink:href="#MicrosoftJhengHeiRegular-37" transform="translate(332.958984 0)"/>
      </g>
     </g>
    </g>
    <g id="xtick_4">
     <g id="line2d_7">
      <path d="M 493.095424 527.87 
L 493.095424 39.99 
" clip-path="url(#pe6a83bb4fb)" style="fill: none; stroke-dasharray: 1.85,0.8; stroke-dashoffset: 0; stroke: #b0b0b0; stroke-width: 0.5"/>
     </g>
     <g id="line2d_8">
      <g>
       <use xlink:href="#m9361b23f04" x="493.095424" y="527.87" style="stroke: #000000; stroke-width: 0.8"/>
      </g>
     </g>
     <g id="text_4">
      <!-- 2024-10 -->
      <g transform="translate(473.550893 542.86375) scale(0.1 -0.1)">
       <use xlink:href="#MicrosoftJhengHeiRegular-32"/>
       <use xlink:href="#MicrosoftJhengHeiRegular-30" transform="translate(57.958984 0)"/>
       <use xlink:href="#MicrosoftJhengHeiRegular-32" transform="translate(115.917969 0)"/>
       <use xlink:href="#MicrosoftJhengHeiRegular-34" transform="translate(173.876953 0)"/>
       <use xlink:href="#MicrosoftJhengHeiRegular-2d" transform="translate(231.835938 0)"/>
       <use xlink:href="#MicrosoftJhengHeiRegular-31" transform="translate(275 0)"/>
       <use xlink:href="#MicrosoftJhengHeiRegular-30" transform="translate(332.958984 0)"/>
      </g>
     </g>
    </g>
    <g id="xtick_5">
     <g id="line2d_9">
      <path d="M 618.184667 527.87 
L 618.184667 39.99 
" clip-path="url(#pe6a83bb4fb)" style="fill: none; stroke-dasharray: 1.85,0.8; stroke-dashoffset: 0; stroke: #b0b0b0; stroke-width: 0.5"/>
     </g>
     <g id="line2d_10">
      <g>
       <use xlink:href="#m9361b23f04" x="618.184667" y="527.87" style="stroke: #000000; stroke-width: 0.8"/>
      </g>
     </g>
     <g id="text_5">
      <!-- 2025-01 -->
      <g transform="translate(598.640136 542.86375) scale(0.1 -0.1)">
       <defs>
        <path id="MicrosoftJhengHeiRegular-35" d="M 553 684 
Q 1047 363 1559 363 
Q 2072 363 2394 658 
Q 2716 953 2716 1441 
Q 2716 1931 2394 2200 
Q 2072 2469 1466 2469 
Q 1275 2469 706 2431 
L 706 4841 
L 3025 4841 
L 3025 4366 
L 1203 4366 
L 1203 2916 
Q 1475 2931 1616 2931 
Q 2378 2931 2811 2548 
Q 3244 2166 3244 1472 
Q 3244 750 2775 334 
Q 2306 -81 1544 -81 
Q 875 -81 553 119 
L 553 684 
z
" transform="scale(0.015625)"/>
       </defs>
       <use xlink:href="#MicrosoftJhengHeiRegular-32"/>
       <use xlink:href="#MicrosoftJhengHeiRegular-30" transform="translate(57.958984 0)"/>
       <use xlink:href="#MicrosoftJhengHeiRegular-32" transform="translate(115.917969 0)"/>
       <use xlink:href="#MicrosoftJhengHeiRegular-35" transform="translate(173.876953 0)"/>
       <use xlink:href="#MicrosoftJhengHeiRegular-2d" transform="translate(231.835938 0)"/>
       <use xlink:href="#MicrosoftJhengHeiRegular-30" transform="translate(275 0)"/>
       <use xlink:href="#MicrosoftJhengHeiRegular-31" transform="translate(332.958984 0)"/>
      </g>
     </g>
    </g>
    <g id="xtick_6">
     <g id="line2d_11">
      <path d="M 740.554579 527.87 
L 740.554579 39.99 
" clip-path="url(#pe6a83bb4fb)" style="fill: none; stroke-dasharray: 1.85,0.8; stroke-dashoffset: 0; stroke: #b0b0b0; stroke-width: 0.5"/>
     </g>
     <g id="line2d_12">
      <g>
       <use xlink:href="#m9361b23f04" x="740.554579" y="527.87" style="stroke: #000000; stroke-width: 0.8"/>
      </g>
     </g>
     <g id="text_6">
      <!-- 2025-04 -->
      <g transform="translate(721.010047 542.86375) scale(0.1 -0.1)">
       <use xlink:href="#MicrosoftJhengHeiRegular-32"/>
       <use xlink:href="#MicrosoftJhengHeiRegular-30" transform="translate(57.958984 0)"/>
       <use xlink:href="#MicrosoftJhengHeiRegular-32" transform="translate(115.917969 0)"/>
       <use xlink:href="#MicrosoftJhengHeiRegular-35" transform="translate(173.876953 0)"/>
       <use xlink:href="#MicrosoftJhengHeiRegular-2d" transform="translate(231.835938 0)"/>
       <use xlink:href="#MicrosoftJhengHeiRegular-30" transform="translate(275 0)"/>
       <use xlink:href="#MicrosoftJhengHeiRegular-34" transform="translate(332.958984 0)"/>
      </g>
     </g>
    </g>
    <g id="xtick_7">
     <g id="line2d_13">
      <path d="M 864.284156 527.87 
L 864.284156 39.99 
" clip-path="url(#pe6a83bb4fb)" style="fill: none; stroke-dasharray: 1.85,0.8; stroke-dashoffset: 0; stroke: #b0b0b0; stroke-width: 0.5"/>
     </g>
     <g id="line2d_14">
      <g>
       <use xlink:href="#m9361b23f04" x="864.284156" y="527.87" style="stroke: #000000; stroke-width: 0.8"/>
      </g>
     </g>
     <g id="text_7">
      <!-- 2025-07 -->
      <g transform="translate(844.739625 542.86375) scale(0.1 -0.1)">
       <use xlink:href="#MicrosoftJhengHeiRegular-32"/>
       <use xlink:href="#MicrosoftJhengHeiRegular-30" transform="translate(57.958984 0)"/>
       <use xlink:href="#MicrosoftJhengHeiRegular-32" transform="translate(115.917969 0)"/>
       <use xlink:href="#MicrosoftJhengHeiRegular-35" transform="translate(173.876953 0)"/>
       <use xlink:href="#MicrosoftJhengHeiRegular-2d" transform="translate(231.835938 0)"/>
       <use xlink:href="#MicrosoftJhengHeiRegular-30" transform="translate(275 0)"/>
       <use xlink:href="#MicrosoftJhengHeiRegular-37" transform="translate(332.958984 0)"/>
      </g>
     </g>
    </g>
    <g id="xtick_8">
     <g id="line2d_15">
      <path d="M 989.373399 527.87 
L 989.373399 39.99 
" clip-path="url(#pe6a83bb4fb)" style="fill: none; stroke-dasharray: 1.85,0.8; stroke-dashoffset: 0; stroke: #b0b0b0; stroke-width: 0.5"/>
     </g>
     <g id="line2d_16">
      <g>
       <use xlink:href="#m9361b23f04" x="989.373399" y="527.87" style="stroke: #000000; stroke-width: 0.8"/>
      </g>
     </g>
     <g id="text_8">
      <!-- 2025-10 -->
      <g transform="translate(969.828868 542.86375) scale(0.1 -0.1)">
       <use xlink:href="#MicrosoftJhengHeiRegular-32"/>
       <use xlink:href="#MicrosoftJhengHeiRegular-30" transform="translate(57.958984 0)"/>
       <use xlink:href="#MicrosoftJhengHeiRegular-32" transform="translate(115.917969 0)"/>
       <use xlink:href="#MicrosoftJhengHeiRegular-35" transform="translate(173.876953 0)"/>
       <use xlink:href="#MicrosoftJhengHeiRegular-2d" transform="translate(231.835938 0)"/>
       <use xlink:href="#MicrosoftJhengHeiRegular-31" transform="translate(275 0)"/>
       <use xlink:href="#MicrosoftJhengHeiRegular-30" transform="translate(332.958984 0)"/>
      </g>
     </g>
    </g>
    <g id="xtick_9">
     <g id="line2d_17">
      <path d="M 1114.462642 527.87 
L 1114.462642 39.99 
" clip-path="url(#pe6a83bb4fb)" style="fill: none; stroke-dasharray: 1.85,0.8; stroke-dashoffset: 0; stroke: #b0b0b0; stroke-width: 0.5"/>
     </g>
     <g id="line2d_18">
      <g>
       <use xlink:href="#m9361b23f04" x="1114.462642" y="527.87" style="stroke: #000000; stroke-width: 0.8"/>
      </g>
     </g>
     <g id="text_9">
      <!-- 2026-01 -->
      <g transform="translate(1094.918111 542.86375) scale(0.1 -0.1)">
       <defs>
        <path id="MicrosoftJhengHeiRegular-36" d="M 3138 4284 
Q 2756 4475 2347 4475 
Q 1681 4475 1297 3892 
Q 913 3309 916 2328 
L 931 2328 
Q 1266 3022 2041 3022 
Q 2675 3022 3053 2609 
Q 3431 2197 3431 1525 
Q 3431 834 3006 376 
Q 2581 -81 1922 -81 
Q 1166 -81 770 509 
Q 375 1100 375 2125 
Q 375 3353 890 4137 
Q 1406 4922 2338 4922 
Q 2844 4922 3138 4781 
L 3138 4284 
z
M 953 1584 
Q 953 1072 1226 717 
Q 1500 363 1941 363 
Q 2369 363 2631 675 
Q 2894 988 2894 1459 
Q 2894 1988 2637 2281 
Q 2381 2575 1934 2575 
Q 1525 2575 1239 2287 
Q 953 2000 953 1584 
z
" transform="scale(0.015625)"/>
       </defs>
       <use xlink:href="#MicrosoftJhengHeiRegular-32"/>
       <use xlink:href="#MicrosoftJhengHeiRegular-30" transform="translate(57.958984 0)"/>
       <use xlink:href="#MicrosoftJhengHeiRegular-32" transform="translate(115.917969 0)"/>
       <use xlink:href="#MicrosoftJhengHeiRegular-36" transform="translate(173.876953 0)"/>
       <use xlink:href="#MicrosoftJhengHeiRegular-2d" transform="translate(231.835938 0)"/>
       <use xlink:href="#MicrosoftJhengHeiRegular-30" transform="translate(275 0)"/>
       <use xlink:href="#MicrosoftJhengHeiRegular-31" transform="translate(332.958984 0)"/>
      </g>
     </g>
    </g>
    <g id="text_10">
     <!-- Date -->
     <g transform="translate(574.953897 558.942187) scale(0.12 -0.12)">
      <defs>
       <path id="MicrosoftJhengHeiRegular-44" d="M 641 0 
L 641 4841 
L 1953 4841 
Q 4506 4841 4506 2481 
Q 4506 1350 3818 675 
Q 3131 0 1903 0 
L 641 0 
z
M 1172 4353 
L 1172 488 
L 1909 488 
Q 2875 488 3412 1006 
Q 3950 1525 3950 2466 
Q 3950 4353 1941 4353 
L 1172 4353 
z
" transform="scale(0.015625)"/>
       <path id="MicrosoftJhengHeiRegular-61" d="M 647 3209 
Q 1156 3538 1813 3538 
Q 3016 3538 3016 2259 
L 3016 0 
L 2494 0 
L 2494 544 
L 2475 544 
Q 2116 -81 1413 -81 
Q 900 -81 604 192 
Q 309 466 309 916 
Q 309 1875 1447 2038 
L 2491 2188 
Q 2491 3088 1772 3088 
Q 1144 3088 647 2659 
L 647 3209 
z
M 1644 1641 
Q 1200 1581 1026 1426 
Q 853 1272 853 950 
Q 853 691 1039 528 
Q 1225 366 1525 366 
Q 1941 366 2216 662 
Q 2491 959 2491 1403 
L 2491 1753 
L 1644 1641 
z
" transform="scale(0.015625)"/>
       <path id="MicrosoftJhengHeiRegular-74" d="M 2138 34 
Q 1947 -75 1634 -75 
Q 744 -75 744 928 
L 744 3006 
L 144 3006 
L 144 3456 
L 744 3456 
L 744 4306 
L 1263 4475 
L 1263 3456 
L 2138 3456 
L 2138 3006 
L 1263 3006 
L 1263 1022 
Q 1263 669 1381 519 
Q 1500 369 1778 369 
Q 1994 369 2138 484 
L 2138 34 
z
" transform="scale(0.015625)"/>
       <path id="MicrosoftJhengHeiRegular-65" d="M 3322 1600 
L 872 1600 
Q 888 1003 1188 684 
Q 1488 366 2009 366 
Q 2594 366 3088 756 
L 3088 256 
Q 2634 -81 1888 -81 
Q 1166 -81 748 391 
Q 331 863 331 1719 
Q 331 2506 782 3022 
Q 1234 3538 1913 3538 
Q 2578 3538 2950 3100 
Q 3322 2663 3322 1881 
L 3322 1600 
z
M 2784 2059 
Q 2781 2547 2550 2817 
Q 2319 3088 1903 3088 
Q 1525 3088 1239 2816 
Q 953 2544 878 2059 
L 2784 2059 
z
" transform="scale(0.015625)"/>
      </defs>
      <use xlink:href="#MicrosoftJhengHeiRegular-44"/>
      <use xlink:href="#MicrosoftJhengHeiRegular-61" transform="translate(75.488281 0)"/>
      <use xlink:href="#MicrosoftJhengHeiRegular-74" transform="translate(130.224609 0)"/>
      <use xlink:href="#MicrosoftJhengHeiRegular-65" transform="translate(165.628906 0)"/>
     </g>
    </g>
   </g>
   <g id="matplotlib.axis_2">
    <g id="ytick_1">
     <g id="line2d_19">
      <path d="M 42.36625 527.87 
L 1134.177794 527.87 
" clip-path="url(#pe6a83bb4fb)" style="fill: none; stroke-dasharray: 1.85,0.8; stroke-dashoffset: 0; stroke: #b0b0b0; stroke-width: 0.5"/>
     </g>
     <g id="line2d_20">
      <defs>
       <path id="m6b5ba052fb" d="M 0 0 
L -3.5 0 
" style="stroke: #000000; stroke-width: 0.8"/>
      </defs>
      <g>
       <use xlink:href="#m6b5ba052fb" x="42.36625" y="527.87" style="stroke: #000000; stroke-width: 0.8"/>
      </g>
     </g>
     <g id="text_11">
      <!-- 0 -->
      <g transform="translate(29.570938 531.866875) scale(0.1 -0.1)">
       <use xlink:href="#MicrosoftJhengHeiRegular-30"/>
      </g>
     </g>
    </g>
    <g id="ytick_2">
     <g id="line2d_21">
      <path d="M 42.36625 443.11417 
L 1134.177794 443.11417 
" clip-path="url(#pe6a83bb4fb)" style="fill: none; stroke-dasharray: 1.85,0.8; stroke-dashoffset: 0; stroke: #b0b0b0; stroke-width: 0.5"/>
     </g>
     <g id="line2d_22">
      <g>
       <use xlink:href="#m6b5ba052fb" x="42.36625" y="443.11417" style="stroke: #000000; stroke-width: 0.8"/>
      </g>
     </g>
     <g id="text_12">
      <!-- 10 -->
      <g transform="translate(23.775625 447.111045) scale(0.1 -0.1)">
       <use xlink:href="#MicrosoftJhengHeiRegular-31"/>
       <use xlink:href="#MicrosoftJhengHeiRegular-30" transform="translate(57.958984 0)"/>
      </g>
     </g>
    </g>
    <g id="ytick_3">
     <g id="line2d_23">
      <path d="M 42.36625 358.35834 
L 1134.177794 358.35834 
" clip-path="url(#pe6a83bb4fb)" style="fill: none; stroke-dasharray: 1.85,0.8; stroke-dashoffset: 0; stroke: #b0b0b0; stroke-width: 0.5"/>
     </g>
     <g id="line2d_24">
      <g>
       <use xlink:href="#m6b5ba052fb" x="42.36625" y="358.35834" style="stroke: #000000; stroke-width: 0.8"/>
      </g>
     </g>
     <g id="text_13">
      <!-- 20 -->
      <g transform="translate(23.775625 362.355215) scale(0.1 -0.1)">
       <use xlink:href="#MicrosoftJhengHeiRegular-32"/>
       <use xlink:href="#MicrosoftJhengHeiRegular-30" transform="translate(57.958984 0)"/>
      </g>
     </g>
    </g>
    <g id="ytick_4">
     <g id="line2d_25">
      <path d="M 42.36625 273.602511 
L 1134.177794 273.602511 
" clip-path="url(#pe6a83bb4fb)" style="fill: none; stroke-dasharray: 1.85,0.8; stroke-dashoffset: 0; stroke: #b0b0b0; stroke-width: 0.5"/>
     </g>
     <g id="line2d_26">
      <g>
       <use xlink:href="#m6b5ba052fb" x="42.36625" y="273.602511" style="stroke: #000000; stroke-width: 0.8"/>
      </g>
     </g>
     <g id="text_14">
      <!-- 30 -->
      <g transform="translate(23.775625 277.599386) scale(0.1 -0.1)">
       <defs>
        <path id="MicrosoftJhengHeiRegular-33" d="M 438 756 
Q 934 363 1556 363 
Q 2056 363 2370 616 
Q 2684 869 2684 1313 
Q 2684 2281 1319 2281 
L 919 2281 
L 919 2728 
L 1300 2728 
Q 2513 2728 2513 3634 
Q 2513 4475 1588 4475 
Q 1075 4475 625 4122 
L 625 4644 
Q 1088 4922 1719 4922 
Q 2294 4922 2670 4606 
Q 3047 4291 3047 3769 
Q 3047 2819 2075 2538 
L 2075 2525 
Q 2591 2481 2905 2162 
Q 3219 1844 3219 1369 
Q 3219 706 2742 312 
Q 2266 -81 1525 -81 
Q 844 -81 438 178 
L 438 756 
z
" transform="scale(0.015625)"/>
       </defs>
       <use xlink:href="#MicrosoftJhengHeiRegular-33"/>
       <use xlink:href="#MicrosoftJhengHeiRegular-30" transform="translate(57.958984 0)"/>
      </g>
     </g>
    </g>
    <g id="ytick_5">
     <g id="line2d_27">
      <path d="M 42.36625 188.846681 
L 1134.177794 188.846681 
" clip-path="url(#pe6a83bb4fb)" style="fill: none; stroke-dasharray: 1.85,0.8; stroke-dashoffset: 0; stroke: #b0b0b0; stroke-width: 0.5"/>
     </g>
     <g id="line2d_28">
      <g>
       <use xlink:href="#m6b5ba052fb" x="42.36625" y="188.846681" style="stroke: #000000; stroke-width: 0.8"/>
      </g>
     </g>
     <g id="text_15">
      <!-- 40 -->
      <g transform="translate(23.775625 192.843556) scale(0.1 -0.1)">
       <use xlink:href="#MicrosoftJhengHeiRegular-34"/>
       <use xlink:href="#MicrosoftJhengHeiRegular-30" transform="translate(57.958984 0)"/>
      </g>
     </g>
    </g>
    <g id="ytick_6">
     <g id="line2d_29">
      <path d="M 42.36625 104.090851 
L 1134.177794 104.090851 
" clip-path="url(#pe6a83bb4fb)" style="fill: none; stroke-dasharray: 1.85,0.8; stroke-dashoffset: 0; stroke: #b0b0b0; stroke-width: 0.5"/>
     </g>
     <g id="line2d_30">
      <g>
       <use xlink:href="#m6b5ba052fb" x="42.36625" y="104.090851" style="stroke: #000000; stroke-width: 0.8"/>
      </g>
     </g>
     <g id="text_16">
      <!-- 50 -->
      <g transform="translate(23.775625 108.087726) scale(0.1 -0.1)">
       <use xlink:href="#MicrosoftJhengHeiRegular-35"/>
       <use xlink:href="#MicrosoftJhengHeiRegular-30" transform="translate(57.958984 0)"/>
      </g>
     </g>
    </g>
    <g id="text_17">
     <!-- VIX Value -->
     <g transform="translate(16.7925 310.347812) rotate(-90) scale(0.12 -0.12)">
      <defs>
       <path id="MicrosoftJhengHeiRegular-56" d="M 4209 4841 
L 2409 0 
L 1825 0 
L 63 4841 
L 656 4841 
L 2019 972 
Q 2081 794 2116 547 
L 2131 547 
Q 2153 744 2241 978 
L 3634 4841 
L 4209 4841 
z
" transform="scale(0.015625)"/>
       <path id="MicrosoftJhengHeiRegular-49" d="M 1172 0 
L 641 0 
L 641 4841 
L 1172 4841 
L 1172 0 
z
" transform="scale(0.015625)"/>
       <path id="MicrosoftJhengHeiRegular-58" d="M 3941 0 
L 3291 0 
L 2156 1872 
Q 2109 1950 2044 2106 
L 2028 2106 
Q 2025 2091 1916 1872 
L 750 0 
L 91 0 
L 1716 2434 
L 219 4841 
L 875 4841 
L 1881 3122 
Q 1981 2950 2056 2788 
L 2069 2788 
Q 2181 3019 2263 3138 
L 3306 4841 
L 3922 4841 
L 2397 2441 
L 3941 0 
z
" transform="scale(0.015625)"/>
       <path id="MicrosoftJhengHeiRegular-20" transform="scale(0.015625)"/>
       <path id="MicrosoftJhengHeiRegular-6c" d="M 569 0 
L 569 5116 
L 1088 5116 
L 1088 0 
L 569 0 
z
" transform="scale(0.015625)"/>
       <path id="MicrosoftJhengHeiRegular-75" d="M 3331 0 
L 2809 0 
L 2809 547 
L 2797 547 
Q 2456 -81 1731 -81 
Q 494 -81 494 1391 
L 494 3456 
L 1009 3456 
L 1009 1478 
Q 1009 363 1859 363 
Q 2278 363 2543 672 
Q 2809 981 2809 1466 
L 2809 3456 
L 3331 3456 
L 3331 0 
z
" transform="scale(0.015625)"/>
      </defs>
      <use xlink:href="#MicrosoftJhengHeiRegular-56"/>
      <use xlink:href="#MicrosoftJhengHeiRegular-49" transform="translate(66.748047 0)"/>
      <use xlink:href="#MicrosoftJhengHeiRegular-58" transform="translate(95.166016 0)"/>
      <use xlink:href="#MicrosoftJhengHeiRegular-20" transform="translate(158.447266 0)"/>
      <use xlink:href="#MicrosoftJhengHeiRegular-56" transform="translate(183.447266 0)"/>
      <use xlink:href="#MicrosoftJhengHeiRegular-61" transform="translate(242.445312 0)"/>
      <use xlink:href="#MicrosoftJhengHeiRegular-6c" transform="translate(297.181641 0)"/>
      <use xlink:href="#MicrosoftJhengHeiRegular-75" transform="translate(323.109375 0)"/>
      <use xlink:href="#MicrosoftJhengHeiRegular-65" transform="translate(383.949219 0)"/>
     </g>
    </g>
   </g>
   <g id="line2d_31">
    <path d="M 42.36625 273.602511 
L 1134.177794 273.602511 
" clip-path="url(#pe6a83bb4fb)" style="fill: none; stroke-dasharray: 11.1,4.8; stroke-dashoffset: 0; stroke: #8b0000; stroke-opacity: 0.8; stroke-width: 3"/>
   </g>
   <g id="line2d_32">
    <path d="M 1084.549997 527.87 
L 1084.549997 39.99 
" clip-path="url(#pe6a83bb4fb)" style="fill: none; stroke-dasharray: 2,3.3; stroke-dashoffset: 0; stroke: #808080; stroke-width: 2"/>
   </g>
   <g id="line2d_33">
    <path d="M 91.994047 420.823386 
L 93.353713 425.569716 
L 94.713379 424.552647 
L 96.073045 422.094728 
L 97.43271 423.789843 
L 101.511707 421.416674 
L 102.871373 421.670948 
L 104.231039 412.00878 
L 105.590704 412.178296 
L 106.95037 417.433156 
L 112.389033 417.772179 
L 113.748698 422.518501 
L 115.108364 422.179478 
L 116.46803 422.348994 
L 121.906693 415.992306 
L 123.266358 408.872815 
L 124.626024 408.110012 
L 125.98569 414.720964 
L 130.064687 417.009375 
L 131.424352 419.721559 
L 132.784018 420.314856 
L 134.143684 422.433751 
L 135.503349 420.230098 
L 140.942012 410.56793 
L 142.301678 402.516128 
L 143.661343 408.110012 
L 145.021009 415.144745 
L 149.100006 416.077064 
L 150.459672 421.501432 
L 151.819338 416.500837 
L 153.179003 413.873411 
L 154.538669 415.483768 
L 158.617666 412.602068 
L 159.977332 415.059987 
L 161.336997 406.245381 
L 162.696663 410.228907 
L 164.056329 410.483173 
L 168.135326 412.00878 
L 169.494991 417.178883 
L 170.854657 419.128271 
L 172.214323 419.467294 
L 173.573989 418.28071 
L 177.652986 409.805127 
L 179.012651 393.532007 
L 180.372317 405.991116 
L 181.731983 409.127081 
L 183.091648 407.1777 
L 188.530311 397.17651 
L 189.889977 397.854556 
L 192.609308 411.330734 
L 196.688305 411.415492 
L 198.047971 414.042918 
L 199.407636 410.56793 
L 200.767302 414.297191 
L 202.126968 416.75511 
L 206.205965 413.534388 
L 207.565631 405.31307 
L 208.925296 404.974047 
L 210.284962 405.482585 
L 211.644628 402.939909 
L 215.723625 398.871625 
L 217.08329 410.56793 
L 218.442956 411.330734 
L 219.802622 405.821608 
L 221.162287 405.736851 
L 225.241284 406.414897 
L 226.60095 410.737446 
L 227.960616 417.348398 
L 229.320282 418.365467 
L 230.679947 417.178883 
L 236.11861 415.653283 
L 237.478276 419.552052 
L 238.837941 417.602664 
L 244.276604 412.178296 
L 245.63627 404.041736 
L 246.995935 406.414897 
L 248.355601 389.294215 
L 249.715267 392.006399 
L 253.794264 399.125898 
L 255.15393 400.905771 
L 256.513595 393.955787 
L 257.873261 401.499059 
L 259.232927 381.157663 
L 263.311924 364.884543 
L 264.671589 371.919276 
L 267.390921 375.309506 
L 268.750586 369.29185 
L 272.829583 384.29362 
L 274.189249 394.888107 
L 275.548915 392.514938 
L 276.90858 397.600291 
L 278.268246 400.48199 
L 282.347243 403.533197 
L 283.706909 395.22713 
L 285.066575 397.430775 
L 286.42624 403.448439 
L 287.785906 413.534388 
L 291.864903 413.534388 
L 293.224569 415.738041 
L 294.584234 417.687421 
L 295.9439 420.314856 
L 297.303566 421.501432 
L 301.382563 412.602068 
L 302.742228 414.127676 
L 304.101894 422.348994 
L 305.46156 422.603259 
L 306.821226 426.247762 
L 310.900223 424.89167 
L 312.259888 427.349589 
L 313.619554 423.705086 
L 314.97922 419.636801 
L 316.338885 426.756292 
L 321.777548 418.365467 
L 323.137214 406.838677 
L 324.496879 405.228312 
L 325.856545 418.365467 
L 331.295208 416.331329 
L 332.654874 420.823386 
L 334.014539 421.247167 
L 335.374205 424.298374 
L 339.453202 419.891075 
L 340.812868 418.958756 
L 342.172533 425.823981 
L 343.532199 426.671543 
L 344.891865 420.569121 
L 348.970862 419.806317 
L 350.330527 423.620328 
L 353.049859 415.31426 
L 354.409524 415.992306 
L 358.488522 414.89048 
L 359.848187 419.043513 
L 362.567519 424.128866 
L 363.927184 422.433751 
L 368.006181 424.298374 
L 369.365847 425.908739 
L 370.725513 425.400201 
L 373.444844 422.094728 
L 377.523841 423.02704 
L 378.883507 421.840455 
L 380.243172 418.958756 
L 381.602838 418.365467 
L 382.962504 422.264236 
L 387.041501 416.670352 
L 388.401167 416.077064 
L 389.760832 405.143562 
L 391.120498 392.853961 
L 392.480164 387.853365 
L 396.559161 401.499059 
L 397.918826 403.109416 
L 399.278492 374.970475 
L 400.638158 371.410746 
L 401.997823 388.9552 
L 406.07682 387.175319 
L 407.436486 377.936933 
L 408.796152 389.209457 
L 410.155818 370.308911 
L 411.515483 329.626119 
L 415.59448 200.966767 
L 416.954146 293.011603 
L 418.313812 291.825011 
L 419.673477 326.235873 
L 421.033143 355.222368 
L 425.11214 352.340684 
L 426.471806 374.292429 
L 427.831471 390.650307 
L 429.191137 398.786875 
L 430.550803 402.43137 
L 434.6298 403.702713 
L 435.989466 393.277741 
L 437.349131 389.972261 
L 438.708797 379.123525 
L 440.068463 393.447257 
L 444.14746 390.989338 
L 445.507125 397.091752 
L 446.866791 382.85277 
L 448.226457 395.22713 
L 449.586122 400.736255 
L 455.024785 352.255927 
L 456.384451 347.170574 
L 457.744116 359.205902 
L 459.103782 338.18646 
L 463.182779 363.019905 
L 464.542445 366.155877 
L 465.902111 377.936933 
L 467.261776 383.191801 
L 468.621442 387.51435 
L 472.700439 382.598513 
L 474.060105 378.614979 
L 475.41977 373.360126 
L 476.779436 389.463731 
L 478.139102 390.989338 
L 482.218099 393.192984 
L 483.577764 397.430775 
L 484.93743 397.261268 
L 486.297096 397.600291 
L 487.656761 384.12412 
L 491.735759 386.073501 
L 493.095424 364.63027 
L 494.45509 367.681485 
L 495.814756 354.205307 
L 497.174421 365.054059 
L 501.253418 335.982807 
L 502.613084 346.323012 
L 503.97275 351.069334 
L 505.332415 350.476046 
L 506.692081 354.45958 
L 510.771078 360.901009 
L 512.130744 352.933973 
L 513.490409 361.918086 
L 514.850075 365.901604 
L 516.209741 375.055233 
L 520.288738 372.173534 
L 521.648404 373.614383 
L 523.008069 364.799785 
L 524.367735 366.155877 
L 525.727401 355.561399 
L 529.806398 360.053464 
L 531.166063 363.952224 
L 532.525729 355.391883 
L 533.885395 331.5755 
L 535.24506 342.424252 
L 539.324057 341.57669 
L 540.683723 354.205307 
L 542.043389 389.972261 
L 543.403055 399.04114 
L 544.76272 401.244794 
L 548.841717 400.990521 
L 550.201383 403.194174 
L 551.561049 409.042323 
L 552.920714 406.584404 
L 554.28038 391.074096 
L 558.359377 395.820418 
L 561.078708 382.428997 
L 562.438374 384.886908 
L 563.79804 398.702117 
L 567.877037 404.126485 
L 569.236703 408.364277 
L 570.596368 408.364277 
L 573.3157 413.364872 
L 577.394697 414.805722 
L 578.754362 415.144745 
L 580.114028 413.873411 
L 581.473694 413.110607 
L 582.833359 419.636801 
L 586.912356 407.601481 
L 588.272022 407.686231 
L 589.631688 412.771584 
L 590.991353 409.889884 
L 592.351019 410.822196 
L 596.430016 403.36369 
L 597.789682 393.362499 
L 599.149348 293.774391 
L 600.509013 323.693205 
L 601.868679 372.258291 
L 605.947676 385.649712 
L 607.307342 406.923427 
L 610.026673 403.024667 
L 611.386339 392.684453 
L 615.465336 380.394859 
L 616.825001 380.818632 
L 619.544333 375.902795 
L 620.903999 391.158854 
L 624.982996 391.921641 
L 626.342661 376.835114 
L 627.702327 377.852175 
L 630.421658 362.257101 
L 634.500655 365.223558 
L 635.860321 369.29185 
L 637.219987 391.243595 
L 638.579652 387.175319 
L 639.939318 392.514938 
L 645.377981 400.227717 
L 646.737647 399.888694 
L 648.097312 400.56674 
L 649.456978 402.00759 
L 653.535975 376.157068 
L 654.895641 388.785685 
L 656.255306 387.51435 
L 657.614972 393.616764 
L 658.974638 388.616169 
L 663.053635 370.054638 
L 665.772966 394.210053 
L 667.132632 396.498464 
L 668.492297 387.68385 
L 672.571295 393.87103 
L 673.93096 392.091157 
L 675.290626 393.192984 
L 676.650292 399.888694 
L 678.009957 402.685636 
L 683.44862 397.769798 
L 684.808286 398.447844 
L 686.167951 395.142372 
L 687.527617 373.529642 
L 691.606614 367.003439 
L 692.96628 363.18942 
L 694.325945 365.986362 
L 695.685611 348.780939 
L 697.045277 361.494313 
L 701.124274 334.796214 
L 702.48394 328.609042 
L 703.843605 342.000463 
L 705.203271 317.082244 
L 706.562937 329.795619 
L 710.641934 291.740253 
L 712.001599 299.707306 
L 713.361265 322.506628 
L 714.720931 318.862125 
L 716.080596 343.356555 
L 720.159593 354.035791 
L 721.519259 343.949843 
L 722.878925 359.205902 
L 724.23859 360.053464 
L 725.598256 364.460754 
L 729.677253 379.716813 
L 731.036919 382.513755 
L 732.396585 372.512565 
L 733.75625 369.46135 
L 735.115916 344.373632 
L 739.194913 339.034005 
L 740.554579 343.356555 
L 741.914244 345.560208 
L 743.27391 273.432995 
L 744.633576 143.841324 
L 748.712573 129.687116 
L 750.072238 84.342727 
L 751.431904 242.920909 
L 752.79157 182.744251 
L 754.151236 209.527092 
L 758.230233 266.059247 
L 759.589898 272.585434 
L 760.949564 251.226977 
L 762.30923 276.568968 
L 767.747892 241.225786 
L 769.107558 268.771431 
L 771.826889 303.521324 
L 773.186555 317.336518 
L 777.265552 314.709091 
L 778.625218 323.015159 
L 779.984884 318.523094 
L 781.344549 319.370656 
L 782.704215 335.643775 
L 786.783212 327.507224 
L 788.142878 318.014564 
L 789.502543 328.270027 
L 790.862209 337.338899 
L 792.221875 342.254736 
L 796.300872 372.004034 
L 797.660537 373.444884 
L 799.020203 370.054638 
L 800.379869 376.750356 
L 801.739534 381.750951 
L 805.818532 374.12293 
L 807.178197 374.546703 
L 808.537863 350.984576 
L 809.897529 355.985171 
L 811.257194 338.949248 
L 816.695857 367.172955 
L 818.055523 364.206497 
L 819.415188 365.308316 
L 820.774854 370.478427 
L 824.853851 372.258291 
L 826.213517 377.936933 
L 827.573182 378.614979 
L 828.932848 371.24123 
L 830.292514 385.73447 
L 834.371511 382.428997 
L 835.731177 384.208862 
L 837.090842 381.581436 
L 838.450508 375.139991 
L 839.810174 351.408365 
L 843.889171 365.901604 
L 845.248836 344.797404 
L 846.608502 357.171764 
L 849.327833 353.103472 
L 853.40683 359.79919 
L 854.766496 379.716813 
L 856.126162 385.819227 
L 857.485828 387.260077 
L 858.845493 389.548488 
L 862.92449 386.073501 
L 864.284156 385.225939 
L 865.643822 386.836304 
L 867.003487 389.039958 
L 872.44215 377.089371 
L 873.801816 385.395455 
L 875.161481 392.769211 
L 876.521147 394.125303 
L 877.880813 388.870442 
L 881.95981 382.089966 
L 883.319476 380.564375 
L 884.679141 382.428997 
L 886.038807 387.853365 
L 887.398473 388.785685 
L 891.47747 386.751547 
L 892.837135 388.022881 
L 894.196801 397.600291 
L 895.556467 397.430775 
L 896.916132 401.329544 
L 900.995129 400.48199 
L 902.354795 392.430188 
L 903.714461 396.667979 
L 905.074126 386.158258 
L 906.433792 355.137626 
L 910.512789 379.377782 
L 911.872455 376.580841 
L 913.232121 385.73447 
L 914.591786 387.429593 
L 915.951452 399.464921 
L 920.030449 390.141777 
L 921.390115 403.024667 
L 922.74978 405.058805 
L 924.109446 402.177105 
L 925.469112 399.973452 
L 929.548109 400.821013 
L 930.907774 395.905176 
L 932.26744 394.888107 
L 933.627106 387.175319 
L 934.986772 407.347208 
L 939.065769 402.516128 
L 940.425434 403.956978 
L 941.7851 402.00759 
L 943.144766 405.567335 
L 944.504431 397.685048 
M 949.943094 382.34424 
L 951.30276 389.294215 
L 952.662425 398.193579 
L 954.022091 399.210648 
L 958.101088 399.803944 
L 959.460754 400.397232 
L 960.82042 397.769798 
L 962.180085 403.194174 
L 963.539751 402.770393 
L 967.618748 394.888107 
L 968.978414 389.209457 
L 970.338079 394.633833 
L 971.697745 394.803349 
L 973.057411 396.922245 
L 977.136408 391.413111 
L 978.496073 386.836304 
L 979.855739 390.735065 
L 981.215405 385.988743 
L 982.57507 398.278337 
L 986.654068 391.243595 
L 988.013733 389.887503 
L 989.373399 389.802746 
L 990.733065 386.921062 
L 992.09273 386.751547 
L 996.171727 389.1247 
L 997.531393 381.750951 
L 998.891059 389.718004 
L 1000.250724 388.616169 
L 1001.61039 344.288874 
L 1005.689387 366.57965 
L 1007.049053 351.493123 
L 1008.408718 352.933973 
L 1009.768384 313.352999 
L 1011.12805 351.74738 
L 1015.207047 373.360126 
L 1016.566713 376.411325 
L 1017.926378 370.224153 
L 1019.286044 381.242421 
L 1020.64571 389.1247 
L 1024.724707 394.040545 
L 1026.084372 388.700927 
L 1027.444038 384.463135 
L 1028.803704 384.547893 
L 1030.163369 380.055828 
L 1034.242366 382.34424 
L 1035.602032 366.833923 
L 1036.961698 375.224749 
L 1038.321363 362.596132 
L 1039.681029 366.155877 
L 1043.760026 378.699736 
L 1045.119692 381.41192 
L 1046.479358 379.46254 
L 1047.839023 358.35834 
L 1049.198689 359.79919 
L 1053.277686 338.18646 
L 1054.637352 318.607852 
L 1055.997017 327.337708 
L 1057.356683 303.945097 
L 1058.716349 329.287088 
L 1062.795346 353.951033 
L 1064.155011 370.563184 
L 1065.514677 382.174724 
M 1068.234009 389.294215 
L 1072.313006 381.750951 
L 1073.672671 387.260077 
L 1075.032337 391.582626 
L 1076.392003 394.125303 
L 1077.751668 397.261268 
L 1081.830665 386.666789 
L 1083.190331 384.378378 
L 1083.190331 384.378378 
" clip-path="url(#pe6a83bb4fb)" style="fill: none; stroke: #0000ff; stroke-width: 2; stroke-linecap: square"/>
   </g>
   <g id="line2d_34">
    <path d="M 948.583428 347.848618 
L 949.943094 346.57728 
L 951.30276 347.170571 
L 952.662425 354.459572 
L 954.022091 367.172947 
L 958.101088 367.681482 
L 959.460754 375.309506 
L 960.82042 364.969295 
L 962.180085 352.764456 
L 963.539751 363.528446 
L 967.618748 354.883351 
L 968.978414 356.663224 
L 970.338079 340.644372 
L 971.697745 367.427214 
L 973.057411 359.968701 
L 977.136408 359.205899 
L 978.496073 358.273585 
L 979.855739 351.069339 
L 981.215405 352.594944 
L 982.57507 337.932185 
M 988.013733 342.000465 
L 989.373399 335.728534 
L 990.733065 335.559022 
L 992.09273 332.423057 
M 997.531393 326.998683 
L 998.891059 328.354777 
L 1000.250724 333.101103 
M 1005.689387 310.471297 
L 1007.049053 296.99512 
L 1008.408718 305.72497 
L 1009.768384 296.232317 
L 1011.12805 265.88973 
L 1015.207047 303.097539 
L 1016.566713 309.962762 
L 1017.926378 312.081657 
L 1019.286044 307.165819 
M 1024.724707 316.319449 
L 1026.084372 309.115203 
L 1027.444038 312.929216 
L 1028.803704 308.606668 
L 1030.163369 313.437751 
L 1034.242366 310.895076 
L 1035.602032 306.233505 
L 1036.961698 286.485397 
L 1038.321363 301.487179 
L 1039.681029 289.197583 
L 1043.760026 312.081657 
L 1045.119692 306.911552 
L 1046.479358 313.776774 
L 1047.839023 318.099321 
L 1049.198689 301.232911 
L 1053.277686 306.657284 
L 1054.637352 281.73907 
L 1055.997017 290.129897 
L 1057.356683 320.896264 
L 1058.716349 270.636057 
L 1062.795346 287.332955 
L 1064.155011 300.131085 
L 1065.514677 318.438345 
L 1066.874343 325.812102 
L 1068.234009 325.049299 
L 1072.313006 314.624332 
L 1073.672671 322.082845 
L 1075.032337 326.829172 
L 1077.751668 349.458978 
L 1081.830665 356.239445 
L 1083.190331 353.018723 
L 1084.549997 357.087003 
L 1084.549997 357.087003 
" clip-path="url(#pe6a83bb4fb)" style="fill: none; stroke: #008000; stroke-width: 2; stroke-linecap: square"/>
   </g>
   <g id="patch_7">
    <path d="M 42.36625 527.87 
L 42.36625 39.99 
" style="fill: none; stroke: #000000; stroke-width: 0.8; stroke-linejoin: miter; stroke-linecap: square"/>
   </g>
   <g id="patch_8">
    <path d="M 1134.177794 527.87 
L 1134.177794 39.99 
" style="fill: none; stroke: #000000; stroke-width: 0.8; stroke-linejoin: miter; stroke-linecap: square"/>
   </g>
   <g id="patch_9">
    <path d="M 42.36625 527.87 
L 1134.177794 527.87 
" style="fill: none; stroke: #000000; stroke-width: 0.8; stroke-linejoin: miter; stroke-linecap: square"/>
   </g>
   <g id="patch_10">
    <path d="M 42.36625 39.99 
L 1134.177794 39.99 
" style="fill: none; stroke: #000000; stroke-width: 0.8; stroke-linejoin: miter; stroke-linecap: square"/>
   </g>
   <g id="text_18">
    <!--  VERY DANGEROUS THRESHOLD -->
    <g style="fill: #8b0000" transform="translate(91.994047 266.878782) scale(0.1 -0.1)">
     <defs>
      <path id="MicrosoftJhengHeiBold-20" transform="scale(0.015625)"/>
      <path id="MicrosoftJhengHeiBold-56" d="M 4353 4841 
L 2606 0 
L 1769 0 
L 50 4841 
L 872 4841 
L 2097 1169 
Q 2166 966 2194 719 
L 2209 719 
Q 2231 925 2319 1175 
L 3559 4841 
L 4353 4841 
z
" transform="scale(0.015625)"/>
      <path id="MicrosoftJhengHeiBold-45" d="M 3288 0 
L 606 0 
L 606 4841 
L 3178 4841 
L 3178 4197 
L 1356 4197 
L 1356 2772 
L 3047 2772 
L 3047 2131 
L 1356 2131 
L 1356 644 
L 3288 644 
L 3288 0 
z
" transform="scale(0.015625)"/>
      <path id="MicrosoftJhengHeiBold-52" d="M 4281 0 
L 3403 0 
L 2616 1319 
Q 2384 1706 2195 1847 
Q 2006 1988 1763 1988 
L 1356 1988 
L 1356 0 
L 606 0 
L 606 4841 
L 2147 4841 
Q 2900 4841 3311 4502 
Q 3722 4163 3722 3541 
Q 3722 3053 3437 2706 
Q 3153 2359 2644 2222 
L 2644 2209 
Q 2969 2097 3372 1447 
L 4281 0 
z
M 1356 4222 
L 1356 2609 
L 2022 2609 
Q 2438 2609 2686 2850 
Q 2934 3091 2934 3463 
Q 2934 4222 2034 4222 
L 1356 4222 
z
" transform="scale(0.015625)"/>
      <path id="MicrosoftJhengHeiBold-59" d="M 3928 4841 
L 2341 1766 
L 2341 0 
L 1588 0 
L 1588 1750 
L 38 4841 
L 897 4841 
L 1872 2788 
Q 1872 2784 1988 2456 
L 1997 2456 
Q 2034 2619 2119 2781 
L 3131 4841 
L 3928 4841 
z
" transform="scale(0.015625)"/>
      <path id="MicrosoftJhengHeiBold-44" d="M 606 0 
L 606 4841 
L 2075 4841 
Q 4638 4841 4638 2481 
Q 4638 1347 3908 673 
Q 3178 0 2038 0 
L 606 0 
z
M 1356 4197 
L 1356 644 
L 2016 644 
Q 2872 644 3361 1123 
Q 3850 1603 3850 2466 
Q 3850 3313 3384 3755 
Q 2919 4197 2034 4197 
L 1356 4197 
z
" transform="scale(0.015625)"/>
      <path id="MicrosoftJhengHeiBold-41" d="M 4531 0 
L 3706 0 
L 3253 1259 
L 1316 1259 
L 884 0 
L 59 0 
L 1884 4841 
L 2719 4841 
L 4531 0 
z
M 3044 1881 
L 2369 3791 
Q 2331 3894 2294 4156 
L 2272 4156 
Q 2244 3941 2194 3797 
L 1522 1881 
L 3044 1881 
z
" transform="scale(0.015625)"/>
      <path id="MicrosoftJhengHeiBold-4e" d="M 4666 0 
L 3828 0 
L 1513 3569 
Q 1384 3766 1325 3909 
L 1306 3909 
Q 1334 3722 1334 3203 
L 1334 0 
L 606 0 
L 606 4841 
L 1494 4841 
L 3741 1341 
Q 3900 1091 3953 994 
L 3969 994 
Q 3934 1219 3934 1688 
L 3934 4841 
L 4666 4841 
L 4666 0 
z
" transform="scale(0.015625)"/>
      <path id="MicrosoftJhengHeiBold-47" d="M 4350 328 
Q 3625 -81 2678 -81 
Q 1594 -81 944 578 
Q 294 1238 294 2353 
Q 294 3481 1014 4201 
Q 1734 4922 2869 4922 
Q 3650 4922 4206 4681 
L 4206 3913 
Q 3634 4266 2822 4266 
Q 2056 4266 1568 3750 
Q 1081 3234 1081 2397 
Q 1081 1534 1529 1051 
Q 1978 569 2744 569 
Q 3250 569 3597 756 
L 3597 1969 
L 2569 1969 
L 2569 2606 
L 4350 2606 
L 4350 328 
z
" transform="scale(0.015625)"/>
      <path id="MicrosoftJhengHeiBold-4f" d="M 294 2359 
Q 294 3506 936 4214 
Q 1578 4922 2669 4922 
Q 3691 4922 4309 4234 
Q 4928 3547 4928 2472 
Q 4928 1331 4297 625 
Q 3666 -81 2591 -81 
Q 1566 -81 930 600 
Q 294 1281 294 2359 
z
M 1081 2413 
Q 1081 1613 1490 1095 
Q 1900 578 2597 578 
Q 3328 578 3734 1070 
Q 4141 1563 4141 2400 
Q 4141 3256 3748 3756 
Q 3356 4256 2631 4256 
Q 1925 4256 1503 3737 
Q 1081 3219 1081 2413 
z
" transform="scale(0.015625)"/>
      <path id="MicrosoftJhengHeiBold-55" d="M 4291 2006 
Q 4291 -81 2381 -81 
Q 550 -81 550 1938 
L 550 4841 
L 1300 4841 
L 1300 1956 
Q 1300 578 2438 578 
Q 3541 578 3541 1909 
L 3541 4841 
L 4291 4841 
L 4291 2006 
z
" transform="scale(0.015625)"/>
      <path id="MicrosoftJhengHeiBold-53" d="M 381 1003 
Q 938 550 1691 550 
Q 2653 550 2653 1209 
Q 2653 1400 2547 1553 
Q 2441 1706 2261 1820 
Q 2081 1934 1550 2188 
Q 897 2500 637 2822 
Q 378 3144 378 3578 
Q 378 4203 872 4562 
Q 1366 4922 2134 4922 
Q 2863 4922 3234 4744 
L 3234 3975 
Q 2788 4284 2119 4284 
Q 1691 4284 1428 4112 
Q 1166 3941 1166 3641 
Q 1166 3369 1358 3194 
Q 1550 3019 2169 2725 
Q 2891 2388 3166 2048 
Q 3441 1709 3441 1269 
Q 3441 613 2966 266 
Q 2491 -81 1650 -81 
Q 1341 -81 962 -6 
Q 584 69 381 194 
L 381 1003 
z
" transform="scale(0.015625)"/>
      <path id="MicrosoftJhengHeiBold-54" d="M 3656 4197 
L 2266 4197 
L 2266 0 
L 1513 0 
L 1513 4197 
L 125 4197 
L 125 4841 
L 3656 4841 
L 3656 4197 
z
" transform="scale(0.015625)"/>
      <path id="MicrosoftJhengHeiBold-48" d="M 4434 0 
L 3684 0 
L 3684 2125 
L 1356 2125 
L 1356 0 
L 606 0 
L 606 4841 
L 1356 4841 
L 1356 2784 
L 3684 2784 
L 3684 4841 
L 4434 4841 
L 4434 0 
z
" transform="scale(0.015625)"/>
      <path id="MicrosoftJhengHeiBold-4c" d="M 3247 0 
L 606 0 
L 606 4841 
L 1356 4841 
L 1356 644 
L 3247 644 
L 3247 0 
z
" transform="scale(0.015625)"/>
     </defs>
     <use xlink:href="#MicrosoftJhengHeiBold-20"/>
     <use xlink:href="#MicrosoftJhengHeiBold-56" transform="translate(25 0)"/>
     <use xlink:href="#MicrosoftJhengHeiBold-45" transform="translate(93.798828 0)"/>
     <use xlink:href="#MicrosoftJhengHeiBold-52" transform="translate(149.462891 0)"/>
     <use xlink:href="#MicrosoftJhengHeiBold-59" transform="translate(214.113281 0)"/>
     <use xlink:href="#MicrosoftJhengHeiBold-20" transform="translate(275.832031 0)"/>
     <use xlink:href="#MicrosoftJhengHeiBold-44" transform="translate(300.832031 0)"/>
     <use xlink:href="#MicrosoftJhengHeiBold-41" transform="translate(376.181641 0)"/>
     <use xlink:href="#MicrosoftJhengHeiBold-4e" transform="translate(448.056641 0)"/>
     <use xlink:href="#MicrosoftJhengHeiBold-47" transform="translate(530.429688 0)"/>
     <use xlink:href="#MicrosoftJhengHeiBold-45" transform="translate(605.478516 0)"/>
     <use xlink:href="#MicrosoftJhengHeiBold-52" transform="translate(661.142578 0)"/>
     <use xlink:href="#MicrosoftJhengHeiBold-4f" transform="translate(726.667969 0)"/>
     <use xlink:href="#MicrosoftJhengHeiBold-55" transform="translate(808.259766 0)"/>
     <use xlink:href="#MicrosoftJhengHeiBold-53" transform="translate(883.845703 0)"/>
     <use xlink:href="#MicrosoftJhengHeiBold-20" transform="translate(942.292969 0)"/>
     <use xlink:href="#MicrosoftJhengHeiBold-54" transform="translate(967.292969 0)"/>
     <use xlink:href="#MicrosoftJhengHeiBold-48" transform="translate(1026.228516 0)"/>
     <use xlink:href="#MicrosoftJhengHeiBold-52" transform="translate(1105.037109 0)"/>
     <use xlink:href="#MicrosoftJhengHeiBold-45" transform="translate(1171.6875 0)"/>
     <use xlink:href="#MicrosoftJhengHeiBold-53" transform="translate(1227.351562 0)"/>
     <use xlink:href="#MicrosoftJhengHeiBold-48" transform="translate(1285.798828 0)"/>
     <use xlink:href="#MicrosoftJhengHeiBold-4f" transform="translate(1364.607422 0)"/>
     <use xlink:href="#MicrosoftJhengHeiBold-4c" transform="translate(1446.199219 0)"/>
     <use xlink:href="#MicrosoftJhengHeiBold-44" transform="translate(1498.542969 0)"/>
    </g>
   </g>
   <g id="text_19">
    <!-- VIX Indices (Last 2 Years) -->
    <g transform="translate(496.875772 19.99) scale(0.16 -0.16)">
     <defs>
      <path id="MicrosoftJhengHeiRegular-6e" d="M 3406 0 
L 2884 0 
L 2884 1975 
Q 2884 3094 2066 3094 
Q 1638 3094 1363 2773 
Q 1088 2453 1088 1972 
L 1088 0 
L 566 0 
L 566 3456 
L 1088 3456 
L 1088 2878 
L 1103 2878 
Q 1491 3538 2238 3538 
Q 2806 3538 3106 3172 
Q 3406 2806 3406 2113 
L 3406 0 
z
" transform="scale(0.015625)"/>
      <path id="MicrosoftJhengHeiRegular-64" d="M 3488 0 
L 2969 0 
L 2969 594 
L 2956 594 
Q 2572 -81 1763 -81 
Q 1106 -81 718 386 
Q 331 853 331 1647 
Q 331 2497 765 3017 
Q 1200 3538 1913 3538 
Q 2625 3538 2956 2972 
L 2969 2972 
L 2969 5116 
L 3488 5116 
L 3488 0 
z
M 2969 2081 
Q 2969 2506 2680 2800 
Q 2391 3094 1972 3094 
Q 1453 3094 1158 2711 
Q 863 2328 863 1675 
Q 863 1078 1145 720 
Q 1428 363 1906 363 
Q 2366 363 2667 698 
Q 2969 1034 2969 1556 
L 2969 2081 
z
" transform="scale(0.015625)"/>
      <path id="MicrosoftJhengHeiRegular-69" d="M 497 4700 
Q 497 4847 595 4948 
Q 694 5050 834 5050 
Q 981 5050 1082 4947 
Q 1184 4844 1184 4700 
Q 1184 4563 1082 4459 
Q 981 4356 834 4356 
Q 688 4356 592 4456 
Q 497 4556 497 4700 
z
M 569 0 
L 569 3456 
L 1088 3456 
L 1088 0 
L 569 0 
z
" transform="scale(0.015625)"/>
      <path id="MicrosoftJhengHeiRegular-63" d="M 2906 163 
Q 2503 -81 1969 -81 
Q 1234 -81 782 398 
Q 331 878 331 1647 
Q 331 2506 818 3022 
Q 1306 3538 2116 3538 
Q 2563 3538 2913 3369 
L 2913 2822 
Q 2525 3094 2084 3094 
Q 1553 3094 1208 2711 
Q 863 2328 863 1694 
Q 863 1075 1184 719 
Q 1506 363 2050 363 
Q 2509 363 2906 666 
L 2906 163 
z
" transform="scale(0.015625)"/>
      <path id="MicrosoftJhengHeiRegular-73" d="M 350 703 
Q 803 369 1344 369 
Q 2081 369 2081 866 
Q 2081 1084 1920 1221 
Q 1759 1359 1288 1538 
Q 725 1759 540 1984 
Q 356 2209 356 2544 
Q 356 2988 736 3263 
Q 1116 3538 1669 3538 
Q 2113 3538 2463 3381 
L 2463 2838 
Q 2081 3088 1584 3088 
Q 1278 3088 1086 2950 
Q 894 2813 894 2588 
Q 894 2363 1026 2244 
Q 1159 2125 1625 1934 
Q 2216 1709 2417 1479 
Q 2619 1250 2619 916 
Q 2619 453 2239 186 
Q 1859 -81 1266 -81 
Q 731 -81 350 128 
L 350 703 
z
" transform="scale(0.015625)"/>
      <path id="MicrosoftJhengHeiRegular-28" d="M 1513 -1100 
Q 469 94 469 1847 
Q 469 3609 1513 4841 
L 1988 4841 
Q 925 3556 925 1853 
Q 925 159 1981 -1100 
L 1513 -1100 
z
" transform="scale(0.015625)"/>
      <path id="MicrosoftJhengHeiRegular-4c" d="M 3128 0 
L 641 0 
L 641 4841 
L 1172 4841 
L 1172 488 
L 3128 488 
L 3128 0 
z
" transform="scale(0.015625)"/>
      <path id="MicrosoftJhengHeiRegular-59" d="M 3753 4841 
L 2156 1791 
L 2156 0 
L 1622 0 
L 1622 1781 
L 63 4841 
L 672 4841 
L 1772 2628 
Q 1797 2578 1891 2338 
L 1900 2338 
Q 1934 2447 2031 2628 
L 3188 4841 
L 3753 4841 
z
" transform="scale(0.015625)"/>
      <path id="MicrosoftJhengHeiRegular-72" d="M 2341 2922 
Q 2197 3031 1925 3031 
Q 1559 3031 1323 2682 
Q 1088 2334 1088 1769 
L 1088 0 
L 566 0 
L 566 3456 
L 1088 3456 
L 1088 2741 
L 1103 2741 
Q 1222 3109 1465 3312 
Q 1709 3516 2003 3516 
Q 2225 3516 2341 3469 
L 2341 2922 
z
" transform="scale(0.015625)"/>
      <path id="MicrosoftJhengHeiRegular-29" d="M 84 -1100 
Q 1138 153 1138 1853 
Q 1138 3563 75 4841 
L 553 4841 
Q 1603 3609 1603 1847 
Q 1603 97 553 -1100 
L 84 -1100 
z
" transform="scale(0.015625)"/>
     </defs>
     <use xlink:href="#MicrosoftJhengHeiRegular-56"/>
     <use xlink:href="#MicrosoftJhengHeiRegular-49" transform="translate(66.748047 0)"/>
     <use xlink:href="#MicrosoftJhengHeiRegular-58" transform="translate(95.166016 0)"/>
     <use xlink:href="#MicrosoftJhengHeiRegular-20" transform="translate(158.447266 0)"/>
     <use xlink:href="#MicrosoftJhengHeiRegular-49" transform="translate(183.447266 0)"/>
     <use xlink:href="#MicrosoftJhengHeiRegular-6e" transform="translate(211.865234 0)"/>
     <use xlink:href="#MicrosoftJhengHeiRegular-64" transform="translate(272.705078 0)"/>
     <use xlink:href="#MicrosoftJhengHeiRegular-69" transform="translate(336.083984 0)"/>
     <use xlink:href="#MicrosoftJhengHeiRegular-63" transform="translate(362.011719 0)"/>
     <use xlink:href="#MicrosoftJhengHeiRegular-65" transform="translate(411.767578 0)"/>
     <use xlink:href="#MicrosoftJhengHeiRegular-73" transform="translate(468.115234 0)"/>
     <use xlink:href="#MicrosoftJhengHeiRegular-20" transform="translate(513.720703 0)"/>
     <use xlink:href="#MicrosoftJhengHeiRegular-28" transform="translate(538.720703 0)"/>
     <use xlink:href="#MicrosoftJhengHeiRegular-4c" transform="translate(570.800781 0)"/>
     <use xlink:href="#MicrosoftJhengHeiRegular-61" transform="translate(621.337891 0)"/>
     <use xlink:href="#MicrosoftJhengHeiRegular-73" transform="translate(676.074219 0)"/>
     <use xlink:href="#MicrosoftJhengHeiRegular-74" transform="translate(721.679688 0)"/>
     <use xlink:href="#MicrosoftJhengHeiRegular-20" transform="translate(757.958984 0)"/>
     <use xlink:href="#MicrosoftJhengHeiRegular-32" transform="translate(782.958984 0)"/>
     <use xlink:href="#MicrosoftJhengHeiRegular-20" transform="translate(840.917969 0)"/>
     <use xlink:href="#MicrosoftJhengHeiRegular-59" transform="translate(865.917969 0)"/>
     <use xlink:href="#MicrosoftJhengHeiRegular-65" transform="translate(915.744141 0)"/>
     <use xlink:href="#MicrosoftJhengHeiRegular-61" transform="translate(972.091797 0)"/>
     <use xlink:href="#MicrosoftJhengHeiRegular-72" transform="translate(1026.828125 0)"/>
     <use xlink:href="#MicrosoftJhengHeiRegular-73" transform="translate(1064.785156 0)"/>
     <use xlink:href="#MicrosoftJhengHeiRegular-29" transform="translate(1110.390625 0)"/>
    </g>
   </g>
   <g id="legend_1">
    <g id="patch_11">
     <path d="M 49.36625 156.579062 
L 184.339687 156.579062 
Q 186.339687 156.579062 186.339687 154.579062 
L 186.339687 46.99 
Q 186.339687 44.99 184.339687 44.99 
L 49.36625 44.99 
Q 47.36625 44.99 47.36625 46.99 
L 47.36625 154.579062 
Q 47.36625 156.579062 49.36625 156.579062 
z
" style="fill: #ffffff; opacity: 0.8; stroke: #cccccc; stroke-linejoin: miter"/>
    </g>
    <g id="patch_12">
     <path d="M 51.36625 56.98375 
L 71.36625 56.98375 
L 71.36625 49.98375 
L 51.36625 49.98375 
z
" style="fill: #008000; opacity: 0.1"/>
    </g>
    <g id="text_20">
     <!-- Safe (&lt;15) -->
     <g transform="translate(79.36625 56.98375) scale(0.1 -0.1)">
      <defs>
       <path id="MicrosoftJhengHeiRegular-53" d="M 416 838 
Q 619 653 1001 529 
Q 1384 406 1709 406 
Q 2766 406 2766 1175 
Q 2766 1391 2656 1559 
Q 2547 1728 2361 1851 
Q 2175 1975 1628 2256 
Q 841 2659 631 2959 
Q 422 3259 422 3638 
Q 422 4222 897 4572 
Q 1372 4922 2091 4922 
Q 2816 4922 3119 4750 
L 3119 4134 
Q 2694 4428 2022 4428 
Q 1563 4428 1272 4233 
Q 981 4038 981 3684 
Q 981 3466 1082 3305 
Q 1184 3144 1359 3025 
Q 1534 2906 2041 2653 
Q 2753 2300 3037 1964 
Q 3322 1628 3322 1213 
Q 3322 594 2872 256 
Q 2422 -81 1613 -81 
Q 1366 -81 970 0 
Q 575 81 416 197 
L 416 838 
z
" transform="scale(0.015625)"/>
       <path id="MicrosoftJhengHeiRegular-66" d="M 2241 4653 
Q 2075 4744 1872 4744 
Q 1288 4744 1288 4000 
L 1288 3456 
L 2097 3456 
L 2097 3006 
L 1288 3006 
L 1288 0 
L 772 0 
L 772 3006 
L 181 3006 
L 181 3456 
L 772 3456 
L 772 4025 
Q 772 4572 1083 4881 
Q 1394 5191 1847 5191 
Q 2100 5191 2241 5131 
L 2241 4653 
z
" transform="scale(0.015625)"/>
       <path id="MicrosoftJhengHeiRegular-3c" d="M 3809 441 
L 922 1903 
L 922 2078 
L 3809 3713 
L 3809 3225 
L 1644 2009 
L 1644 1994 
L 3809 925 
L 3809 441 
z
" transform="scale(0.015625)"/>
      </defs>
      <use xlink:href="#MicrosoftJhengHeiRegular-53"/>
      <use xlink:href="#MicrosoftJhengHeiRegular-61" transform="translate(57.177734 0)"/>
      <use xlink:href="#MicrosoftJhengHeiRegular-66" transform="translate(111.914062 0)"/>
      <use xlink:href="#MicrosoftJhengHeiRegular-65" transform="translate(145.214844 0)"/>
      <use xlink:href="#MicrosoftJhengHeiRegular-20" transform="translate(201.5625 0)"/>
      <use xlink:href="#MicrosoftJhengHeiRegular-28" transform="translate(226.5625 0)"/>
      <use xlink:href="#MicrosoftJhengHeiRegular-3c" transform="translate(258.642578 0)"/>
      <use xlink:href="#MicrosoftJhengHeiRegular-31" transform="translate(332.373047 0)"/>
      <use xlink:href="#MicrosoftJhengHeiRegular-35" transform="translate(390.332031 0)"/>
      <use xlink:href="#MicrosoftJhengHeiRegular-29" transform="translate(448.291016 0)"/>
     </g>
    </g>
    <g id="patch_13">
     <path d="M 51.36625 72.463437 
L 71.36625 72.463437 
L 71.36625 65.463437 
L 51.36625 65.463437 
z
" style="fill: #ffff00; opacity: 0.15"/>
    </g>
    <g id="text_21">
     <!-- Warning (15-20) -->
     <g transform="translate(79.36625 72.463437) scale(0.1 -0.1)">
      <defs>
       <path id="MicrosoftJhengHeiRegular-57" d="M 6338 4841 
L 4966 0 
L 4338 0 
L 3328 3566 
Q 3263 3800 3250 4056 
L 3238 4056 
Q 3219 3806 3150 3572 
L 2134 0 
L 1519 0 
L 91 4841 
L 678 4841 
L 1728 1097 
Q 1797 850 1809 613 
L 1828 613 
Q 1844 788 1931 1097 
L 3013 4841 
L 3516 4841 
L 4559 1069 
Q 4609 894 4641 619 
L 4653 619 
Q 4666 813 4747 1081 
L 5753 4841 
L 6338 4841 
z
" transform="scale(0.015625)"/>
       <path id="MicrosoftJhengHeiRegular-67" d="M 3488 272 
Q 3488 -1628 1688 -1628 
Q 1050 -1628 566 -1381 
L 566 -850 
Q 1150 -1175 1684 -1175 
Q 2969 -1175 2969 203 
L 2969 588 
L 2956 588 
Q 2550 -81 1763 -81 
Q 1113 -81 722 384 
Q 331 850 331 1616 
Q 331 2500 759 3019 
Q 1188 3538 1913 3538 
Q 2616 3538 2956 2972 
L 2969 2972 
L 2969 3456 
L 3488 3456 
L 3488 272 
z
M 2969 2081 
Q 2969 2503 2678 2798 
Q 2388 3094 1978 3094 
Q 1459 3094 1161 2712 
Q 863 2331 863 1653 
Q 863 1066 1150 714 
Q 1438 363 1897 363 
Q 2363 363 2666 698 
Q 2969 1034 2969 1556 
L 2969 2081 
z
" transform="scale(0.015625)"/>
      </defs>
      <use xlink:href="#MicrosoftJhengHeiRegular-57"/>
      <use xlink:href="#MicrosoftJhengHeiRegular-61" transform="translate(96.390625 0)"/>
      <use xlink:href="#MicrosoftJhengHeiRegular-72" transform="translate(151.126953 0)"/>
      <use xlink:href="#MicrosoftJhengHeiRegular-6e" transform="translate(188.083984 0)"/>
      <use xlink:href="#MicrosoftJhengHeiRegular-69" transform="translate(248.923828 0)"/>
      <use xlink:href="#MicrosoftJhengHeiRegular-6e" transform="translate(274.851562 0)"/>
      <use xlink:href="#MicrosoftJhengHeiRegular-67" transform="translate(335.691406 0)"/>
      <use xlink:href="#MicrosoftJhengHeiRegular-20" transform="translate(399.070312 0)"/>
      <use xlink:href="#MicrosoftJhengHeiRegular-28" transform="translate(424.070312 0)"/>
      <use xlink:href="#MicrosoftJhengHeiRegular-31" transform="translate(456.150391 0)"/>
      <use xlink:href="#MicrosoftJhengHeiRegular-35" transform="translate(514.109375 0)"/>
      <use xlink:href="#MicrosoftJhengHeiRegular-2d" transform="translate(572.068359 0)"/>
      <use xlink:href="#MicrosoftJhengHeiRegular-32" transform="translate(615.232422 0)"/>
      <use xlink:href="#MicrosoftJhengHeiRegular-30" transform="translate(673.191406 0)"/>
      <use xlink:href="#MicrosoftJhengHeiRegular-29" transform="translate(731.150391 0)"/>
     </g>
    </g>
    <g id="patch_14">
     <path d="M 51.36625 88.000937 
L 71.36625 88.000937 
L 71.36625 81.000937 
L 51.36625 81.000937 
z
" style="fill: #ffa500; opacity: 0.15"/>
    </g>
    <g id="text_22">
     <!-- Dangerous (20-30) -->
     <g transform="translate(79.36625 88.000937) scale(0.1 -0.1)">
      <defs>
       <path id="MicrosoftJhengHeiRegular-6f" d="M 331 1684 
Q 331 2547 801 3042 
Q 1272 3538 2081 3538 
Q 2844 3538 3276 3059 
Q 3709 2581 3709 1738 
Q 3709 919 3240 419 
Q 2772 -81 2000 -81 
Q 1253 -81 792 400 
Q 331 881 331 1684 
z
M 863 1706 
Q 863 1094 1183 728 
Q 1503 363 2038 363 
Q 2581 363 2879 719 
Q 3178 1075 3178 1719 
Q 3178 2378 2883 2736 
Q 2588 3094 2038 3094 
Q 1500 3094 1181 2723 
Q 863 2353 863 1706 
z
" transform="scale(0.015625)"/>
      </defs>
      <use xlink:href="#MicrosoftJhengHeiRegular-44"/>
      <use xlink:href="#MicrosoftJhengHeiRegular-61" transform="translate(75.488281 0)"/>
      <use xlink:href="#MicrosoftJhengHeiRegular-6e" transform="translate(130.224609 0)"/>
      <use xlink:href="#MicrosoftJhengHeiRegular-67" transform="translate(191.064453 0)"/>
      <use xlink:href="#MicrosoftJhengHeiRegular-65" transform="translate(254.443359 0)"/>
      <use xlink:href="#MicrosoftJhengHeiRegular-72" transform="translate(310.791016 0)"/>
      <use xlink:href="#MicrosoftJhengHeiRegular-6f" transform="translate(346.623047 0)"/>
      <use xlink:href="#MicrosoftJhengHeiRegular-75" transform="translate(409.708984 0)"/>
      <use xlink:href="#MicrosoftJhengHeiRegular-73" transform="translate(470.548828 0)"/>
      <use xlink:href="#MicrosoftJhengHeiRegular-20" transform="translate(516.154297 0)"/>
      <use xlink:href="#MicrosoftJhengHeiRegular-28" transform="translate(541.154297 0)"/>
      <use xlink:href="#MicrosoftJhengHeiRegular-32" transform="translate(573.234375 0)"/>
      <use xlink:href="#MicrosoftJhengHeiRegular-30" transform="translate(631.193359 0)"/>
      <use xlink:href="#MicrosoftJhengHeiRegular-2d" transform="translate(689.152344 0)"/>
      <use xlink:href="#MicrosoftJhengHeiRegular-33" transform="translate(732.316406 0)"/>
      <use xlink:href="#MicrosoftJhengHeiRegular-30" transform="translate(790.275391 0)"/>
      <use xlink:href="#MicrosoftJhengHeiRegular-29" transform="translate(848.234375 0)"/>
     </g>
    </g>
    <g id="patch_15">
     <path d="M 51.36625 103.538437 
L 71.36625 103.538437 
L 71.36625 96.538437 
L 51.36625 96.538437 
z
" style="fill: #ff0000; opacity: 0.1"/>
    </g>
    <g id="text_23">
     <!-- Very Dangerous (&gt;30) -->
     <g transform="translate(79.36625 103.538437) scale(0.1 -0.1)">
      <defs>
       <path id="MicrosoftJhengHeiRegular-79" d="M 3281 3456 
L 1681 -572 
Q 1263 -1628 506 -1628 
Q 316 -1628 166 -1588 
L 166 -1113 
Q 341 -1169 484 -1169 
Q 906 -1169 1116 -663 
L 1397 6 
L 50 3456 
L 628 3456 
L 1581 759 
Q 1600 703 1653 513 
L 1672 513 
Q 1684 578 1738 753 
L 2741 3456 
L 3281 3456 
z
" transform="scale(0.015625)"/>
       <path id="MicrosoftJhengHeiRegular-3e" d="M 3809 1900 
L 922 441 
L 922 922 
L 3088 1988 
L 3088 2009 
L 922 3225 
L 922 3709 
L 3809 2075 
L 3809 1900 
z
" transform="scale(0.015625)"/>
      </defs>
      <use xlink:href="#MicrosoftJhengHeiRegular-56"/>
      <use xlink:href="#MicrosoftJhengHeiRegular-65" transform="translate(59.998047 0)"/>
      <use xlink:href="#MicrosoftJhengHeiRegular-72" transform="translate(116.345703 0)"/>
      <use xlink:href="#MicrosoftJhengHeiRegular-79" transform="translate(157.927734 0)"/>
      <use xlink:href="#MicrosoftJhengHeiRegular-20" transform="translate(209.783203 0)"/>
      <use xlink:href="#MicrosoftJhengHeiRegular-44" transform="translate(234.783203 0)"/>
      <use xlink:href="#MicrosoftJhengHeiRegular-61" transform="translate(310.271484 0)"/>
      <use xlink:href="#MicrosoftJhengHeiRegular-6e" transform="translate(365.007812 0)"/>
      <use xlink:href="#MicrosoftJhengHeiRegular-67" transform="translate(425.847656 0)"/>
      <use xlink:href="#MicrosoftJhengHeiRegular-65" transform="translate(489.226562 0)"/>
      <use xlink:href="#MicrosoftJhengHeiRegular-72" transform="translate(545.574219 0)"/>
      <use xlink:href="#MicrosoftJhengHeiRegular-6f" transform="translate(581.40625 0)"/>
      <use xlink:href="#MicrosoftJhengHeiRegular-75" transform="translate(644.492188 0)"/>
      <use xlink:href="#MicrosoftJhengHeiRegular-73" transform="translate(705.332031 0)"/>
      <use xlink:href="#MicrosoftJhengHeiRegular-20" transform="translate(750.9375 0)"/>
      <use xlink:href="#MicrosoftJhengHeiRegular-28" transform="translate(775.9375 0)"/>
      <use xlink:href="#MicrosoftJhengHeiRegular-3e" transform="translate(808.017578 0)"/>
      <use xlink:href="#MicrosoftJhengHeiRegular-33" transform="translate(881.748047 0)"/>
      <use xlink:href="#MicrosoftJhengHeiRegular-30" transform="translate(939.707031 0)"/>
      <use xlink:href="#MicrosoftJhengHeiRegular-29" transform="translate(997.666016 0)"/>
     </g>
    </g>
    <g id="line2d_35">
     <path d="M 51.36625 115.575937 
L 61.36625 115.575937 
L 71.36625 115.575937 
" style="fill: none; stroke-dasharray: 2,3.3; stroke-dashoffset: 0; stroke: #808080; stroke-width: 2"/>
    </g>
    <g id="text_24">
     <!-- Today -->
     <g transform="translate(79.36625 119.075937) scale(0.1 -0.1)">
      <defs>
       <path id="MicrosoftJhengHeiRegular-54" d="M 3466 4353 
L 2069 4353 
L 2069 0 
L 1534 0 
L 1534 4353 
L 141 4353 
L 141 4841 
L 3466 4841 
L 3466 4353 
z
" transform="scale(0.015625)"/>
      </defs>
      <use xlink:href="#MicrosoftJhengHeiRegular-54"/>
      <use xlink:href="#MicrosoftJhengHeiRegular-6f" transform="translate(45.027344 0)"/>
      <use xlink:href="#MicrosoftJhengHeiRegular-64" transform="translate(108.113281 0)"/>
      <use xlink:href="#MicrosoftJhengHeiRegular-61" transform="translate(171.492188 0)"/>
      <use xlink:href="#MicrosoftJhengHeiRegular-79" transform="translate(226.228516 0)"/>
     </g>
    </g>
    <g id="line2d_36">
     <path d="M 51.36625 131.113437 
L 61.36625 131.113437 
L 71.36625 131.113437 
" style="fill: none; stroke: #0000ff; stroke-width: 2; stroke-linecap: square"/>
    </g>
    <g id="text_25">
     <!-- US VIX (^VIX) -->
     <g transform="translate(79.36625 134.613437) scale(0.1 -0.1)">
      <defs>
       <path id="MicrosoftJhengHeiRegular-55" d="M 4153 1947 
Q 4153 -81 2325 -81 
Q 581 -81 581 1872 
L 581 4841 
L 1113 4841 
L 1113 1909 
Q 1113 400 2391 400 
Q 3622 400 3622 1856 
L 3622 4841 
L 4153 4841 
L 4153 1947 
z
" transform="scale(0.015625)"/>
       <path id="MicrosoftJhengHeiRegular-5e" d="M 3947 2109 
L 3459 2109 
L 2328 4203 
L 2309 4203 
L 1256 2109 
L 781 2109 
L 2203 4922 
L 2400 4922 
L 3947 2109 
z
" transform="scale(0.015625)"/>
      </defs>
      <use xlink:href="#MicrosoftJhengHeiRegular-55"/>
      <use xlink:href="#MicrosoftJhengHeiRegular-53" transform="translate(73.974609 0)"/>
      <use xlink:href="#MicrosoftJhengHeiRegular-20" transform="translate(131.152344 0)"/>
      <use xlink:href="#MicrosoftJhengHeiRegular-56" transform="translate(156.152344 0)"/>
      <use xlink:href="#MicrosoftJhengHeiRegular-49" transform="translate(222.900391 0)"/>
      <use xlink:href="#MicrosoftJhengHeiRegular-58" transform="translate(251.318359 0)"/>
      <use xlink:href="#MicrosoftJhengHeiRegular-20" transform="translate(314.599609 0)"/>
      <use xlink:href="#MicrosoftJhengHeiRegular-28" transform="translate(339.599609 0)"/>
      <use xlink:href="#MicrosoftJhengHeiRegular-5e" transform="translate(371.679688 0)"/>
      <use xlink:href="#MicrosoftJhengHeiRegular-56" transform="translate(445.410156 0)"/>
      <use xlink:href="#MicrosoftJhengHeiRegular-49" transform="translate(512.158203 0)"/>
      <use xlink:href="#MicrosoftJhengHeiRegular-58" transform="translate(540.576172 0)"/>
      <use xlink:href="#MicrosoftJhengHeiRegular-29" transform="translate(603.857422 0)"/>
     </g>
    </g>
    <g id="line2d_37">
     <path d="M 51.36625 146.593125 
L 61.36625 146.593125 
L 71.36625 146.593125 
" style="fill: none; stroke: #008000; stroke-width: 2; stroke-linecap: square"/>
    </g>
    <g id="text_26">
     <!-- Taiwan VIX (VIXTWN) -->
     <g transform="translate(79.36625 150.093125) scale(0.1 -0.1)">
      <defs>
       <path id="MicrosoftJhengHeiRegular-77" d="M 4878 3456 
L 3841 0 
L 3300 0 
L 2575 2503 
Q 2534 2644 2522 2816 
L 2509 2816 
Q 2506 2728 2438 2509 
L 1653 0 
L 1134 0 
L 84 3456 
L 631 3456 
L 1363 834 
Q 1397 709 1409 528 
L 1434 528 
Q 1447 672 1497 841 
L 2306 3456 
L 2781 3456 
L 3509 828 
Q 3538 722 3559 522 
L 3588 522 
Q 3591 650 3644 828 
L 4363 3456 
L 4878 3456 
z
" transform="scale(0.015625)"/>
       <path id="MicrosoftJhengHeiRegular-4e" d="M 4513 0 
L 3844 0 
L 1319 3909 
Q 1234 4047 1169 4200 
L 1150 4200 
Q 1175 4050 1175 3550 
L 1175 0 
L 641 0 
L 641 4841 
L 1347 4841 
L 3803 972 
Q 3991 672 4000 641 
L 4013 641 
Q 3978 881 3978 1369 
L 3978 4841 
L 4513 4841 
L 4513 0 
z
" transform="scale(0.015625)"/>
      </defs>
      <use xlink:href="#MicrosoftJhengHeiRegular-54"/>
      <use xlink:href="#MicrosoftJhengHeiRegular-61" transform="translate(44.777344 0)"/>
      <use xlink:href="#MicrosoftJhengHeiRegular-69" transform="translate(99.513672 0)"/>
      <use xlink:href="#MicrosoftJhengHeiRegular-77" transform="translate(125.441406 0)"/>
      <use xlink:href="#MicrosoftJhengHeiRegular-61" transform="translate(202.931641 0)"/>
      <use xlink:href="#MicrosoftJhengHeiRegular-6e" transform="translate(257.667969 0)"/>
      <use xlink:href="#MicrosoftJhengHeiRegular-20" transform="translate(318.507812 0)"/>
      <use xlink:href="#MicrosoftJhengHeiRegular-56" transform="translate(343.507812 0)"/>
      <use xlink:href="#MicrosoftJhengHeiRegular-49" transform="translate(410.255859 0)"/>
      <use xlink:href="#MicrosoftJhengHeiRegular-58" transform="translate(438.673828 0)"/>
      <use xlink:href="#MicrosoftJhengHeiRegular-20" transform="translate(501.955078 0)"/>
      <use xlink:href="#MicrosoftJhengHeiRegular-28" transform="translate(526.955078 0)"/>
      <use xlink:href="#MicrosoftJhengHeiRegular-56" transform="translate(559.035156 0)"/>
      <use xlink:href="#MicrosoftJhengHeiRegular-49" transform="translate(625.783203 0)"/>
      <use xlink:href="#MicrosoftJhengHeiRegular-58" transform="translate(654.201172 0)"/>
      <use xlink:href="#MicrosoftJhengHeiRegular-54" transform="translate(719.232422 0)"/>
      <use xlink:href="#MicrosoftJhengHeiRegular-57" transform="translate(777.384766 0)"/>
      <use xlink:href="#MicrosoftJhengHeiRegular-4e" transform="translate(877.775391 0)"/>
      <use xlink:href="#MicrosoftJhengHeiRegular-29" transform="translate(958.292969 0)"/>
     </g>
    </g>
   </g>
  </g>
 </g>
 <defs>
  <clipPath id="pe6a83bb4fb">
   <rect x="42.36625" y="39.99" width="1091.811544" height="487.88"/>
  </clipPath>
 </defs>
</svg>
