<?xml version="1.0" encoding="utf-8" standalone="no"?>
<!DOCTYPE svg PUBLIC "-//W3C//DTD SVG 1.1//EN"
  "http://www.w3.org/Graphics/SVG/1.1/DTD/svg11.dtd">
<svg xmlns:xlink="http://www.w3.org/1999/xlink" width="1144.89875pt" height="568.649375pt" viewBox="0 0 1144.89875 568.649375" xmlns="http://www.w3.org/2000/svg" version="1.1">
 <metadata>
  <rdf:RDF xmlns:dc="http://purl.org/dc/elements/1.1/" xmlns:cc="http://creativecommons.org/ns#" xmlns:rdf="http://www.w3.org/1999/02/22-rdf-syntax-ns#">
   <cc:Work>
    <dc:type rdf:resource="http://purl.org/dc/dcmitype/StillImage"/>
    <dc:date>2026-01-09T22:26:41.806267</dc:date>
    <dc:format>image/svg+xml</dc:format>
    <dc:creator>
     <cc:Agent>
      <dc:title>Matplotlib v3.10.8, https://matplotlib.org/</dc:title>
     </cc:Agent>
    </dc:creator>
   </cc:Work>
  </rdf:RDF>
 </metadata>
 <defs>
  <style type="text/css">*{stroke-linejoin: round; stroke-linecap: butt}</style>
 </defs>
 <g id="figure_1">
  <g id="patch_1">
   <path d="M 0 568.649375 
L 1144.89875 568.649375 
L 1144.89875 0 
L 0 0 
z
" style="fill: #ffffff"/>
  </g>
  <g id="axes_1">
   <g id="patch_2">
    <path d="M 42.53875 529.1575 
L 1137.69875 529.1575 
L 1137.69875 39.3575 
L 42.53875 39.3575 
z
" style="fill: #ffffff"/>
   </g>
   <g id="patch_3">
    <path d="M 42.53875 529.1575 
L 1137.69875 529.1575 
L 1137.69875 401.523434 
L 42.53875 401.523434 
z
" clip-path="url(#pd65a56e579)" style="fill: #008000; opacity: 0.1"/>
   </g>
   <g id="patch_4">
    <path d="M 42.53875 401.523434 
L 1137.69875 401.523434 
L 1137.69875 358.978745 
L 42.53875 358.978745 
z
" clip-path="url(#pd65a56e579)" style="fill: #ffff00; opacity: 0.15"/>
   </g>
   <g id="patch_5">
    <path d="M 42.53875 358.978745 
L 1137.69875 358.978745 
L 1137.69875 273.889368 
L 42.53875 273.889368 
z
" clip-path="url(#pd65a56e579)" style="fill: #ffa500; opacity: 0.15"/>
   </g>
   <g id="patch_6">
    <path d="M 42.53875 273.889368 
L 1137.69875 273.889368 
L 1137.69875 -321.736274 
L 42.53875 -321.736274 
z
" clip-path="url(#pd65a56e579)" style="fill: #ff0000; opacity: 0.1"/>
   </g>
   <g id="matplotlib.axis_1">
    <g id="xtick_1">
     <g id="line2d_1">
      <path d="M 80.044229 529.1575 
L 80.044229 39.3575 
" clip-path="url(#pd65a56e579)" style="fill: none; stroke-dasharray: 1.85,0.8; stroke-dashoffset: 0; stroke: #b0b0b0; stroke-width: 0.5"/>
     </g>
     <g id="line2d_2">
      <defs>
       <path id="m2a01808e4b" d="M 0 0 
L 0 3.5 
" style="stroke: #000000; stroke-width: 0.8"/>
      </defs>
      <g>
       <use xlink:href="#m2a01808e4b" x="80.044229" y="529.1575" style="stroke: #000000; stroke-width: 0.8"/>
      </g>
     </g>
     <g id="text_1">
      <!-- 2024-01 -->
      <g transform="translate(59.152823 543.755937) scale(0.1 -0.1)">
       <defs>
        <path id="DejaVuSans-32" d="M 1228 531 
L 3431 531 
L 3431 0 
L 469 0 
L 469 531 
Q 828 903 1448 1529 
Q 2069 2156 2228 2338 
Q 2531 2678 2651 2914 
Q 2772 3150 2772 3378 
Q 2772 3750 2511 3984 
Q 2250 4219 1831 4219 
Q 1534 4219 1204 4116 
Q 875 4013 500 3803 
L 500 4441 
Q 881 4594 1212 4672 
Q 1544 4750 1819 4750 
Q 2544 4750 2975 4387 
Q 3406 4025 3406 3419 
Q 3406 3131 3298 2873 
Q 3191 2616 2906 2266 
Q 2828 2175 2409 1742 
Q 1991 1309 1228 531 
z
" transform="scale(0.015625)"/>
        <path id="DejaVuSans-30" d="M 2034 4250 
Q 1547 4250 1301 3770 
Q 1056 3291 1056 2328 
Q 1056 1369 1301 889 
Q 1547 409 2034 409 
Q 2525 409 2770 889 
Q 3016 1369 3016 2328 
Q 3016 3291 2770 3770 
Q 2525 4250 2034 4250 
z
M 2034 4750 
Q 2819 4750 3233 4129 
Q 3647 3509 3647 2328 
Q 3647 1150 3233 529 
Q 2819 -91 2034 -91 
Q 1250 -91 836 529 
Q 422 1150 422 2328 
Q 422 3509 836 4129 
Q 1250 4750 2034 4750 
z
" transform="scale(0.015625)"/>
        <path id="DejaVuSans-34" d="M 2419 4116 
L 825 1625 
L 2419 1625 
L 2419 4116 
z
M 2253 4666 
L 3047 4666 
L 3047 1625 
L 3713 1625 
L 3713 1100 
L 3047 1100 
L 3047 0 
L 2419 0 
L 2419 1100 
L 313 1100 
L 313 1709 
L 2253 4666 
z
" transform="scale(0.015625)"/>
        <path id="DejaVuSans-2d" d="M 313 2009 
L 1997 2009 
L 1997 1497 
L 313 1497 
L 313 2009 
z
" transform="scale(0.015625)"/>
        <path id="DejaVuSans-31" d="M 794 531 
L 1825 531 
L 1825 4091 
L 703 3866 
L 703 4441 
L 1819 4666 
L 2450 4666 
L 2450 531 
L 3481 531 
L 3481 0 
L 794 0 
L 794 531 
z
" transform="scale(0.015625)"/>
       </defs>
       <use xlink:href="#DejaVuSans-32"/>
       <use xlink:href="#DejaVuSans-30" transform="translate(63.623047 0)"/>
       <use xlink:href="#DejaVuSans-32" transform="translate(127.246094 0)"/>
       <use xlink:href="#DejaVuSans-34" transform="translate(190.869141 0)"/>
       <use xlink:href="#DejaVuSans-2d" transform="translate(254.492188 0)"/>
       <use xlink:href="#DejaVuSans-30" transform="translate(290.576172 0)"/>
       <use xlink:href="#DejaVuSans-31" transform="translate(354.199219 0)"/>
      </g>
     </g>
    </g>
    <g id="xtick_2">
     <g id="line2d_3">
      <path d="M 204.153271 529.1575 
L 204.153271 39.3575 
" clip-path="url(#pd65a56e579)" style="fill: none; stroke-dasharray: 1.85,0.8; stroke-dashoffset: 0; stroke: #b0b0b0; stroke-width: 0.5"/>
     </g>
     <g id="line2d_4">
      <g>
       <use xlink:href="#m2a01808e4b" x="204.153271" y="529.1575" style="stroke: #000000; stroke-width: 0.8"/>
      </g>
     </g>
     <g id="text_2">
      <!-- 2024-04 -->
      <g transform="translate(183.261864 543.755937) scale(0.1 -0.1)">
       <use xlink:href="#DejaVuSans-32"/>
       <use xlink:href="#DejaVuSans-30" transform="translate(63.623047 0)"/>
       <use xlink:href="#DejaVuSans-32" transform="translate(127.246094 0)"/>
       <use xlink:href="#DejaVuSans-34" transform="translate(190.869141 0)"/>
       <use xlink:href="#DejaVuSans-2d" transform="translate(254.492188 0)"/>
       <use xlink:href="#DejaVuSans-30" transform="translate(290.576172 0)"/>
       <use xlink:href="#DejaVuSans-34" transform="translate(354.199219 0)"/>
      </g>
     </g>
    </g>
    <g id="xtick_3">
     <g id="line2d_5">
      <path d="M 328.262312 529.1575 
L 328.262312 39.3575 
" clip-path="url(#pd65a56e579)" style="fill: none; stroke-dasharray: 1.85,0.8; stroke-dashoffset: 0; stroke: #b0b0b0; stroke-width: 0.5"/>
     </g>
     <g id="line2d_6">
      <g>
       <use xlink:href="#m2a01808e4b" x="328.262312" y="529.1575" style="stroke: #000000; stroke-width: 0.8"/>
      </g>
     </g>
     <g id="text_3">
      <!-- 2024-07 -->
      <g transform="translate(307.370905 543.755937) scale(0.1 -0.1)">
       <defs>
        <path id="DejaVuSans-37" d="M 525 4666 
L 3525 4666 
L 3525 4397 
L 1831 0 
L 1172 0 
L 2766 4134 
L 525 4134 
L 525 4666 
z
" transform="scale(0.015625)"/>
       </defs>
       <use xlink:href="#DejaVuSans-32"/>
       <use xlink:href="#DejaVuSans-30" transform="translate(63.623047 0)"/>
       <use xlink:href="#DejaVuSans-32" transform="translate(127.246094 0)"/>
       <use xlink:href="#DejaVuSans-34" transform="translate(190.869141 0)"/>
       <use xlink:href="#DejaVuSans-2d" transform="translate(254.492188 0)"/>
       <use xlink:href="#DejaVuSans-30" transform="translate(290.576172 0)"/>
       <use xlink:href="#DejaVuSans-37" transform="translate(354.199219 0)"/>
      </g>
     </g>
    </g>
    <g id="xtick_4">
     <g id="line2d_7">
      <path d="M 453.735188 529.1575 
L 453.735188 39.3575 
" clip-path="url(#pd65a56e579)" style="fill: none; stroke-dasharray: 1.85,0.8; stroke-dashoffset: 0; stroke: #b0b0b0; stroke-width: 0.5"/>
     </g>
     <g id="line2d_8">
      <g>
       <use xlink:href="#m2a01808e4b" x="453.735188" y="529.1575" style="stroke: #000000; stroke-width: 0.8"/>
      </g>
     </g>
     <g id="text_4">
      <!-- 2024-10 -->
      <g transform="translate(432.843782 543.755937) scale(0.1 -0.1)">
       <use xlink:href="#DejaVuSans-32"/>
       <use xlink:href="#DejaVuSans-30" transform="translate(63.623047 0)"/>
       <use xlink:href="#DejaVuSans-32" transform="translate(127.246094 0)"/>
       <use xlink:href="#DejaVuSans-34" transform="translate(190.869141 0)"/>
       <use xlink:href="#DejaVuSans-2d" transform="translate(254.492188 0)"/>
       <use xlink:href="#DejaVuSans-31" transform="translate(290.576172 0)"/>
       <use xlink:href="#DejaVuSans-30" transform="translate(354.199219 0)"/>
      </g>
     </g>
    </g>
    <g id="xtick_5">
     <g id="line2d_9">
      <path d="M 579.208065 529.1575 
L 579.208065 39.3575 
" clip-path="url(#pd65a56e579)" style="fill: none; stroke-dasharray: 1.85,0.8; stroke-dashoffset: 0; stroke: #b0b0b0; stroke-width: 0.5"/>
     </g>
     <g id="line2d_10">
      <g>
       <use xlink:href="#m2a01808e4b" x="579.208065" y="529.1575" style="stroke: #000000; stroke-width: 0.8"/>
      </g>
     </g>
     <g id="text_5">
      <!-- 2025-01 -->
      <g transform="translate(558.316659 543.755937) scale(0.1 -0.1)">
       <defs>
        <path id="DejaVuSans-35" d="M 691 4666 
L 3169 4666 
L 3169 4134 
L 1269 4134 
L 1269 2991 
Q 1406 3038 1543 3061 
Q 1681 3084 1819 3084 
Q 2600 3084 3056 2656 
Q 3513 2228 3513 1497 
Q 3513 744 3044 326 
Q 2575 -91 1722 -91 
Q 1428 -91 1123 -41 
Q 819 9 494 109 
L 494 744 
Q 775 591 1075 516 
Q 1375 441 1709 441 
Q 2250 441 2565 725 
Q 2881 1009 2881 1497 
Q 2881 1984 2565 2268 
Q 2250 2553 1709 2553 
Q 1456 2553 1204 2497 
Q 953 2441 691 2322 
L 691 4666 
z
" transform="scale(0.015625)"/>
       </defs>
       <use xlink:href="#DejaVuSans-32"/>
       <use xlink:href="#DejaVuSans-30" transform="translate(63.623047 0)"/>
       <use xlink:href="#DejaVuSans-32" transform="translate(127.246094 0)"/>
       <use xlink:href="#DejaVuSans-35" transform="translate(190.869141 0)"/>
       <use xlink:href="#DejaVuSans-2d" transform="translate(254.492188 0)"/>
       <use xlink:href="#DejaVuSans-30" transform="translate(290.576172 0)"/>
       <use xlink:href="#DejaVuSans-31" transform="translate(354.199219 0)"/>
      </g>
     </g>
    </g>
    <g id="xtick_6">
     <g id="line2d_11">
      <path d="M 701.953271 529.1575 
L 701.953271 39.3575 
" clip-path="url(#pd65a56e579)" style="fill: none; stroke-dasharray: 1.85,0.8; stroke-dashoffset: 0; stroke: #b0b0b0; stroke-width: 0.5"/>
     </g>
     <g id="line2d_12">
      <g>
       <use xlink:href="#m2a01808e4b" x="701.953271" y="529.1575" style="stroke: #000000; stroke-width: 0.8"/>
      </g>
     </g>
     <g id="text_6">
      <!-- 2025-04 -->
      <g transform="translate(681.061864 543.755937) scale(0.1 -0.1)">
       <use xlink:href="#DejaVuSans-32"/>
       <use xlink:href="#DejaVuSans-30" transform="translate(63.623047 0)"/>
       <use xlink:href="#DejaVuSans-32" transform="translate(127.246094 0)"/>
       <use xlink:href="#DejaVuSans-35" transform="translate(190.869141 0)"/>
       <use xlink:href="#DejaVuSans-2d" transform="translate(254.492188 0)"/>
       <use xlink:href="#DejaVuSans-30" transform="translate(290.576172 0)"/>
       <use xlink:href="#DejaVuSans-34" transform="translate(354.199219 0)"/>
      </g>
     </g>
    </g>
    <g id="xtick_7">
     <g id="line2d_13">
      <path d="M 826.062312 529.1575 
L 826.062312 39.3575 
" clip-path="url(#pd65a56e579)" style="fill: none; stroke-dasharray: 1.85,0.8; stroke-dashoffset: 0; stroke: #b0b0b0; stroke-width: 0.5"/>
     </g>
     <g id="line2d_14">
      <g>
       <use xlink:href="#m2a01808e4b" x="826.062312" y="529.1575" style="stroke: #000000; stroke-width: 0.8"/>
      </g>
     </g>
     <g id="text_7">
      <!-- 2025-07 -->
      <g transform="translate(805.170905 543.755937) scale(0.1 -0.1)">
       <use xlink:href="#DejaVuSans-32"/>
       <use xlink:href="#DejaVuSans-30" transform="translate(63.623047 0)"/>
       <use xlink:href="#DejaVuSans-32" transform="translate(127.246094 0)"/>
       <use xlink:href="#DejaVuSans-35" transform="translate(190.869141 0)"/>
       <use xlink:href="#DejaVuSans-2d" transform="translate(254.492188 0)"/>
       <use xlink:href="#DejaVuSans-30" transform="translate(290.576172 0)"/>
       <use xlink:href="#DejaVuSans-37" transform="translate(354.199219 0)"/>
      </g>
     </g>
    </g>
    <g id="xtick_8">
     <g id="line2d_15">
      <path d="M 951.535188 529.1575 
L 951.535188 39.3575 
" clip-path="url(#pd65a56e579)" style="fill: none; stroke-dasharray: 1.85,0.8; stroke-dashoffset: 0; stroke: #b0b0b0; stroke-width: 0.5"/>
     </g>
     <g id="line2d_16">
      <g>
       <use xlink:href="#m2a01808e4b" x="951.535188" y="529.1575" style="stroke: #000000; stroke-width: 0.8"/>
      </g>
     </g>
     <g id="text_8">
      <!-- 2025-10 -->
      <g transform="translate(930.643782 543.755937) scale(0.1 -0.1)">
       <use xlink:href="#DejaVuSans-32"/>
       <use xlink:href="#DejaVuSans-30" transform="translate(63.623047 0)"/>
       <use xlink:href="#DejaVuSans-32" transform="translate(127.246094 0)"/>
       <use xlink:href="#DejaVuSans-35" transform="translate(190.869141 0)"/>
       <use xlink:href="#DejaVuSans-2d" transform="translate(254.492188 0)"/>
       <use xlink:href="#DejaVuSans-31" transform="translate(290.576172 0)"/>
       <use xlink:href="#DejaVuSans-30" transform="translate(354.199219 0)"/>
      </g>
     </g>
    </g>
    <g id="xtick_9">
     <g id="line2d_17">
      <path d="M 1077.008065 529.1575 
L 1077.008065 39.3575 
" clip-path="url(#pd65a56e579)" style="fill: none; stroke-dasharray: 1.85,0.8; stroke-dashoffset: 0; stroke: #b0b0b0; stroke-width: 0.5"/>
     </g>
     <g id="line2d_18">
      <g>
       <use xlink:href="#m2a01808e4b" x="1077.008065" y="529.1575" style="stroke: #000000; stroke-width: 0.8"/>
      </g>
     </g>
     <g id="text_9">
      <!-- 2026-01 -->
      <g transform="translate(1056.116659 543.755937) scale(0.1 -0.1)">
       <defs>
        <path id="DejaVuSans-36" d="M 2113 2584 
Q 1688 2584 1439 2293 
Q 1191 2003 1191 1497 
Q 1191 994 1439 701 
Q 1688 409 2113 409 
Q 2538 409 2786 701 
Q 3034 994 3034 1497 
Q 3034 2003 2786 2293 
Q 2538 2584 2113 2584 
z
M 3366 4563 
L 3366 3988 
Q 3128 4100 2886 4159 
Q 2644 4219 2406 4219 
Q 1781 4219 1451 3797 
Q 1122 3375 1075 2522 
Q 1259 2794 1537 2939 
Q 1816 3084 2150 3084 
Q 2853 3084 3261 2657 
Q 3669 2231 3669 1497 
Q 3669 778 3244 343 
Q 2819 -91 2113 -91 
Q 1303 -91 875 529 
Q 447 1150 447 2328 
Q 447 3434 972 4092 
Q 1497 4750 2381 4750 
Q 2619 4750 2861 4703 
Q 3103 4656 3366 4563 
z
" transform="scale(0.015625)"/>
       </defs>
       <use xlink:href="#DejaVuSans-32"/>
       <use xlink:href="#DejaVuSans-30" transform="translate(63.623047 0)"/>
       <use xlink:href="#DejaVuSans-32" transform="translate(127.246094 0)"/>
       <use xlink:href="#DejaVuSans-36" transform="translate(190.869141 0)"/>
       <use xlink:href="#DejaVuSans-2d" transform="translate(254.492188 0)"/>
       <use xlink:href="#DejaVuSans-30" transform="translate(290.576172 0)"/>
       <use xlink:href="#DejaVuSans-31" transform="translate(354.199219 0)"/>
      </g>
     </g>
    </g>
    <g id="text_10">
     <!-- Date -->
     <g transform="translate(575.777813 558.95375) scale(0.12 -0.12)">
      <defs>
       <path id="DejaVuSans-44" d="M 1259 4147 
L 1259 519 
L 2022 519 
Q 2988 519 3436 956 
Q 3884 1394 3884 2338 
Q 3884 3275 3436 3711 
Q 2988 4147 2022 4147 
L 1259 4147 
z
M 628 4666 
L 1925 4666 
Q 3281 4666 3915 4102 
Q 4550 3538 4550 2338 
Q 4550 1131 3912 565 
Q 3275 0 1925 0 
L 628 0 
L 628 4666 
z
" transform="scale(0.015625)"/>
       <path id="DejaVuSans-61" d="M 2194 1759 
Q 1497 1759 1228 1600 
Q 959 1441 959 1056 
Q 959 750 1161 570 
Q 1363 391 1709 391 
Q 2188 391 2477 730 
Q 2766 1069 2766 1631 
L 2766 1759 
L 2194 1759 
z
M 3341 1997 
L 3341 0 
L 2766 0 
L 2766 531 
Q 2569 213 2275 61 
Q 1981 -91 1556 -91 
Q 1019 -91 701 211 
Q 384 513 384 1019 
Q 384 1609 779 1909 
Q 1175 2209 1959 2209 
L 2766 2209 
L 2766 2266 
Q 2766 2663 2505 2880 
Q 2244 3097 1772 3097 
Q 1472 3097 1187 3025 
Q 903 2953 641 2809 
L 641 3341 
Q 956 3463 1253 3523 
Q 1550 3584 1831 3584 
Q 2591 3584 2966 3190 
Q 3341 2797 3341 1997 
z
" transform="scale(0.015625)"/>
       <path id="DejaVuSans-74" d="M 1172 4494 
L 1172 3500 
L 2356 3500 
L 2356 3053 
L 1172 3053 
L 1172 1153 
Q 1172 725 1289 603 
Q 1406 481 1766 481 
L 2356 481 
L 2356 0 
L 1766 0 
Q 1100 0 847 248 
Q 594 497 594 1153 
L 594 3053 
L 172 3053 
L 172 3500 
L 594 3500 
L 594 4494 
L 1172 4494 
z
" transform="scale(0.015625)"/>
       <path id="DejaVuSans-65" d="M 3597 1894 
L 3597 1613 
L 953 1613 
Q 991 1019 1311 708 
Q 1631 397 2203 397 
Q 2534 397 2845 478 
Q 3156 559 3463 722 
L 3463 178 
Q 3153 47 2828 -22 
Q 2503 -91 2169 -91 
Q 1331 -91 842 396 
Q 353 884 353 1716 
Q 353 2575 817 3079 
Q 1281 3584 2069 3584 
Q 2775 3584 3186 3129 
Q 3597 2675 3597 1894 
z
M 3022 2063 
Q 3016 2534 2758 2815 
Q 2500 3097 2075 3097 
Q 1594 3097 1305 2825 
Q 1016 2553 972 2059 
L 3022 2063 
z
" transform="scale(0.015625)"/>
      </defs>
      <use xlink:href="#DejaVuSans-44"/>
      <use xlink:href="#DejaVuSans-61" transform="translate(77.001953 0)"/>
      <use xlink:href="#DejaVuSans-74" transform="translate(138.28125 0)"/>
      <use xlink:href="#DejaVuSans-65" transform="translate(177.490234 0)"/>
     </g>
    </g>
   </g>
   <g id="matplotlib.axis_2">
    <g id="ytick_1">
     <g id="line2d_19">
      <path d="M 42.53875 529.1575 
L 1137.69875 529.1575 
" clip-path="url(#pd65a56e579)" style="fill: none; stroke-dasharray: 1.85,0.8; stroke-dashoffset: 0; stroke: #b0b0b0; stroke-width: 0.5"/>
     </g>
     <g id="line2d_20">
      <defs>
       <path id="mce0b7cd008" d="M 0 0 
L -3.5 0 
" style="stroke: #000000; stroke-width: 0.8"/>
      </defs>
      <g>
       <use xlink:href="#mce0b7cd008" x="42.53875" y="529.1575" style="stroke: #000000; stroke-width: 0.8"/>
      </g>
     </g>
     <g id="text_11">
      <!-- 0 -->
      <g transform="translate(29.17625 532.956719) scale(0.1 -0.1)">
       <use xlink:href="#DejaVuSans-30"/>
      </g>
     </g>
    </g>
    <g id="ytick_2">
     <g id="line2d_21">
      <path d="M 42.53875 444.068123 
L 1137.69875 444.068123 
" clip-path="url(#pd65a56e579)" style="fill: none; stroke-dasharray: 1.85,0.8; stroke-dashoffset: 0; stroke: #b0b0b0; stroke-width: 0.5"/>
     </g>
     <g id="line2d_22">
      <g>
       <use xlink:href="#mce0b7cd008" x="42.53875" y="444.068123" style="stroke: #000000; stroke-width: 0.8"/>
      </g>
     </g>
     <g id="text_12">
      <!-- 10 -->
      <g transform="translate(22.81375 447.867341) scale(0.1 -0.1)">
       <use xlink:href="#DejaVuSans-31"/>
       <use xlink:href="#DejaVuSans-30" transform="translate(63.623047 0)"/>
      </g>
     </g>
    </g>
    <g id="ytick_3">
     <g id="line2d_23">
      <path d="M 42.53875 358.978745 
L 1137.69875 358.978745 
" clip-path="url(#pd65a56e579)" style="fill: none; stroke-dasharray: 1.85,0.8; stroke-dashoffset: 0; stroke: #b0b0b0; stroke-width: 0.5"/>
     </g>
     <g id="line2d_24">
      <g>
       <use xlink:href="#mce0b7cd008" x="42.53875" y="358.978745" style="stroke: #000000; stroke-width: 0.8"/>
      </g>
     </g>
     <g id="text_13">
      <!-- 20 -->
      <g transform="translate(22.81375 362.777964) scale(0.1 -0.1)">
       <use xlink:href="#DejaVuSans-32"/>
       <use xlink:href="#DejaVuSans-30" transform="translate(63.623047 0)"/>
      </g>
     </g>
    </g>
    <g id="ytick_4">
     <g id="line2d_25">
      <path d="M 42.53875 273.889368 
L 1137.69875 273.889368 
" clip-path="url(#pd65a56e579)" style="fill: none; stroke-dasharray: 1.85,0.8; stroke-dashoffset: 0; stroke: #b0b0b0; stroke-width: 0.5"/>
     </g>
     <g id="line2d_26">
      <g>
       <use xlink:href="#mce0b7cd008" x="42.53875" y="273.889368" style="stroke: #000000; stroke-width: 0.8"/>
      </g>
     </g>
     <g id="text_14">
      <!-- 30 -->
      <g transform="translate(22.81375 277.688587) scale(0.1 -0.1)">
       <defs>
        <path id="DejaVuSans-33" d="M 2597 2516 
Q 3050 2419 3304 2112 
Q 3559 1806 3559 1356 
Q 3559 666 3084 287 
Q 2609 -91 1734 -91 
Q 1441 -91 1130 -33 
Q 819 25 488 141 
L 488 750 
Q 750 597 1062 519 
Q 1375 441 1716 441 
Q 2309 441 2620 675 
Q 2931 909 2931 1356 
Q 2931 1769 2642 2001 
Q 2353 2234 1838 2234 
L 1294 2234 
L 1294 2753 
L 1863 2753 
Q 2328 2753 2575 2939 
Q 2822 3125 2822 3475 
Q 2822 3834 2567 4026 
Q 2313 4219 1838 4219 
Q 1578 4219 1281 4162 
Q 984 4106 628 3988 
L 628 4550 
Q 988 4650 1302 4700 
Q 1616 4750 1894 4750 
Q 2613 4750 3031 4423 
Q 3450 4097 3450 3541 
Q 3450 3153 3228 2886 
Q 3006 2619 2597 2516 
z
" transform="scale(0.015625)"/>
       </defs>
       <use xlink:href="#DejaVuSans-33"/>
       <use xlink:href="#DejaVuSans-30" transform="translate(63.623047 0)"/>
      </g>
     </g>
    </g>
    <g id="ytick_5">
     <g id="line2d_27">
      <path d="M 42.53875 188.799991 
L 1137.69875 188.799991 
" clip-path="url(#pd65a56e579)" style="fill: none; stroke-dasharray: 1.85,0.8; stroke-dashoffset: 0; stroke: #b0b0b0; stroke-width: 0.5"/>
     </g>
     <g id="line2d_28">
      <g>
       <use xlink:href="#mce0b7cd008" x="42.53875" y="188.799991" style="stroke: #000000; stroke-width: 0.8"/>
      </g>
     </g>
     <g id="text_15">
      <!-- 40 -->
      <g transform="translate(22.81375 192.599209) scale(0.1 -0.1)">
       <use xlink:href="#DejaVuSans-34"/>
       <use xlink:href="#DejaVuSans-30" transform="translate(63.623047 0)"/>
      </g>
     </g>
    </g>
    <g id="ytick_6">
     <g id="line2d_29">
      <path d="M 42.53875 103.710613 
L 1137.69875 103.710613 
" clip-path="url(#pd65a56e579)" style="fill: none; stroke-dasharray: 1.85,0.8; stroke-dashoffset: 0; stroke: #b0b0b0; stroke-width: 0.5"/>
     </g>
     <g id="line2d_30">
      <g>
       <use xlink:href="#mce0b7cd008" x="42.53875" y="103.710613" style="stroke: #000000; stroke-width: 0.8"/>
      </g>
     </g>
     <g id="text_16">
      <!-- 50 -->
      <g transform="translate(22.81375 107.509832) scale(0.1 -0.1)">
       <use xlink:href="#DejaVuSans-35"/>
       <use xlink:href="#DejaVuSans-30" transform="translate(63.623047 0)"/>
      </g>
     </g>
    </g>
    <g id="text_17">
     <!-- VIX Value -->
     <g transform="translate(16.318125 312.62625) rotate(-90) scale(0.12 -0.12)">
      <defs>
       <path id="DejaVuSans-56" d="M 1831 0 
L 50 4666 
L 709 4666 
L 2188 738 
L 3669 4666 
L 4325 4666 
L 2547 0 
L 1831 0 
z
" transform="scale(0.015625)"/>
       <path id="DejaVuSans-49" d="M 628 4666 
L 1259 4666 
L 1259 0 
L 628 0 
L 628 4666 
z
" transform="scale(0.015625)"/>
       <path id="DejaVuSans-58" d="M 403 4666 
L 1081 4666 
L 2241 2931 
L 3406 4666 
L 4084 4666 
L 2584 2425 
L 4184 0 
L 3506 0 
L 2194 1984 
L 872 0 
L 191 0 
L 1856 2491 
L 403 4666 
z
" transform="scale(0.015625)"/>
       <path id="DejaVuSans-20" transform="scale(0.015625)"/>
       <path id="DejaVuSans-6c" d="M 603 4863 
L 1178 4863 
L 1178 0 
L 603 0 
L 603 4863 
z
" transform="scale(0.015625)"/>
       <path id="DejaVuSans-75" d="M 544 1381 
L 544 3500 
L 1119 3500 
L 1119 1403 
Q 1119 906 1312 657 
Q 1506 409 1894 409 
Q 2359 409 2629 706 
Q 2900 1003 2900 1516 
L 2900 3500 
L 3475 3500 
L 3475 0 
L 2900 0 
L 2900 538 
Q 2691 219 2414 64 
Q 2138 -91 1772 -91 
Q 1169 -91 856 284 
Q 544 659 544 1381 
z
M 1991 3584 
L 1991 3584 
z
" transform="scale(0.015625)"/>
      </defs>
      <use xlink:href="#DejaVuSans-56"/>
      <use xlink:href="#DejaVuSans-49" transform="translate(68.408203 0)"/>
      <use xlink:href="#DejaVuSans-58" transform="translate(97.900391 0)"/>
      <use xlink:href="#DejaVuSans-20" transform="translate(166.40625 0)"/>
      <use xlink:href="#DejaVuSans-56" transform="translate(198.193359 0)"/>
      <use xlink:href="#DejaVuSans-61" transform="translate(258.851562 0)"/>
      <use xlink:href="#DejaVuSans-6c" transform="translate(320.130859 0)"/>
      <use xlink:href="#DejaVuSans-75" transform="translate(347.914062 0)"/>
      <use xlink:href="#DejaVuSans-65" transform="translate(411.292969 0)"/>
     </g>
    </g>
   </g>
   <g id="line2d_31">
    <path d="M 42.53875 273.889368 
L 1137.69875 273.889368 
" clip-path="url(#pd65a56e579)" style="fill: none; stroke-dasharray: 11.1,4.8; stroke-dashoffset: 0; stroke: #8b0000; stroke-opacity: 0.8; stroke-width: 3"/>
   </g>
   <g id="line2d_32">
    <path d="M 1087.91875 529.1575 
L 1087.91875 39.3575 
" clip-path="url(#pd65a56e579)" style="fill: none; stroke-dasharray: 2,3.3; stroke-dashoffset: 0; stroke: #808080; stroke-width: 2"/>
   </g>
   <g id="line2d_33">
    <path d="M 92.31875 421.179084 
L 93.682586 423.306318 
L 95.046421 421.093992 
L 100.501764 411.3938 
L 101.865599 403.310311 
L 103.229435 408.926209 
L 104.593271 415.988626 
L 108.684777 416.924615 
L 110.048613 422.37033 
L 111.412449 417.350055 
L 112.776284 414.712289 
L 114.14012 416.328984 
L 118.231627 413.435944 
L 119.595462 415.903535 
L 120.959298 407.05424 
L 122.323134 411.053443 
L 123.686969 411.308709 
L 127.778476 412.840321 
L 129.142312 418.03077 
L 130.506147 419.98783 
L 131.869983 420.328187 
L 133.233818 419.136932 
L 137.325325 410.627995 
L 138.689161 394.290834 
L 140.052997 406.798974 
L 141.416832 409.94728 
L 142.780668 407.990229 
L 148.23601 397.949679 
L 149.599846 398.630394 
L 152.327517 412.159606 
L 156.419024 412.244697 
L 157.78286 414.882464 
L 159.146695 411.3938 
L 160.510531 415.137738 
L 161.874366 417.605329 
L 165.965873 414.371932 
L 167.329709 406.11826 
L 168.693545 405.777903 
L 170.05738 406.288443 
L 171.421216 403.73576 
L 175.512723 399.651465 
L 176.876558 411.3938 
L 178.240394 412.159606 
L 179.604229 406.6288 
L 180.968065 406.543709 
L 185.059572 407.224423 
L 186.423408 411.563983 
L 187.787243 418.200952 
L 189.151079 419.222024 
L 190.514914 418.03077 
L 195.970257 416.499166 
L 197.334092 420.413278 
L 198.697928 418.456218 
L 204.153271 413.010503 
L 205.517106 404.841923 
L 206.880942 407.224423 
L 208.244777 390.036365 
L 209.608613 392.759222 
L 213.70012 399.906739 
L 215.063955 401.693617 
L 216.427791 394.716282 
L 217.791627 402.28924 
L 219.155462 381.867792 
L 223.246969 365.530631 
L 224.610805 372.593049 
L 227.338476 375.996621 
L 228.702312 369.955283 
L 232.793818 385.01609 
L 234.157654 395.652271 
L 235.52149 393.269762 
L 236.885325 398.375128 
L 238.249161 401.268168 
L 242.340668 404.331383 
L 243.704503 395.992628 
L 245.068339 398.204945 
L 246.432175 404.246291 
L 247.79601 414.371932 
L 251.887517 414.371932 
L 253.251353 416.584258 
L 254.615188 418.541309 
L 255.979024 421.179084 
L 257.34286 422.37033 
L 261.434366 413.435944 
L 262.798202 414.967555 
L 264.162038 423.221227 
L 265.525873 423.476493 
L 266.889709 427.135339 
L 270.981216 425.77391 
L 272.345051 428.241501 
L 273.708887 424.582656 
L 275.072723 420.498361 
L 276.436558 427.64587 
L 281.891901 419.222024 
L 283.255736 407.649871 
L 284.619572 406.033169 
L 285.983408 419.222024 
L 291.43875 417.179881 
L 292.802586 421.689615 
L 294.166421 422.115064 
L 295.530257 425.178279 
L 299.621764 420.753635 
L 300.985599 419.817647 
L 302.349435 426.70989 
L 303.713271 427.560787 
L 305.077106 421.43435 
L 309.168613 420.668544 
L 310.532449 424.497564 
L 313.26012 416.158809 
L 314.623955 416.839524 
L 318.715462 415.733361 
L 320.079298 419.902738 
L 322.806969 425.008104 
L 324.170805 423.306318 
L 328.262312 425.178279 
L 329.626147 426.794981 
L 330.989983 426.284441 
L 333.717654 422.965961 
L 337.809161 423.901941 
L 339.172997 422.710687 
L 340.536832 419.817647 
L 341.900668 419.222024 
L 343.264503 423.136135 
L 347.35601 417.520238 
L 348.719846 416.924615 
L 350.083682 405.948085 
L 351.447517 393.610119 
L 352.811353 388.589845 
L 356.90286 402.28924 
L 358.266695 403.905934 
L 359.630531 375.656255 
L 360.994366 372.082517 
L 362.358202 389.696016 
L 366.449709 387.90913 
L 367.813545 378.634387 
L 369.17738 389.951273 
L 370.541216 370.976346 
L 371.905051 330.133452 
L 375.996558 200.967774 
L 377.360394 293.374843 
L 378.724229 292.183581 
L 380.088065 326.729863 
L 381.451901 355.830431 
L 385.543408 352.937407 
L 386.907243 374.975541 
L 388.271079 391.397794 
L 389.634914 399.566382 
L 390.99875 403.22522 
L 395.090257 404.501565 
L 396.454092 394.035568 
L 397.817928 390.717079 
L 399.181764 379.825649 
L 400.545599 394.20575 
L 404.637106 391.738159 
L 406.000942 397.864588 
L 407.364777 383.56957 
L 408.728613 395.992628 
L 410.092449 401.523434 
L 415.547791 352.852316 
L 416.911627 347.74695 
L 418.275462 359.829642 
L 419.639298 338.727481 
L 423.730805 363.658655 
L 425.09464 366.806969 
L 426.458476 378.634387 
L 427.822312 383.909935 
L 429.186147 388.249496 
L 433.277654 383.314312 
L 434.64149 379.315101 
L 436.005325 374.039569 
L 437.369161 390.206547 
L 438.732997 391.738159 
L 442.824503 393.950476 
L 444.188339 398.204945 
L 445.552175 398.034771 
L 446.91601 398.375128 
L 448.279846 384.845924 
L 452.371353 386.802976 
L 453.735188 365.275357 
L 455.099024 368.33858 
L 456.46286 354.809368 
L 457.826695 365.700814 
L 461.918202 336.515155 
L 463.282038 346.896053 
L 464.645873 351.661054 
L 466.009709 351.065431 
L 467.373545 355.064642 
L 471.465051 361.53142 
L 472.828887 353.53303 
L 474.192723 362.5525 
L 475.556558 366.551695 
L 476.920394 375.741347 
L 481.011901 372.848307 
L 482.375736 374.294827 
L 483.739572 365.44554 
L 485.103408 366.806969 
L 486.467243 356.170796 
L 490.55875 360.680539 
L 491.922586 364.594643 
L 493.286421 356.000614 
L 494.650257 332.090503 
L 496.014092 342.981949 
L 500.105599 342.131052 
L 501.469435 354.809368 
L 502.833271 390.717079 
L 504.197106 399.821648 
L 505.560942 402.033974 
L 509.652449 401.7787 
L 511.016284 403.991026 
L 512.38012 409.862189 
L 513.743955 407.394597 
L 515.107791 391.82325 
L 519.199298 396.588251 
L 521.926969 383.14413 
L 523.290805 385.611713 
L 524.65464 399.481291 
L 528.746147 404.927006 
L 530.109983 409.181475 
L 531.473818 409.181475 
L 534.20149 414.201749 
L 538.292997 415.648269 
L 539.656832 415.988626 
L 541.020668 414.712289 
L 542.384503 413.946483 
L 543.748339 420.498361 
L 547.839846 408.415677 
L 549.203682 408.50076 
L 550.567517 413.606126 
L 551.931353 410.713086 
L 553.295188 411.649066 
L 557.386695 404.161208 
L 558.750531 394.120659 
L 560.114366 294.140633 
L 561.478202 324.177189 
L 562.842038 372.933398 
L 566.933545 386.377519 
L 568.29738 407.734955 
L 571.025051 403.820851 
L 572.388887 393.439945 
L 576.480394 381.101987 
L 577.844229 381.527427 
L 580.571901 376.592244 
L 581.935736 391.908341 
L 586.027243 392.674131 
L 587.391079 377.528232 
L 588.754914 378.549296 
L 591.482586 362.892849 
L 595.574092 365.87098 
L 596.937928 369.955283 
L 598.301764 391.993417 
L 599.665599 387.90913 
L 601.029435 393.269762 
L 606.484777 401.012894 
L 607.848613 400.672537 
L 609.212449 401.353251 
L 610.576284 402.799771 
L 614.667791 376.847518 
L 616.031627 389.525833 
L 617.395462 388.249496 
L 618.759298 394.375925 
L 620.123134 389.35565 
L 624.21464 370.721072 
L 626.942312 394.971548 
L 628.306147 397.268965 
L 629.669983 388.419662 
L 633.76149 394.631191 
L 635.125325 392.844314 
L 636.489161 393.950476 
L 637.852997 400.672537 
L 639.216832 403.480486 
L 644.672175 398.545303 
L 646.03601 399.226017 
L 647.399846 395.907536 
L 648.763682 374.209752 
L 652.855188 367.657866 
L 654.219024 363.828837 
L 655.58286 366.636786 
L 656.946695 349.363653 
L 658.310531 362.127059 
L 662.402038 335.323893 
L 663.765873 329.112372 
L 665.129709 342.556493 
L 666.493545 317.540211 
L 667.85738 330.303618 
L 671.948887 292.098489 
L 673.312723 300.096896 
L 674.676558 322.985943 
L 676.040394 319.327097 
L 677.404229 343.917922 
L 681.495736 354.639185 
L 682.859572 344.513545 
L 684.223408 359.829642 
L 685.587243 360.680539 
L 686.951079 365.105175 
L 691.042586 380.421272 
L 692.406421 383.229221 
L 693.770257 373.188672 
L 695.134092 370.125449 
L 696.497928 344.939001 
L 700.589435 339.578361 
L 701.953271 343.917922 
L 703.317106 346.130247 
L 704.680942 273.719185 
L 706.044777 143.61752 
L 710.136284 129.407609 
L 711.50012 83.884773 
L 712.863955 243.087022 
L 714.227791 182.673545 
L 715.591627 209.561787 
L 719.683134 266.316419 
L 721.046969 272.868288 
L 722.410805 251.425778 
L 723.77464 276.867499 
L 729.229983 241.385228 
L 730.593818 269.039276 
L 733.32149 303.925924 
L 734.685325 317.795485 
L 738.776832 315.157719 
L 740.140668 323.496474 
L 741.504503 318.986731 
L 742.868339 319.837628 
L 744.232175 336.17479 
L 748.323682 328.006217 
L 749.687517 318.4762 
L 751.051353 328.772023 
L 752.415188 337.876584 
L 753.779024 342.811767 
L 757.870531 372.67814 
L 759.234366 374.12466 
L 760.598202 370.721072 
L 761.962038 377.443141 
L 763.325873 382.463415 
L 767.41738 374.805375 
L 768.781216 375.230815 
L 770.145051 351.575962 
L 771.508887 356.596237 
L 772.872723 339.49327 
L 778.328065 367.828048 
L 779.691901 364.849917 
L 781.055736 365.956072 
L 782.419572 371.146529 
L 786.511079 372.933398 
L 787.874914 378.634387 
L 789.23875 379.315101 
L 790.602586 371.912335 
L 791.966421 386.46261 
L 796.057928 383.14413 
L 797.421764 384.930999 
L 798.785599 382.293233 
L 800.149435 375.826438 
L 801.513271 352.001419 
L 805.604777 366.551695 
L 806.968613 345.364442 
L 808.332449 357.787499 
L 811.06012 353.703197 
L 815.151627 360.425265 
L 816.515462 380.421272 
L 817.879298 386.547702 
L 819.243134 387.994222 
L 820.606969 390.291639 
L 824.698476 386.802976 
L 826.062312 385.952079 
L 827.426147 387.568781 
L 828.789983 389.781107 
L 834.245325 377.78349 
L 835.609161 386.122261 
L 836.972997 393.525036 
L 838.336832 394.886465 
L 839.700668 389.610924 
L 843.792175 382.803764 
L 845.15601 381.272169 
L 846.519846 383.14413 
L 847.883682 388.589845 
L 849.247517 389.525833 
L 853.339024 387.48369 
L 854.70286 388.760027 
L 856.066695 398.375128 
L 857.430531 398.204945 
L 858.794366 402.119057 
L 862.885873 401.268168 
L 864.249709 393.184679 
L 865.613545 397.439148 
L 866.97738 386.888067 
L 868.341216 355.745356 
L 872.432723 380.080907 
L 873.796558 377.272958 
L 875.160394 386.46261 
L 876.524229 388.164404 
L 877.888065 400.247097 
L 881.979572 390.887262 
L 883.343408 403.820851 
L 884.707243 405.862994 
L 886.071079 402.969954 
L 887.434914 400.757628 
L 891.526421 401.608525 
L 892.890257 396.673342 
L 894.254092 395.652271 
L 895.617928 387.90913 
L 896.981764 408.160403 
L 901.073271 403.310311 
L 902.437106 404.756831 
L 903.800942 402.799771 
L 905.164777 406.373526 
L 906.528613 398.460219 
L 911.983955 383.059038 
L 913.347791 390.036365 
L 914.711627 398.970751 
L 916.075462 399.991823 
L 920.166969 400.587454 
L 921.530805 401.183077 
L 922.89464 398.545303 
L 924.258476 403.991026 
L 925.622312 403.565577 
L 929.713818 395.652271 
L 931.077654 389.951273 
L 932.44149 395.396997 
L 933.805325 395.567179 
L 935.169161 397.694414 
L 939.260668 392.163599 
L 940.624503 387.568781 
L 941.988339 391.482885 
L 943.352175 386.717884 
L 944.71601 399.055842 
L 948.807517 391.993417 
L 950.171353 390.631988 
L 951.535188 390.546897 
L 952.899024 387.653873 
L 954.26286 387.48369 
L 958.354366 389.866182 
L 959.718202 382.463415 
L 961.082038 390.461821 
L 962.445873 389.35565 
L 963.809709 344.85391 
L 967.901216 367.232409 
L 969.265051 352.08651 
L 970.628887 353.53303 
L 971.992723 313.79629 
L 973.356558 352.341768 
L 977.448065 374.039569 
L 978.811901 377.102776 
L 980.175736 370.891255 
L 981.539572 381.952884 
L 982.903408 389.866182 
L 986.994914 394.801373 
L 988.35875 389.440742 
L 989.722586 385.186273 
L 991.086421 385.271364 
L 992.450257 380.761621 
L 996.541764 383.059038 
L 997.905599 367.487683 
L 999.269435 375.911529 
L 1000.633271 363.233214 
L 1001.997106 366.806969 
L 1006.088613 379.400193 
L 1007.452449 382.12305 
L 1008.816284 380.165998 
L 1010.18012 358.978745 
L 1011.543955 360.425265 
L 1015.635462 338.727481 
L 1016.999298 319.071823 
L 1018.363134 327.836034 
L 1019.726969 304.351364 
L 1021.090805 329.793086 
L 1025.182312 354.554094 
L 1026.546147 371.23162 
L 1027.909983 382.888856 
M 1030.637654 390.036365 
L 1034.729161 382.463415 
L 1036.092997 387.994222 
L 1037.456832 392.333782 
L 1038.820668 394.886465 
L 1040.184503 398.034771 
L 1044.27601 387.398599 
L 1045.639846 385.101182 
L 1047.003682 394.971548 
L 1048.367517 402.799771 
L 1049.731353 395.226822 
L 1053.82286 388.760027 
L 1055.186695 388.93021 
L 1056.550531 379.23001 
L 1057.914366 385.611713 
L 1059.278202 402.28924 
L 1063.369709 409.351657 
L 1064.733545 410.032372 
L 1066.09738 414.542106 
L 1068.825051 413.435944 
L 1072.916558 408.330586 
L 1074.280394 407.224423 
L 1075.644229 401.948882 
L 1078.371901 405.692812 
L 1082.463408 402.374331 
L 1083.827243 403.650668 
L 1085.191079 398.290037 
L 1086.554914 397.694414 
L 1086.554914 397.694414 
" clip-path="url(#pd65a56e579)" style="fill: none; stroke: #0000ff; stroke-width: 2; stroke-linecap: square"/>
   </g>
   <g id="line2d_34">
    <path d="M 951.535188 336.259882 
L 952.899024 336.089703 
L 954.26286 332.941396 
M 959.718202 327.495676 
L 961.082038 328.857106 
L 962.445873 333.622111 
M 967.901216 310.903247 
L 969.265051 297.374036 
L 970.628887 306.138242 
L 971.992723 296.608232 
L 973.356558 266.146235 
L 977.448065 303.500471 
L 978.811901 310.392711 
L 980.175736 312.519945 
L 981.539572 307.584761 
M 986.994914 316.774414 
L 988.35875 309.541817 
L 989.722586 313.370839 
L 991.086421 309.031281 
L 992.450257 313.881375 
L 996.541764 311.328694 
L 997.905599 306.648778 
L 999.269435 286.822953 
L 1000.633271 301.883773 
L 1001.997106 289.545813 
L 1006.088613 312.519945 
L 1007.452449 307.329493 
L 1008.816284 314.221733 
L 1010.18012 318.561291 
L 1011.543955 301.628505 
L 1015.635462 307.074225 
L 1016.999298 282.057948 
L 1018.363134 290.481797 
L 1019.726969 321.369241 
L 1021.090805 270.91124 
L 1025.182312 287.673847 
L 1026.546147 300.522343 
L 1027.909983 318.901649 
L 1029.273818 326.304424 
L 1030.637654 325.53862 
L 1034.729161 315.072627 
L 1036.092997 322.560492 
L 1037.456832 327.325497 
L 1040.184503 350.044361 
L 1044.27601 356.851511 
L 1045.639846 353.618115 
L 1047.003682 357.702405 
L 1048.367517 352.086506 
L 1049.731353 361.871784 
L 1053.82286 346.555696 
L 1055.186695 347.236411 
L 1056.550531 348.76802 
L 1057.914366 342.811764 
L 1059.278202 352.597042 
L 1063.369709 371.742152 
L 1064.733545 381.782698 
L 1066.09738 384.675737 
L 1068.825051 388.760027 
L 1072.916558 380.931805 
L 1074.280394 376.08171 
L 1075.644229 373.869386 
L 1078.371901 366.892057 
L 1082.463408 343.407389 
L 1083.827243 344.938998 
L 1085.191079 343.407389 
L 1086.554914 348.087305 
L 1087.91875 346.04516 
L 1087.91875 346.04516 
" clip-path="url(#pd65a56e579)" style="fill: none; stroke: #008000; stroke-width: 2; stroke-linecap: square"/>
   </g>
   <g id="patch_7">
    <path d="M 42.53875 529.1575 
L 42.53875 39.3575 
" style="fill: none; stroke: #000000; stroke-width: 0.8; stroke-linejoin: miter; stroke-linecap: square"/>
   </g>
   <g id="patch_8">
    <path d="M 1137.69875 529.1575 
L 1137.69875 39.3575 
" style="fill: none; stroke: #000000; stroke-width: 0.8; stroke-linejoin: miter; stroke-linecap: square"/>
   </g>
   <g id="patch_9">
    <path d="M 42.53875 529.1575 
L 1137.69875 529.1575 
" style="fill: none; stroke: #000000; stroke-width: 0.8; stroke-linejoin: miter; stroke-linecap: square"/>
   </g>
   <g id="patch_10">
    <path d="M 42.53875 39.3575 
L 1137.69875 39.3575 
" style="fill: none; stroke: #000000; stroke-width: 0.8; stroke-linejoin: miter; stroke-linecap: square"/>
   </g>
   <g id="text_18">
    <!--  VERY DANGEROUS THRESHOLD -->
    <g style="fill: #8b0000" transform="translate(92.31875 267.555212) scale(0.1 -0.1)">
     <defs>
      <path id="DejaVuSans-Bold-20" transform="scale(0.015625)"/>
      <path id="DejaVuSans-Bold-56" d="M 31 4666 
L 1241 4666 
L 2478 1222 
L 3713 4666 
L 4922 4666 
L 3194 0 
L 1759 0 
L 31 4666 
z
" transform="scale(0.015625)"/>
      <path id="DejaVuSans-Bold-45" d="M 588 4666 
L 3834 4666 
L 3834 3756 
L 1791 3756 
L 1791 2888 
L 3713 2888 
L 3713 1978 
L 1791 1978 
L 1791 909 
L 3903 909 
L 3903 0 
L 588 0 
L 588 4666 
z
" transform="scale(0.015625)"/>
      <path id="DejaVuSans-Bold-52" d="M 2297 2597 
Q 2675 2597 2839 2737 
Q 3003 2878 3003 3200 
Q 3003 3519 2839 3656 
Q 2675 3794 2297 3794 
L 1791 3794 
L 1791 2597 
L 2297 2597 
z
M 1791 1766 
L 1791 0 
L 588 0 
L 588 4666 
L 2425 4666 
Q 3347 4666 3776 4356 
Q 4206 4047 4206 3378 
Q 4206 2916 3982 2619 
Q 3759 2322 3309 2181 
Q 3556 2125 3751 1926 
Q 3947 1728 4147 1325 
L 4800 0 
L 3519 0 
L 2950 1159 
Q 2778 1509 2601 1637 
Q 2425 1766 2131 1766 
L 1791 1766 
z
" transform="scale(0.015625)"/>
      <path id="DejaVuSans-Bold-59" d="M -63 4666 
L 1253 4666 
L 2316 3003 
L 3378 4666 
L 4697 4666 
L 2919 1966 
L 2919 0 
L 1716 0 
L 1716 1966 
L -63 4666 
z
" transform="scale(0.015625)"/>
      <path id="DejaVuSans-Bold-44" d="M 1791 3756 
L 1791 909 
L 2222 909 
Q 2959 909 3348 1275 
Q 3738 1641 3738 2338 
Q 3738 3031 3350 3393 
Q 2963 3756 2222 3756 
L 1791 3756 
z
M 588 4666 
L 1856 4666 
Q 2919 4666 3439 4514 
Q 3959 4363 4331 4000 
Q 4659 3684 4818 3271 
Q 4978 2859 4978 2338 
Q 4978 1809 4818 1395 
Q 4659 981 4331 666 
Q 3956 303 3431 151 
Q 2906 0 1856 0 
L 588 0 
L 588 4666 
z
" transform="scale(0.015625)"/>
      <path id="DejaVuSans-Bold-41" d="M 3419 850 
L 1538 850 
L 1241 0 
L 31 0 
L 1759 4666 
L 3194 4666 
L 4922 0 
L 3713 0 
L 3419 850 
z
M 1838 1716 
L 3116 1716 
L 2478 3572 
L 1838 1716 
z
" transform="scale(0.015625)"/>
      <path id="DejaVuSans-Bold-4e" d="M 588 4666 
L 1931 4666 
L 3628 1466 
L 3628 4666 
L 4769 4666 
L 4769 0 
L 3425 0 
L 1728 3200 
L 1728 0 
L 588 0 
L 588 4666 
z
" transform="scale(0.015625)"/>
      <path id="DejaVuSans-Bold-47" d="M 4781 347 
Q 4331 128 3847 18 
Q 3363 -91 2847 -91 
Q 1681 -91 1000 561 
Q 319 1213 319 2328 
Q 319 3456 1012 4103 
Q 1706 4750 2913 4750 
Q 3378 4750 3804 4662 
Q 4231 4575 4609 4403 
L 4609 3438 
Q 4219 3659 3833 3768 
Q 3447 3878 3059 3878 
Q 2341 3878 1952 3476 
Q 1563 3075 1563 2328 
Q 1563 1588 1938 1184 
Q 2313 781 3003 781 
Q 3191 781 3352 804 
Q 3513 828 3641 878 
L 3641 1784 
L 2906 1784 
L 2906 2591 
L 4781 2591 
L 4781 347 
z
" transform="scale(0.015625)"/>
      <path id="DejaVuSans-Bold-4f" d="M 2719 3878 
Q 2169 3878 1866 3472 
Q 1563 3066 1563 2328 
Q 1563 1594 1866 1187 
Q 2169 781 2719 781 
Q 3272 781 3575 1187 
Q 3878 1594 3878 2328 
Q 3878 3066 3575 3472 
Q 3272 3878 2719 3878 
z
M 2719 4750 
Q 3844 4750 4481 4106 
Q 5119 3463 5119 2328 
Q 5119 1197 4481 553 
Q 3844 -91 2719 -91 
Q 1597 -91 958 553 
Q 319 1197 319 2328 
Q 319 3463 958 4106 
Q 1597 4750 2719 4750 
z
" transform="scale(0.015625)"/>
      <path id="DejaVuSans-Bold-55" d="M 588 4666 
L 1791 4666 
L 1791 1869 
Q 1791 1291 1980 1042 
Q 2169 794 2597 794 
Q 3028 794 3217 1042 
Q 3406 1291 3406 1869 
L 3406 4666 
L 4609 4666 
L 4609 1869 
Q 4609 878 4112 393 
Q 3616 -91 2597 -91 
Q 1581 -91 1084 393 
Q 588 878 588 1869 
L 588 4666 
z
" transform="scale(0.015625)"/>
      <path id="DejaVuSans-Bold-53" d="M 3834 4519 
L 3834 3531 
Q 3450 3703 3084 3790 
Q 2719 3878 2394 3878 
Q 1963 3878 1756 3759 
Q 1550 3641 1550 3391 
Q 1550 3203 1689 3098 
Q 1828 2994 2194 2919 
L 2706 2816 
Q 3484 2659 3812 2340 
Q 4141 2022 4141 1434 
Q 4141 663 3683 286 
Q 3225 -91 2284 -91 
Q 1841 -91 1394 -6 
Q 947 78 500 244 
L 500 1259 
Q 947 1022 1364 901 
Q 1781 781 2169 781 
Q 2563 781 2772 912 
Q 2981 1044 2981 1288 
Q 2981 1506 2839 1625 
Q 2697 1744 2272 1838 
L 1806 1941 
Q 1106 2091 782 2419 
Q 459 2747 459 3303 
Q 459 4000 909 4375 
Q 1359 4750 2203 4750 
Q 2588 4750 2994 4692 
Q 3400 4634 3834 4519 
z
" transform="scale(0.015625)"/>
      <path id="DejaVuSans-Bold-54" d="M 31 4666 
L 4331 4666 
L 4331 3756 
L 2784 3756 
L 2784 0 
L 1581 0 
L 1581 3756 
L 31 3756 
L 31 4666 
z
" transform="scale(0.015625)"/>
      <path id="DejaVuSans-Bold-48" d="M 588 4666 
L 1791 4666 
L 1791 2888 
L 3566 2888 
L 3566 4666 
L 4769 4666 
L 4769 0 
L 3566 0 
L 3566 1978 
L 1791 1978 
L 1791 0 
L 588 0 
L 588 4666 
z
" transform="scale(0.015625)"/>
      <path id="DejaVuSans-Bold-4c" d="M 588 4666 
L 1791 4666 
L 1791 909 
L 3903 909 
L 3903 0 
L 588 0 
L 588 4666 
z
" transform="scale(0.015625)"/>
     </defs>
     <use xlink:href="#DejaVuSans-Bold-20"/>
     <use xlink:href="#DejaVuSans-Bold-56" transform="translate(34.814453 0)"/>
     <use xlink:href="#DejaVuSans-Bold-45" transform="translate(112.207031 0)"/>
     <use xlink:href="#DejaVuSans-Bold-52" transform="translate(180.517578 0)"/>
     <use xlink:href="#DejaVuSans-Bold-59" transform="translate(252.019531 0)"/>
     <use xlink:href="#DejaVuSans-Bold-20" transform="translate(324.431641 0)"/>
     <use xlink:href="#DejaVuSans-Bold-44" transform="translate(359.246094 0)"/>
     <use xlink:href="#DejaVuSans-Bold-41" transform="translate(442.253906 0)"/>
     <use xlink:href="#DejaVuSans-Bold-4e" transform="translate(519.646484 0)"/>
     <use xlink:href="#DejaVuSans-Bold-47" transform="translate(603.337891 0)"/>
     <use xlink:href="#DejaVuSans-Bold-45" transform="translate(685.417969 0)"/>
     <use xlink:href="#DejaVuSans-Bold-52" transform="translate(753.728516 0)"/>
     <use xlink:href="#DejaVuSans-Bold-4f" transform="translate(830.730469 0)"/>
     <use xlink:href="#DejaVuSans-Bold-55" transform="translate(915.740234 0)"/>
     <use xlink:href="#DejaVuSans-Bold-53" transform="translate(996.941406 0)"/>
     <use xlink:href="#DejaVuSans-Bold-20" transform="translate(1068.962891 0)"/>
     <use xlink:href="#DejaVuSans-Bold-54" transform="translate(1103.777344 0)"/>
     <use xlink:href="#DejaVuSans-Bold-48" transform="translate(1171.990234 0)"/>
     <use xlink:href="#DejaVuSans-Bold-52" transform="translate(1255.681641 0)"/>
     <use xlink:href="#DejaVuSans-Bold-45" transform="translate(1332.683594 0)"/>
     <use xlink:href="#DejaVuSans-Bold-53" transform="translate(1400.994141 0)"/>
     <use xlink:href="#DejaVuSans-Bold-48" transform="translate(1473.015625 0)"/>
     <use xlink:href="#DejaVuSans-Bold-4f" transform="translate(1556.707031 0)"/>
     <use xlink:href="#DejaVuSans-Bold-4c" transform="translate(1641.716797 0)"/>
     <use xlink:href="#DejaVuSans-Bold-44" transform="translate(1705.4375 0)"/>
    </g>
   </g>
   <g id="text_19">
    <!-- VIX Indices (Last 2 Years) -->
    <g transform="translate(489.3125 19.3575) scale(0.16 -0.16)">
     <defs>
      <path id="DejaVuSans-6e" d="M 3513 2113 
L 3513 0 
L 2938 0 
L 2938 2094 
Q 2938 2591 2744 2837 
Q 2550 3084 2163 3084 
Q 1697 3084 1428 2787 
Q 1159 2491 1159 1978 
L 1159 0 
L 581 0 
L 581 3500 
L 1159 3500 
L 1159 2956 
Q 1366 3272 1645 3428 
Q 1925 3584 2291 3584 
Q 2894 3584 3203 3211 
Q 3513 2838 3513 2113 
z
" transform="scale(0.015625)"/>
      <path id="DejaVuSans-64" d="M 2906 2969 
L 2906 4863 
L 3481 4863 
L 3481 0 
L 2906 0 
L 2906 525 
Q 2725 213 2448 61 
Q 2172 -91 1784 -91 
Q 1150 -91 751 415 
Q 353 922 353 1747 
Q 353 2572 751 3078 
Q 1150 3584 1784 3584 
Q 2172 3584 2448 3432 
Q 2725 3281 2906 2969 
z
M 947 1747 
Q 947 1113 1208 752 
Q 1469 391 1925 391 
Q 2381 391 2643 752 
Q 2906 1113 2906 1747 
Q 2906 2381 2643 2742 
Q 2381 3103 1925 3103 
Q 1469 3103 1208 2742 
Q 947 2381 947 1747 
z
" transform="scale(0.015625)"/>
      <path id="DejaVuSans-69" d="M 603 3500 
L 1178 3500 
L 1178 0 
L 603 0 
L 603 3500 
z
M 603 4863 
L 1178 4863 
L 1178 4134 
L 603 4134 
L 603 4863 
z
" transform="scale(0.015625)"/>
      <path id="DejaVuSans-63" d="M 3122 3366 
L 3122 2828 
Q 2878 2963 2633 3030 
Q 2388 3097 2138 3097 
Q 1578 3097 1268 2742 
Q 959 2388 959 1747 
Q 959 1106 1268 751 
Q 1578 397 2138 397 
Q 2388 397 2633 464 
Q 2878 531 3122 666 
L 3122 134 
Q 2881 22 2623 -34 
Q 2366 -91 2075 -91 
Q 1284 -91 818 406 
Q 353 903 353 1747 
Q 353 2603 823 3093 
Q 1294 3584 2113 3584 
Q 2378 3584 2631 3529 
Q 2884 3475 3122 3366 
z
" transform="scale(0.015625)"/>
      <path id="DejaVuSans-73" d="M 2834 3397 
L 2834 2853 
Q 2591 2978 2328 3040 
Q 2066 3103 1784 3103 
Q 1356 3103 1142 2972 
Q 928 2841 928 2578 
Q 928 2378 1081 2264 
Q 1234 2150 1697 2047 
L 1894 2003 
Q 2506 1872 2764 1633 
Q 3022 1394 3022 966 
Q 3022 478 2636 193 
Q 2250 -91 1575 -91 
Q 1294 -91 989 -36 
Q 684 19 347 128 
L 347 722 
Q 666 556 975 473 
Q 1284 391 1588 391 
Q 1994 391 2212 530 
Q 2431 669 2431 922 
Q 2431 1156 2273 1281 
Q 2116 1406 1581 1522 
L 1381 1569 
Q 847 1681 609 1914 
Q 372 2147 372 2553 
Q 372 3047 722 3315 
Q 1072 3584 1716 3584 
Q 2034 3584 2315 3537 
Q 2597 3491 2834 3397 
z
" transform="scale(0.015625)"/>
      <path id="DejaVuSans-28" d="M 1984 4856 
Q 1566 4138 1362 3434 
Q 1159 2731 1159 2009 
Q 1159 1288 1364 580 
Q 1569 -128 1984 -844 
L 1484 -844 
Q 1016 -109 783 600 
Q 550 1309 550 2009 
Q 550 2706 781 3412 
Q 1013 4119 1484 4856 
L 1984 4856 
z
" transform="scale(0.015625)"/>
      <path id="DejaVuSans-4c" d="M 628 4666 
L 1259 4666 
L 1259 531 
L 3531 531 
L 3531 0 
L 628 0 
L 628 4666 
z
" transform="scale(0.015625)"/>
      <path id="DejaVuSans-59" d="M -13 4666 
L 666 4666 
L 1959 2747 
L 3244 4666 
L 3922 4666 
L 2272 2222 
L 2272 0 
L 1638 0 
L 1638 2222 
L -13 4666 
z
" transform="scale(0.015625)"/>
      <path id="DejaVuSans-72" d="M 2631 2963 
Q 2534 3019 2420 3045 
Q 2306 3072 2169 3072 
Q 1681 3072 1420 2755 
Q 1159 2438 1159 1844 
L 1159 0 
L 581 0 
L 581 3500 
L 1159 3500 
L 1159 2956 
Q 1341 3275 1631 3429 
Q 1922 3584 2338 3584 
Q 2397 3584 2469 3576 
Q 2541 3569 2628 3553 
L 2631 2963 
z
" transform="scale(0.015625)"/>
      <path id="DejaVuSans-29" d="M 513 4856 
L 1013 4856 
Q 1481 4119 1714 3412 
Q 1947 2706 1947 2009 
Q 1947 1309 1714 600 
Q 1481 -109 1013 -844 
L 513 -844 
Q 928 -128 1133 580 
Q 1338 1288 1338 2009 
Q 1338 2731 1133 3434 
Q 928 4138 513 4856 
z
" transform="scale(0.015625)"/>
     </defs>
     <use xlink:href="#DejaVuSans-56"/>
     <use xlink:href="#DejaVuSans-49" transform="translate(68.408203 0)"/>
     <use xlink:href="#DejaVuSans-58" transform="translate(97.900391 0)"/>
     <use xlink:href="#DejaVuSans-20" transform="translate(166.40625 0)"/>
     <use xlink:href="#DejaVuSans-49" transform="translate(198.193359 0)"/>
     <use xlink:href="#DejaVuSans-6e" transform="translate(227.685547 0)"/>
     <use xlink:href="#DejaVuSans-64" transform="translate(291.064453 0)"/>
     <use xlink:href="#DejaVuSans-69" transform="translate(354.541016 0)"/>
     <use xlink:href="#DejaVuSans-63" transform="translate(382.324219 0)"/>
     <use xlink:href="#DejaVuSans-65" transform="translate(437.304688 0)"/>
     <use xlink:href="#DejaVuSans-73" transform="translate(498.828125 0)"/>
     <use xlink:href="#DejaVuSans-20" transform="translate(550.927734 0)"/>
     <use xlink:href="#DejaVuSans-28" transform="translate(582.714844 0)"/>
     <use xlink:href="#DejaVuSans-4c" transform="translate(621.728516 0)"/>
     <use xlink:href="#DejaVuSans-61" transform="translate(677.441406 0)"/>
     <use xlink:href="#DejaVuSans-73" transform="translate(738.720703 0)"/>
     <use xlink:href="#DejaVuSans-74" transform="translate(790.820312 0)"/>
     <use xlink:href="#DejaVuSans-20" transform="translate(830.029297 0)"/>
     <use xlink:href="#DejaVuSans-32" transform="translate(861.816406 0)"/>
     <use xlink:href="#DejaVuSans-20" transform="translate(925.439453 0)"/>
     <use xlink:href="#DejaVuSans-59" transform="translate(957.226562 0)"/>
     <use xlink:href="#DejaVuSans-65" transform="translate(1005.060547 0)"/>
     <use xlink:href="#DejaVuSans-61" transform="translate(1066.583984 0)"/>
     <use xlink:href="#DejaVuSans-72" transform="translate(1127.863281 0)"/>
     <use xlink:href="#DejaVuSans-73" transform="translate(1168.976562 0)"/>
     <use xlink:href="#DejaVuSans-29" transform="translate(1221.076172 0)"/>
    </g>
   </g>
   <g id="legend_1">
    <g id="patch_11">
     <path d="M 49.53875 150.104375 
L 193.27 150.104375 
Q 195.27 150.104375 195.27 148.104375 
L 195.27 46.3575 
Q 195.27 44.3575 193.27 44.3575 
L 49.53875 44.3575 
Q 47.53875 44.3575 47.53875 46.3575 
L 47.53875 148.104375 
Q 47.53875 150.104375 49.53875 150.104375 
z
" style="fill: #ffffff; opacity: 0.8; stroke: #cccccc; stroke-linejoin: miter"/>
    </g>
    <g id="patch_12">
     <path d="M 51.53875 55.955938 
L 71.53875 55.955938 
L 71.53875 48.955938 
L 51.53875 48.955938 
z
" style="fill: #008000; opacity: 0.1"/>
    </g>
    <g id="text_20">
     <!-- Safe (&lt;15) -->
     <g transform="translate(79.53875 55.955938) scale(0.1 -0.1)">
      <defs>
       <path id="DejaVuSans-53" d="M 3425 4513 
L 3425 3897 
Q 3066 4069 2747 4153 
Q 2428 4238 2131 4238 
Q 1616 4238 1336 4038 
Q 1056 3838 1056 3469 
Q 1056 3159 1242 3001 
Q 1428 2844 1947 2747 
L 2328 2669 
Q 3034 2534 3370 2195 
Q 3706 1856 3706 1288 
Q 3706 609 3251 259 
Q 2797 -91 1919 -91 
Q 1588 -91 1214 -16 
Q 841 59 441 206 
L 441 856 
Q 825 641 1194 531 
Q 1563 422 1919 422 
Q 2459 422 2753 634 
Q 3047 847 3047 1241 
Q 3047 1584 2836 1778 
Q 2625 1972 2144 2069 
L 1759 2144 
Q 1053 2284 737 2584 
Q 422 2884 422 3419 
Q 422 4038 858 4394 
Q 1294 4750 2059 4750 
Q 2388 4750 2728 4690 
Q 3069 4631 3425 4513 
z
" transform="scale(0.015625)"/>
       <path id="DejaVuSans-66" d="M 2375 4863 
L 2375 4384 
L 1825 4384 
Q 1516 4384 1395 4259 
Q 1275 4134 1275 3809 
L 1275 3500 
L 2222 3500 
L 2222 3053 
L 1275 3053 
L 1275 0 
L 697 0 
L 697 3053 
L 147 3053 
L 147 3500 
L 697 3500 
L 697 3744 
Q 697 4328 969 4595 
Q 1241 4863 1831 4863 
L 2375 4863 
z
" transform="scale(0.015625)"/>
       <path id="DejaVuSans-3c" d="M 4684 3150 
L 1459 2003 
L 4684 863 
L 4684 294 
L 678 1747 
L 678 2266 
L 4684 3719 
L 4684 3150 
z
" transform="scale(0.015625)"/>
      </defs>
      <use xlink:href="#DejaVuSans-53"/>
      <use xlink:href="#DejaVuSans-61" transform="translate(63.476562 0)"/>
      <use xlink:href="#DejaVuSans-66" transform="translate(124.755859 0)"/>
      <use xlink:href="#DejaVuSans-65" transform="translate(159.960938 0)"/>
      <use xlink:href="#DejaVuSans-20" transform="translate(221.484375 0)"/>
      <use xlink:href="#DejaVuSans-28" transform="translate(253.271484 0)"/>
      <use xlink:href="#DejaVuSans-3c" transform="translate(292.285156 0)"/>
      <use xlink:href="#DejaVuSans-31" transform="translate(376.074219 0)"/>
      <use xlink:href="#DejaVuSans-35" transform="translate(439.697266 0)"/>
      <use xlink:href="#DejaVuSans-29" transform="translate(503.320312 0)"/>
     </g>
    </g>
    <g id="patch_13">
     <path d="M 51.53875 70.634063 
L 71.53875 70.634063 
L 71.53875 63.634063 
L 51.53875 63.634063 
z
" style="fill: #ffff00; opacity: 0.15"/>
    </g>
    <g id="text_21">
     <!-- Warning (15-20) -->
     <g transform="translate(79.53875 70.634063) scale(0.1 -0.1)">
      <defs>
       <path id="DejaVuSans-57" d="M 213 4666 
L 850 4666 
L 1831 722 
L 2809 4666 
L 3519 4666 
L 4500 722 
L 5478 4666 
L 6119 4666 
L 4947 0 
L 4153 0 
L 3169 4050 
L 2175 0 
L 1381 0 
L 213 4666 
z
" transform="scale(0.015625)"/>
       <path id="DejaVuSans-67" d="M 2906 1791 
Q 2906 2416 2648 2759 
Q 2391 3103 1925 3103 
Q 1463 3103 1205 2759 
Q 947 2416 947 1791 
Q 947 1169 1205 825 
Q 1463 481 1925 481 
Q 2391 481 2648 825 
Q 2906 1169 2906 1791 
z
M 3481 434 
Q 3481 -459 3084 -895 
Q 2688 -1331 1869 -1331 
Q 1566 -1331 1297 -1286 
Q 1028 -1241 775 -1147 
L 775 -588 
Q 1028 -725 1275 -790 
Q 1522 -856 1778 -856 
Q 2344 -856 2625 -561 
Q 2906 -266 2906 331 
L 2906 616 
Q 2728 306 2450 153 
Q 2172 0 1784 0 
Q 1141 0 747 490 
Q 353 981 353 1791 
Q 353 2603 747 3093 
Q 1141 3584 1784 3584 
Q 2172 3584 2450 3431 
Q 2728 3278 2906 2969 
L 2906 3500 
L 3481 3500 
L 3481 434 
z
" transform="scale(0.015625)"/>
      </defs>
      <use xlink:href="#DejaVuSans-57"/>
      <use xlink:href="#DejaVuSans-61" transform="translate(92.501953 0)"/>
      <use xlink:href="#DejaVuSans-72" transform="translate(153.78125 0)"/>
      <use xlink:href="#DejaVuSans-6e" transform="translate(193.144531 0)"/>
      <use xlink:href="#DejaVuSans-69" transform="translate(256.523438 0)"/>
      <use xlink:href="#DejaVuSans-6e" transform="translate(284.306641 0)"/>
      <use xlink:href="#DejaVuSans-67" transform="translate(347.685547 0)"/>
      <use xlink:href="#DejaVuSans-20" transform="translate(411.162109 0)"/>
      <use xlink:href="#DejaVuSans-28" transform="translate(442.949219 0)"/>
      <use xlink:href="#DejaVuSans-31" transform="translate(481.962891 0)"/>
      <use xlink:href="#DejaVuSans-35" transform="translate(545.585938 0)"/>
      <use xlink:href="#DejaVuSans-2d" transform="translate(609.208984 0)"/>
      <use xlink:href="#DejaVuSans-32" transform="translate(645.292969 0)"/>
      <use xlink:href="#DejaVuSans-30" transform="translate(708.916016 0)"/>
      <use xlink:href="#DejaVuSans-29" transform="translate(772.539062 0)"/>
     </g>
    </g>
    <g id="patch_14">
     <path d="M 51.53875 85.312187 
L 71.53875 85.312187 
L 71.53875 78.312187 
L 51.53875 78.312187 
z
" style="fill: #ffa500; opacity: 0.15"/>
    </g>
    <g id="text_22">
     <!-- Dangerous (20-30) -->
     <g transform="translate(79.53875 85.312187) scale(0.1 -0.1)">
      <defs>
       <path id="DejaVuSans-6f" d="M 1959 3097 
Q 1497 3097 1228 2736 
Q 959 2375 959 1747 
Q 959 1119 1226 758 
Q 1494 397 1959 397 
Q 2419 397 2687 759 
Q 2956 1122 2956 1747 
Q 2956 2369 2687 2733 
Q 2419 3097 1959 3097 
z
M 1959 3584 
Q 2709 3584 3137 3096 
Q 3566 2609 3566 1747 
Q 3566 888 3137 398 
Q 2709 -91 1959 -91 
Q 1206 -91 779 398 
Q 353 888 353 1747 
Q 353 2609 779 3096 
Q 1206 3584 1959 3584 
z
" transform="scale(0.015625)"/>
      </defs>
      <use xlink:href="#DejaVuSans-44"/>
      <use xlink:href="#DejaVuSans-61" transform="translate(77.001953 0)"/>
      <use xlink:href="#DejaVuSans-6e" transform="translate(138.28125 0)"/>
      <use xlink:href="#DejaVuSans-67" transform="translate(201.660156 0)"/>
      <use xlink:href="#DejaVuSans-65" transform="translate(265.136719 0)"/>
      <use xlink:href="#DejaVuSans-72" transform="translate(326.660156 0)"/>
      <use xlink:href="#DejaVuSans-6f" transform="translate(365.523438 0)"/>
      <use xlink:href="#DejaVuSans-75" transform="translate(426.705078 0)"/>
      <use xlink:href="#DejaVuSans-73" transform="translate(490.083984 0)"/>
      <use xlink:href="#DejaVuSans-20" transform="translate(542.183594 0)"/>
      <use xlink:href="#DejaVuSans-28" transform="translate(573.970703 0)"/>
      <use xlink:href="#DejaVuSans-32" transform="translate(612.984375 0)"/>
      <use xlink:href="#DejaVuSans-30" transform="translate(676.607422 0)"/>
      <use xlink:href="#DejaVuSans-2d" transform="translate(740.230469 0)"/>
      <use xlink:href="#DejaVuSans-33" transform="translate(776.314453 0)"/>
      <use xlink:href="#DejaVuSans-30" transform="translate(839.9375 0)"/>
      <use xlink:href="#DejaVuSans-29" transform="translate(903.560547 0)"/>
     </g>
    </g>
    <g id="patch_15">
     <path d="M 51.53875 99.990313 
L 71.53875 99.990313 
L 71.53875 92.990313 
L 51.53875 92.990313 
z
" style="fill: #ff0000; opacity: 0.1"/>
    </g>
    <g id="text_23">
     <!-- Very Dangerous (&gt;30) -->
     <g transform="translate(79.53875 99.990313) scale(0.1 -0.1)">
      <defs>
       <path id="DejaVuSans-79" d="M 2059 -325 
Q 1816 -950 1584 -1140 
Q 1353 -1331 966 -1331 
L 506 -1331 
L 506 -850 
L 844 -850 
Q 1081 -850 1212 -737 
Q 1344 -625 1503 -206 
L 1606 56 
L 191 3500 
L 800 3500 
L 1894 763 
L 2988 3500 
L 3597 3500 
L 2059 -325 
z
" transform="scale(0.015625)"/>
       <path id="DejaVuSans-3e" d="M 678 3150 
L 678 3719 
L 4684 2266 
L 4684 1747 
L 678 294 
L 678 863 
L 3897 2003 
L 678 3150 
z
" transform="scale(0.015625)"/>
      </defs>
      <use xlink:href="#DejaVuSans-56"/>
      <use xlink:href="#DejaVuSans-65" transform="translate(60.658203 0)"/>
      <use xlink:href="#DejaVuSans-72" transform="translate(122.181641 0)"/>
      <use xlink:href="#DejaVuSans-79" transform="translate(163.294922 0)"/>
      <use xlink:href="#DejaVuSans-20" transform="translate(222.474609 0)"/>
      <use xlink:href="#DejaVuSans-44" transform="translate(254.261719 0)"/>
      <use xlink:href="#DejaVuSans-61" transform="translate(331.263672 0)"/>
      <use xlink:href="#DejaVuSans-6e" transform="translate(392.542969 0)"/>
      <use xlink:href="#DejaVuSans-67" transform="translate(455.921875 0)"/>
      <use xlink:href="#DejaVuSans-65" transform="translate(519.398438 0)"/>
      <use xlink:href="#DejaVuSans-72" transform="translate(580.921875 0)"/>
      <use xlink:href="#DejaVuSans-6f" transform="translate(619.785156 0)"/>
      <use xlink:href="#DejaVuSans-75" transform="translate(680.966797 0)"/>
      <use xlink:href="#DejaVuSans-73" transform="translate(744.345703 0)"/>
      <use xlink:href="#DejaVuSans-20" transform="translate(796.445312 0)"/>
      <use xlink:href="#DejaVuSans-28" transform="translate(828.232422 0)"/>
      <use xlink:href="#DejaVuSans-3e" transform="translate(867.246094 0)"/>
      <use xlink:href="#DejaVuSans-33" transform="translate(951.035156 0)"/>
      <use xlink:href="#DejaVuSans-30" transform="translate(1014.658203 0)"/>
      <use xlink:href="#DejaVuSans-29" transform="translate(1078.28125 0)"/>
     </g>
    </g>
    <g id="line2d_35">
     <path d="M 51.53875 111.168437 
L 61.53875 111.168437 
L 71.53875 111.168437 
" style="fill: none; stroke-dasharray: 2,3.3; stroke-dashoffset: 0; stroke: #808080; stroke-width: 2"/>
    </g>
    <g id="text_24">
     <!-- Today -->
     <g transform="translate(79.53875 114.668437) scale(0.1 -0.1)">
      <defs>
       <path id="DejaVuSans-54" d="M -19 4666 
L 3928 4666 
L 3928 4134 
L 2272 4134 
L 2272 0 
L 1638 0 
L 1638 4134 
L -19 4134 
L -19 4666 
z
" transform="scale(0.015625)"/>
      </defs>
      <use xlink:href="#DejaVuSans-54"/>
      <use xlink:href="#DejaVuSans-6f" transform="translate(44.083984 0)"/>
      <use xlink:href="#DejaVuSans-64" transform="translate(105.265625 0)"/>
      <use xlink:href="#DejaVuSans-61" transform="translate(168.742188 0)"/>
      <use xlink:href="#DejaVuSans-79" transform="translate(230.021484 0)"/>
     </g>
    </g>
    <g id="line2d_36">
     <path d="M 51.53875 125.846563 
L 61.53875 125.846563 
L 71.53875 125.846563 
" style="fill: none; stroke: #0000ff; stroke-width: 2; stroke-linecap: square"/>
    </g>
    <g id="text_25">
     <!-- US VIX (^VIX) -->
     <g transform="translate(79.53875 129.346563) scale(0.1 -0.1)">
      <defs>
       <path id="DejaVuSans-55" d="M 556 4666 
L 1191 4666 
L 1191 1831 
Q 1191 1081 1462 751 
Q 1734 422 2344 422 
Q 2950 422 3222 751 
Q 3494 1081 3494 1831 
L 3494 4666 
L 4128 4666 
L 4128 1753 
Q 4128 841 3676 375 
Q 3225 -91 2344 -91 
Q 1459 -91 1007 375 
Q 556 841 556 1753 
L 556 4666 
z
" transform="scale(0.015625)"/>
       <path id="DejaVuSans-5e" d="M 2988 4666 
L 4684 2925 
L 4056 2925 
L 2681 4159 
L 1306 2925 
L 678 2925 
L 2375 4666 
L 2988 4666 
z
" transform="scale(0.015625)"/>
      </defs>
      <use xlink:href="#DejaVuSans-55"/>
      <use xlink:href="#DejaVuSans-53" transform="translate(73.193359 0)"/>
      <use xlink:href="#DejaVuSans-20" transform="translate(136.669922 0)"/>
      <use xlink:href="#DejaVuSans-56" transform="translate(168.457031 0)"/>
      <use xlink:href="#DejaVuSans-49" transform="translate(236.865234 0)"/>
      <use xlink:href="#DejaVuSans-58" transform="translate(266.357422 0)"/>
      <use xlink:href="#DejaVuSans-20" transform="translate(334.863281 0)"/>
      <use xlink:href="#DejaVuSans-28" transform="translate(366.650391 0)"/>
      <use xlink:href="#DejaVuSans-5e" transform="translate(405.664062 0)"/>
      <use xlink:href="#DejaVuSans-56" transform="translate(489.453125 0)"/>
      <use xlink:href="#DejaVuSans-49" transform="translate(557.861328 0)"/>
      <use xlink:href="#DejaVuSans-58" transform="translate(587.353516 0)"/>
      <use xlink:href="#DejaVuSans-29" transform="translate(655.859375 0)"/>
     </g>
    </g>
    <g id="line2d_37">
     <path d="M 51.53875 140.524688 
L 61.53875 140.524688 
L 71.53875 140.524688 
" style="fill: none; stroke: #008000; stroke-width: 2; stroke-linecap: square"/>
    </g>
    <g id="text_26">
     <!-- Taiwan VIX (VIXTWN) -->
     <g transform="translate(79.53875 144.024688) scale(0.1 -0.1)">
      <defs>
       <path id="DejaVuSans-77" d="M 269 3500 
L 844 3500 
L 1563 769 
L 2278 3500 
L 2956 3500 
L 3675 769 
L 4391 3500 
L 4966 3500 
L 4050 0 
L 3372 0 
L 2619 2869 
L 1863 0 
L 1184 0 
L 269 3500 
z
" transform="scale(0.015625)"/>
       <path id="DejaVuSans-4e" d="M 628 4666 
L 1478 4666 
L 3547 763 
L 3547 4666 
L 4159 4666 
L 4159 0 
L 3309 0 
L 1241 3903 
L 1241 0 
L 628 0 
L 628 4666 
z
" transform="scale(0.015625)"/>
      </defs>
      <use xlink:href="#DejaVuSans-54"/>
      <use xlink:href="#DejaVuSans-61" transform="translate(44.583984 0)"/>
      <use xlink:href="#DejaVuSans-69" transform="translate(105.863281 0)"/>
      <use xlink:href="#DejaVuSans-77" transform="translate(133.646484 0)"/>
      <use xlink:href="#DejaVuSans-61" transform="translate(215.433594 0)"/>
      <use xlink:href="#DejaVuSans-6e" transform="translate(276.712891 0)"/>
      <use xlink:href="#DejaVuSans-20" transform="translate(340.091797 0)"/>
      <use xlink:href="#DejaVuSans-56" transform="translate(371.878906 0)"/>
      <use xlink:href="#DejaVuSans-49" transform="translate(440.287109 0)"/>
      <use xlink:href="#DejaVuSans-58" transform="translate(469.779297 0)"/>
      <use xlink:href="#DejaVuSans-20" transform="translate(538.285156 0)"/>
      <use xlink:href="#DejaVuSans-28" transform="translate(570.072266 0)"/>
      <use xlink:href="#DejaVuSans-56" transform="translate(609.085938 0)"/>
      <use xlink:href="#DejaVuSans-49" transform="translate(677.494141 0)"/>
      <use xlink:href="#DejaVuSans-58" transform="translate(706.986328 0)"/>
      <use xlink:href="#DejaVuSans-54" transform="translate(773.742188 0)"/>
      <use xlink:href="#DejaVuSans-57" transform="translate(834.826172 0)"/>
      <use xlink:href="#DejaVuSans-4e" transform="translate(933.703125 0)"/>
      <use xlink:href="#DejaVuSans-29" transform="translate(1008.507812 0)"/>
     </g>
    </g>
   </g>
  </g>
 </g>
 <defs>
  <clipPath id="pd65a56e579">
   <rect x="42.53875" y="39.3575" width="1095.16" height="489.8"/>
  </clipPath>
 </defs>
</svg>
